<svg width="123" height="65" viewBox="0 0 123 65" fill="none" xmlns="http://www.w3.org/2000/svg">
<mask id="path-1-outside-1" maskUnits="userSpaceOnUse" x="0.496582" y="-0.0859375" width="123" height="65" fill="black">
<rect fill="white" x="0.496582" y="-0.0859375" width="123" height="65"/>
<path d="M80.2895 29.2436C80.1778 29.5219 80.1761 29.8312 80.2846 30.1107C82.6148 36.1855 86.4161 39.0157 92.2464 39.0157C100.642 39.0157 103.452 32.5218 105.239 26.0786C107.116 25.91 108.714 23.8144 109.077 20.9095C109.313 19.883 109.259 18.8125 108.921 17.8139C108.583 16.8153 107.974 15.9267 107.16 15.2442C107.134 11.42 105.637 7.74747 102.97 4.96631C101.549 3.6209 99.8669 2.57124 98.0244 1.88009C96.182 1.18894 94.2168 0.870494 92.2464 0.943785C88.9207 0.725551 85.6292 1.71596 82.9963 3.72718C80.3633 5.7384 78.5719 8.63058 77.9618 11.8552C77.9225 12.0237 77.9207 12.1986 77.9566 12.3678C77.9926 12.537 78.0653 12.6966 78.1699 12.8355C79.7723 15.2299 80.7967 17.9533 81.1645 20.7974C81.5323 23.6414 81.2339 26.5306 80.292 29.2436H80.2895ZM92.2464 3.35248C93.8931 3.28328 95.5371 3.5406 97.0807 4.10915C98.6243 4.6777 100.036 5.54587 101.232 6.66204C102.416 7.92208 103.334 9.40076 103.933 11.0124C104.532 12.6241 104.8 14.3367 104.722 16.0511C104.719 16.3434 104.824 16.6267 105.018 16.8483C105.212 17.0699 105.481 17.2146 105.775 17.2555C106.214 17.6867 106.528 18.2268 106.681 18.8187C106.834 19.4106 106.822 20.0323 106.646 20.618C106.678 21.2328 106.535 21.8441 106.233 22.383C105.93 22.9219 105.481 23.3668 104.935 23.6675C104.772 23.5781 104.59 23.5267 104.403 23.5174C104.216 23.508 104.03 23.5409 103.858 23.6134C103.686 23.686 103.534 23.7963 103.412 23.936C103.29 24.0756 103.202 24.2408 103.156 24.419C101.124 32.1388 98.6838 36.607 92.2464 36.607C87.5738 36.607 84.71 34.5283 82.7397 29.6772C83.6994 26.7265 83.994 23.6054 83.603 20.5312C83.212 17.4571 82.1447 14.5037 80.4756 11.8769C81.0625 9.29766 82.5772 7.01424 84.7404 5.44764C86.9037 3.88105 89.5695 3.13692 92.2464 3.35248ZM18.6254 26.081C20.4122 32.5242 23.2246 39.0157 31.6176 39.0157C37.448 39.0157 41.2492 36.1855 43.5794 30.1107C43.6872 29.8311 43.6855 29.522 43.5745 29.2436C42.6326 26.5306 42.3341 23.6414 42.702 20.7974C43.0698 17.9533 44.0942 15.2299 45.6966 12.8355C45.8007 12.6959 45.8729 12.5358 45.9084 12.3662C45.9439 12.1966 45.9418 12.0215 45.9022 11.8528C45.2916 8.62861 43.5 5.73701 40.8671 3.72628C38.2341 1.71554 34.943 0.725466 31.6176 0.943785C29.6479 0.870918 27.6834 1.18934 25.8414 1.88004C23.9995 2.57074 22.3178 3.61957 20.8968 4.96391C18.229 7.74596 16.7309 11.4191 16.704 15.2442C15.8904 15.9276 15.2821 16.8168 14.9448 17.8157C14.6074 18.8146 14.5539 19.8852 14.7899 20.9119C15.1497 23.8216 16.7554 25.922 18.6254 26.081ZM18.0869 17.2555C18.381 17.2146 18.6499 17.0699 18.8435 16.8483C19.0372 16.6267 19.1423 16.3434 19.1394 16.0511C19.0613 14.3362 19.3299 12.623 19.9294 11.0109C20.529 9.39884 21.4477 7.91984 22.6322 6.65963C23.8282 5.54377 25.2399 4.67598 26.7835 4.10784C28.3271 3.5397 29.9711 3.28283 31.6176 3.35248C34.2953 3.13642 36.962 3.88059 39.1258 5.44772C41.2896 7.01485 42.8044 9.29918 43.3909 11.8793C41.7218 14.5061 40.6544 17.4594 40.263 20.5335C39.8715 23.6075 40.1655 26.7286 41.1244 29.6796C39.154 34.5307 36.2902 36.607 31.6176 36.607C25.1778 36.607 22.7399 32.1388 20.7083 24.419C20.6348 24.1615 20.4779 23.9347 20.2614 23.7729C20.045 23.6112 19.7808 23.5234 19.509 23.5229C19.2948 23.5231 19.0842 23.577 18.8971 23.6795C18.3613 23.3678 17.9218 22.9183 17.626 22.3793C17.3302 21.8404 17.1891 21.2323 17.218 20.6205C17.0415 20.0345 17.0291 19.4126 17.1821 18.8204C17.335 18.2281 17.6476 17.6874 18.0869 17.2555ZM45.6477 25.262C45.6676 26.3089 45.9831 27.3297 46.5588 28.2103C47.1346 29.0908 47.948 29.7964 48.908 30.248C50.5357 36.7154 53.468 43.0503 61.9198 43.0503C70.1733 43.0503 72.9392 36.6768 74.6942 30.3492C75.8001 30.02 76.7667 29.3446 77.447 28.4255C78.1274 27.5065 78.4843 26.3941 78.4636 25.2572C78.6945 24.247 78.6416 23.194 78.3104 22.2112C77.9792 21.2284 77.3823 20.3529 76.5838 19.6786C76.5551 15.9228 75.0824 12.3169 72.4619 9.5862C71.0651 8.26344 69.4116 7.23144 67.6002 6.55188C65.7889 5.87232 63.8569 5.55915 61.9198 5.63111C51.6738 5.63111 47.7331 12.797 47.4173 19.7678C46.6622 20.4524 46.1019 21.3193 45.7919 22.2825C45.482 23.2458 45.4331 24.272 45.6501 25.2596L45.6477 25.262ZM48.9055 21.7044C49.1718 21.6419 49.4092 21.4933 49.5796 21.2824C49.75 21.0714 49.8436 20.8104 49.8454 20.541C49.8699 17.6096 50.8123 8.03981 61.9198 8.03981C63.5336 7.97175 65.1449 8.22369 66.6578 8.78065C68.1707 9.33761 69.5543 10.1882 70.7265 11.2819C71.8868 12.5167 72.7865 13.9658 73.3734 15.5452C73.9604 17.1247 74.223 18.8031 74.1459 20.4832C74.143 20.7754 74.2481 21.0587 74.4418 21.2803C74.6354 21.5019 74.9043 21.6466 75.1984 21.6875C75.6227 22.1101 75.9241 22.6369 76.0713 23.213C76.2185 23.7891 76.2062 24.3935 76.0355 24.9633C76.075 25.5629 75.9405 26.1612 75.6475 26.6884C75.3545 27.2155 74.9152 27.6498 74.3809 27.9405C74.2175 27.8521 74.0357 27.8016 73.8494 27.7928C73.6631 27.7841 73.4773 27.8174 73.3061 27.8901C73.1349 27.9629 72.9829 28.0731 72.8616 28.2125C72.7403 28.3519 72.653 28.5167 72.6063 28.6944C70.6188 36.2601 68.2299 40.6416 61.9198 40.6416C55.2279 40.6416 52.7508 35.9326 51.0888 28.8606C51.0264 28.5956 50.8745 28.3592 50.6581 28.1899C50.4416 28.0206 50.1733 27.9285 49.8968 27.9284C49.8625 27.9283 49.8282 27.9299 49.794 27.9333C49.7505 27.9362 49.7071 27.9418 49.6643 27.9501C49.1646 27.6265 48.7569 27.1828 48.4798 26.6611C48.2027 26.1393 48.0653 25.5567 48.0807 24.9681C47.9136 24.4009 47.9019 23.8002 48.0468 23.227C48.1917 22.6539 48.4879 22.1286 48.9055 21.7044ZM23.9393 60.0436C25.076 60.043 26.166 59.5985 26.97 58.8078C27.774 58.017 28.2263 56.9446 28.2276 55.826V53.9231C28.2291 52.7184 27.9653 51.5276 27.4541 50.4329C27.3167 50.1452 27.1877 49.8536 27.0674 49.5586L27.0649 49.5489C25.119 44.5261 22.8478 39.6312 20.2653 34.8944C20.0812 34.5769 19.833 34.2999 19.536 34.0804C19.2389 33.8609 18.8994 33.7036 18.5383 33.618C18.1771 33.5325 17.802 33.5207 17.4361 33.5832C17.0701 33.6457 16.721 33.7812 16.4102 33.9815C14.0204 35.0495 11.7297 36.3205 9.5641 37.78C9.50263 37.808 9.44368 37.841 9.38787 37.8788C5.7898 40.3357 1.49658 44.0836 1.49658 48.0098V56.3366C1.49723 57.32 1.89465 58.2629 2.60148 58.958C3.30832 59.6532 4.26671 60.0436 5.266 60.0436H23.9393ZM3.94425 56.3342V48.0098C3.94425 45.8179 6.38213 42.8889 10.6411 39.9575C10.7008 39.9291 10.7581 39.8961 10.8124 39.8587C12.9028 38.439 15.1178 37.2057 17.4309 36.1734C17.6283 36.073 17.8453 36.0155 18.0673 36.0048C18.1387 36.0874 18.2026 36.1761 18.2582 36.2698C20.7226 40.8549 22.9018 45.583 24.7837 50.4281C24.8841 50.6858 25.053 51.0616 25.2292 51.4398C25.5931 52.2195 25.7809 53.0675 25.7799 53.9255V55.826C25.7786 56.3056 25.5841 56.765 25.2391 57.1037C24.894 57.4424 24.4266 57.6325 23.9393 57.6325H5.26355C4.91427 57.6319 4.57945 57.4952 4.33224 57.2524C4.08504 57.0096 3.94555 56.6804 3.94425 56.3366V56.3342ZM114.427 37.8812C114.377 37.8479 114.325 37.8181 114.271 37.7921C112.103 36.331 109.809 35.0584 107.417 33.9887C106.935 33.7233 106.39 33.5916 105.838 33.6077C105.286 33.6238 104.749 33.7872 104.284 34.0803C103.977 34.3175 103.718 34.6091 103.52 34.9402C100.949 39.667 98.6868 44.5505 96.7477 49.561C96.6266 49.8577 96.4968 50.1509 96.3585 50.4402C95.8487 51.5352 95.5856 52.7258 95.5875 53.9304V55.8284C95.5888 56.9477 96.0413 58.0207 96.8458 58.8119C97.6503 59.6031 98.7409 60.0478 99.8783 60.0485H118.552C119.551 60.0478 120.509 59.6567 121.215 58.9611C121.922 58.2656 122.318 57.3224 122.318 56.3391V48.017C122.318 44.0836 118.028 40.3332 114.427 37.8812ZM119.871 56.3415C119.87 56.686 119.731 57.0162 119.483 57.2596C119.235 57.503 118.899 57.6398 118.549 57.6398H99.8783C99.3899 57.6398 98.9214 57.449 98.5759 57.1094C98.2303 56.7697 98.0358 56.309 98.0351 55.8284V53.9304C98.0339 53.0715 98.2218 52.2227 98.5859 51.4422C98.743 51.1087 98.8915 50.7714 99.0314 50.4305C100.923 45.5649 103.116 40.818 105.598 36.2168C105.647 36.1445 105.689 36.0674 105.714 36.0313C105.742 36.0234 105.772 36.0201 105.802 36.0217C106.009 36.0337 106.211 36.0878 106.396 36.1806C108.706 37.211 110.918 38.4419 113.005 39.8587C113.057 39.8953 113.112 39.9275 113.169 39.9551C117.428 42.8841 119.871 45.8179 119.871 48.017V56.3415ZM84.1275 42.0892C83.4906 41.6632 82.8426 41.2536 82.184 40.8608C80.6014 39.9026 78.9599 39.0419 77.2691 38.2834C76.5418 37.9646 75.7282 37.8902 74.9536 38.0715C74.5003 38.2065 74.0878 38.4495 73.7526 38.7789C73.4175 39.1083 73.17 39.5139 73.0322 39.9599L66.6242 53.8581C66.3146 54.6768 65.7883 55.3993 65.0998 55.9507C64.4112 56.502 63.5855 56.8623 62.7079 56.9942C62.2487 57.0751 61.7784 57.0727 61.3201 56.987C60.4387 56.8456 59.6118 56.4746 58.9253 55.9125C58.2388 55.3505 57.7177 54.6178 57.4161 53.7907L51.0374 39.9623C50.8962 39.5112 50.6433 39.1016 50.3016 38.7703C49.9598 38.439 49.5398 38.1964 49.0793 38.0642C48.3149 37.8914 47.514 37.9683 46.7981 38.2834C45.1087 39.0422 43.4681 39.9021 41.8856 40.8583C41.2307 41.2493 40.5859 41.6565 39.9519 42.0796C39.8868 42.1092 39.8245 42.1447 39.7659 42.1855C36.1678 44.6424 31.8844 48.3952 31.8844 52.3213V60.6362C31.8857 61.6196 32.2833 62.5623 32.9899 63.2577C33.6965 63.9531 34.6545 64.3443 35.6538 64.3456H88.4158C89.4154 64.3443 90.3736 63.9532 91.0806 63.2579C91.7876 62.5625 92.1857 61.6198 92.1877 60.6362V52.3213C92.1852 48.3903 87.8969 44.64 84.2988 42.1855C84.2447 42.1486 84.1874 42.1163 84.1275 42.0892ZM89.7425 52.3213V60.6362C89.7412 60.9807 89.6015 61.3109 89.3539 61.5545C89.1063 61.7982 88.7709 61.9356 88.4207 61.9369H35.6514C35.301 61.9362 34.9652 61.799 34.7175 61.5552C34.4697 61.3114 34.3303 60.9809 34.3296 60.6362V52.3213C34.3296 50.1294 36.7626 47.2004 41.0093 44.2667C41.0714 44.2375 41.1312 44.2037 41.188 44.1655C41.8244 43.7319 42.4926 43.3152 43.1608 42.913C44.6577 42.0091 46.2091 41.1959 47.8065 40.4778C48.0294 40.3839 48.2758 40.3579 48.5139 40.4031C48.6287 40.5631 48.7217 40.7372 48.7905 40.921L55.1569 54.7204C55.6141 55.9277 56.3889 56.9938 57.4021 57.8098C58.4153 58.6257 59.6306 59.1622 60.9236 59.3644C61.6433 59.4776 62.3766 59.48 63.0971 59.3716C64.3864 59.1784 65.6007 58.6525 66.6162 57.8473C67.6318 57.0421 68.4124 55.9865 68.8785 54.7878L75.2743 40.9186C75.3501 40.75 75.475 40.4609 75.5043 40.4176C75.7538 40.3567 76.0166 40.377 76.2533 40.4754C77.853 41.1929 79.4062 42.007 80.9039 42.913C81.5721 43.3152 82.2403 43.7319 82.8743 44.1655C82.9305 44.2039 82.9903 44.237 83.053 44.2642C87.3021 47.1956 89.7375 50.127 89.74 52.3213H89.7425Z"/>
</mask>
<path d="M80.2895 29.2436C80.1778 29.5219 80.1761 29.8312 80.2846 30.1107C82.6148 36.1855 86.4161 39.0157 92.2464 39.0157C100.642 39.0157 103.452 32.5218 105.239 26.0786C107.116 25.91 108.714 23.8144 109.077 20.9095C109.313 19.883 109.259 18.8125 108.921 17.8139C108.583 16.8153 107.974 15.9267 107.16 15.2442C107.134 11.42 105.637 7.74747 102.97 4.96631C101.549 3.6209 99.8669 2.57124 98.0244 1.88009C96.182 1.18894 94.2168 0.870494 92.2464 0.943785C88.9207 0.725551 85.6292 1.71596 82.9963 3.72718C80.3633 5.7384 78.5719 8.63058 77.9618 11.8552C77.9225 12.0237 77.9207 12.1986 77.9566 12.3678C77.9926 12.537 78.0653 12.6966 78.1699 12.8355C79.7723 15.2299 80.7967 17.9533 81.1645 20.7974C81.5323 23.6414 81.2339 26.5306 80.292 29.2436H80.2895ZM92.2464 3.35248C93.8931 3.28328 95.5371 3.5406 97.0807 4.10915C98.6243 4.6777 100.036 5.54587 101.232 6.66204C102.416 7.92208 103.334 9.40076 103.933 11.0124C104.532 12.6241 104.8 14.3367 104.722 16.0511C104.719 16.3434 104.824 16.6267 105.018 16.8483C105.212 17.0699 105.481 17.2146 105.775 17.2555C106.214 17.6867 106.528 18.2268 106.681 18.8187C106.834 19.4106 106.822 20.0323 106.646 20.618C106.678 21.2328 106.535 21.8441 106.233 22.383C105.93 22.9219 105.481 23.3668 104.935 23.6675C104.772 23.5781 104.59 23.5267 104.403 23.5174C104.216 23.508 104.03 23.5409 103.858 23.6134C103.686 23.686 103.534 23.7963 103.412 23.936C103.29 24.0756 103.202 24.2408 103.156 24.419C101.124 32.1388 98.6838 36.607 92.2464 36.607C87.5738 36.607 84.71 34.5283 82.7397 29.6772C83.6994 26.7265 83.994 23.6054 83.603 20.5312C83.212 17.4571 82.1447 14.5037 80.4756 11.8769C81.0625 9.29766 82.5772 7.01424 84.7404 5.44764C86.9037 3.88105 89.5695 3.13692 92.2464 3.35248ZM18.6254 26.081C20.4122 32.5242 23.2246 39.0157 31.6176 39.0157C37.448 39.0157 41.2492 36.1855 43.5794 30.1107C43.6872 29.8311 43.6855 29.522 43.5745 29.2436C42.6326 26.5306 42.3341 23.6414 42.702 20.7974C43.0698 17.9533 44.0942 15.2299 45.6966 12.8355C45.8007 12.6959 45.8729 12.5358 45.9084 12.3662C45.9439 12.1966 45.9418 12.0215 45.9022 11.8528C45.2916 8.62861 43.5 5.73701 40.8671 3.72628C38.2341 1.71554 34.943 0.725466 31.6176 0.943785C29.6479 0.870918 27.6834 1.18934 25.8414 1.88004C23.9995 2.57074 22.3178 3.61957 20.8968 4.96391C18.229 7.74596 16.7309 11.4191 16.704 15.2442C15.8904 15.9276 15.2821 16.8168 14.9448 17.8157C14.6074 18.8146 14.5539 19.8852 14.7899 20.9119C15.1497 23.8216 16.7554 25.922 18.6254 26.081ZM18.0869 17.2555C18.381 17.2146 18.6499 17.0699 18.8435 16.8483C19.0372 16.6267 19.1423 16.3434 19.1394 16.0511C19.0613 14.3362 19.3299 12.623 19.9294 11.0109C20.529 9.39884 21.4477 7.91984 22.6322 6.65963C23.8282 5.54377 25.2399 4.67598 26.7835 4.10784C28.3271 3.5397 29.9711 3.28283 31.6176 3.35248C34.2953 3.13642 36.962 3.88059 39.1258 5.44772C41.2896 7.01485 42.8044 9.29918 43.3909 11.8793C41.7218 14.5061 40.6544 17.4594 40.263 20.5335C39.8715 23.6075 40.1655 26.7286 41.1244 29.6796C39.154 34.5307 36.2902 36.607 31.6176 36.607C25.1778 36.607 22.7399 32.1388 20.7083 24.419C20.6348 24.1615 20.4779 23.9347 20.2614 23.7729C20.045 23.6112 19.7808 23.5234 19.509 23.5229C19.2948 23.5231 19.0842 23.577 18.8971 23.6795C18.3613 23.3678 17.9218 22.9183 17.626 22.3793C17.3302 21.8404 17.1891 21.2323 17.218 20.6205C17.0415 20.0345 17.0291 19.4126 17.1821 18.8204C17.335 18.2281 17.6476 17.6874 18.0869 17.2555ZM45.6477 25.262C45.6676 26.3089 45.9831 27.3297 46.5588 28.2103C47.1346 29.0908 47.948 29.7964 48.908 30.248C50.5357 36.7154 53.468 43.0503 61.9198 43.0503C70.1733 43.0503 72.9392 36.6768 74.6942 30.3492C75.8001 30.02 76.7667 29.3446 77.447 28.4255C78.1274 27.5065 78.4843 26.3941 78.4636 25.2572C78.6945 24.247 78.6416 23.194 78.3104 22.2112C77.9792 21.2284 77.3823 20.3529 76.5838 19.6786C76.5551 15.9228 75.0824 12.3169 72.4619 9.5862C71.0651 8.26344 69.4116 7.23144 67.6002 6.55188C65.7889 5.87232 63.8569 5.55915 61.9198 5.63111C51.6738 5.63111 47.7331 12.797 47.4173 19.7678C46.6622 20.4524 46.1019 21.3193 45.7919 22.2825C45.482 23.2458 45.4331 24.272 45.6501 25.2596L45.6477 25.262ZM48.9055 21.7044C49.1718 21.6419 49.4092 21.4933 49.5796 21.2824C49.75 21.0714 49.8436 20.8104 49.8454 20.541C49.8699 17.6096 50.8123 8.03981 61.9198 8.03981C63.5336 7.97175 65.1449 8.22369 66.6578 8.78065C68.1707 9.33761 69.5543 10.1882 70.7265 11.2819C71.8868 12.5167 72.7865 13.9658 73.3734 15.5452C73.9604 17.1247 74.223 18.8031 74.1459 20.4832C74.143 20.7754 74.2481 21.0587 74.4418 21.2803C74.6354 21.5019 74.9043 21.6466 75.1984 21.6875C75.6227 22.1101 75.9241 22.6369 76.0713 23.213C76.2185 23.7891 76.2062 24.3935 76.0355 24.9633C76.075 25.5629 75.9405 26.1612 75.6475 26.6884C75.3545 27.2155 74.9152 27.6498 74.3809 27.9405C74.2175 27.8521 74.0357 27.8016 73.8494 27.7928C73.6631 27.7841 73.4773 27.8174 73.3061 27.8901C73.1349 27.9629 72.9829 28.0731 72.8616 28.2125C72.7403 28.3519 72.653 28.5167 72.6063 28.6944C70.6188 36.2601 68.2299 40.6416 61.9198 40.6416C55.2279 40.6416 52.7508 35.9326 51.0888 28.8606C51.0264 28.5956 50.8745 28.3592 50.6581 28.1899C50.4416 28.0206 50.1733 27.9285 49.8968 27.9284C49.8625 27.9283 49.8282 27.9299 49.794 27.9333C49.7505 27.9362 49.7071 27.9418 49.6643 27.9501C49.1646 27.6265 48.7569 27.1828 48.4798 26.6611C48.2027 26.1393 48.0653 25.5567 48.0807 24.9681C47.9136 24.4009 47.9019 23.8002 48.0468 23.227C48.1917 22.6539 48.4879 22.1286 48.9055 21.7044ZM23.9393 60.0436C25.076 60.043 26.166 59.5985 26.97 58.8078C27.774 58.017 28.2263 56.9446 28.2276 55.826V53.9231C28.2291 52.7184 27.9653 51.5276 27.4541 50.4329C27.3167 50.1452 27.1877 49.8536 27.0674 49.5586L27.0649 49.5489C25.119 44.5261 22.8478 39.6312 20.2653 34.8944C20.0812 34.5769 19.833 34.2999 19.536 34.0804C19.2389 33.8609 18.8994 33.7036 18.5383 33.618C18.1771 33.5325 17.802 33.5207 17.4361 33.5832C17.0701 33.6457 16.721 33.7812 16.4102 33.9815C14.0204 35.0495 11.7297 36.3205 9.5641 37.78C9.50263 37.808 9.44368 37.841 9.38787 37.8788C5.7898 40.3357 1.49658 44.0836 1.49658 48.0098V56.3366C1.49723 57.32 1.89465 58.2629 2.60148 58.958C3.30832 59.6532 4.26671 60.0436 5.266 60.0436H23.9393ZM3.94425 56.3342V48.0098C3.94425 45.8179 6.38213 42.8889 10.6411 39.9575C10.7008 39.9291 10.7581 39.8961 10.8124 39.8587C12.9028 38.439 15.1178 37.2057 17.4309 36.1734C17.6283 36.073 17.8453 36.0155 18.0673 36.0048C18.1387 36.0874 18.2026 36.1761 18.2582 36.2698C20.7226 40.8549 22.9018 45.583 24.7837 50.4281C24.8841 50.6858 25.053 51.0616 25.2292 51.4398C25.5931 52.2195 25.7809 53.0675 25.7799 53.9255V55.826C25.7786 56.3056 25.5841 56.765 25.2391 57.1037C24.894 57.4424 24.4266 57.6325 23.9393 57.6325H5.26355C4.91427 57.6319 4.57945 57.4952 4.33224 57.2524C4.08504 57.0096 3.94555 56.6804 3.94425 56.3366V56.3342ZM114.427 37.8812C114.377 37.8479 114.325 37.8181 114.271 37.7921C112.103 36.331 109.809 35.0584 107.417 33.9887C106.935 33.7233 106.39 33.5916 105.838 33.6077C105.286 33.6238 104.749 33.7872 104.284 34.0803C103.977 34.3175 103.718 34.6091 103.52 34.9402C100.949 39.667 98.6868 44.5505 96.7477 49.561C96.6266 49.8577 96.4968 50.1509 96.3585 50.4402C95.8487 51.5352 95.5856 52.7258 95.5875 53.9304V55.8284C95.5888 56.9477 96.0413 58.0207 96.8458 58.8119C97.6503 59.6031 98.7409 60.0478 99.8783 60.0485H118.552C119.551 60.0478 120.509 59.6567 121.215 58.9611C121.922 58.2656 122.318 57.3224 122.318 56.3391V48.017C122.318 44.0836 118.028 40.3332 114.427 37.8812ZM119.871 56.3415C119.87 56.686 119.731 57.0162 119.483 57.2596C119.235 57.503 118.899 57.6398 118.549 57.6398H99.8783C99.3899 57.6398 98.9214 57.449 98.5759 57.1094C98.2303 56.7697 98.0358 56.309 98.0351 55.8284V53.9304C98.0339 53.0715 98.2218 52.2227 98.5859 51.4422C98.743 51.1087 98.8915 50.7714 99.0314 50.4305C100.923 45.5649 103.116 40.818 105.598 36.2168C105.647 36.1445 105.689 36.0674 105.714 36.0313C105.742 36.0234 105.772 36.0201 105.802 36.0217C106.009 36.0337 106.211 36.0878 106.396 36.1806C108.706 37.211 110.918 38.4419 113.005 39.8587C113.057 39.8953 113.112 39.9275 113.169 39.9551C117.428 42.8841 119.871 45.8179 119.871 48.017V56.3415ZM84.1275 42.0892C83.4906 41.6632 82.8426 41.2536 82.184 40.8608C80.6014 39.9026 78.9599 39.0419 77.2691 38.2834C76.5418 37.9646 75.7282 37.8902 74.9536 38.0715C74.5003 38.2065 74.0878 38.4495 73.7526 38.7789C73.4175 39.1083 73.17 39.5139 73.0322 39.9599L66.6242 53.8581C66.3146 54.6768 65.7883 55.3993 65.0998 55.9507C64.4112 56.502 63.5855 56.8623 62.7079 56.9942C62.2487 57.0751 61.7784 57.0727 61.3201 56.987C60.4387 56.8456 59.6118 56.4746 58.9253 55.9125C58.2388 55.3505 57.7177 54.6178 57.4161 53.7907L51.0374 39.9623C50.8962 39.5112 50.6433 39.1016 50.3016 38.7703C49.9598 38.439 49.5398 38.1964 49.0793 38.0642C48.3149 37.8914 47.514 37.9683 46.7981 38.2834C45.1087 39.0422 43.4681 39.9021 41.8856 40.8583C41.2307 41.2493 40.5859 41.6565 39.9519 42.0796C39.8868 42.1092 39.8245 42.1447 39.7659 42.1855C36.1678 44.6424 31.8844 48.3952 31.8844 52.3213V60.6362C31.8857 61.6196 32.2833 62.5623 32.9899 63.2577C33.6965 63.9531 34.6545 64.3443 35.6538 64.3456H88.4158C89.4154 64.3443 90.3736 63.9532 91.0806 63.2579C91.7876 62.5625 92.1857 61.6198 92.1877 60.6362V52.3213C92.1852 48.3903 87.8969 44.64 84.2988 42.1855C84.2447 42.1486 84.1874 42.1163 84.1275 42.0892ZM89.7425 52.3213V60.6362C89.7412 60.9807 89.6015 61.3109 89.3539 61.5545C89.1063 61.7982 88.7709 61.9356 88.4207 61.9369H35.6514C35.301 61.9362 34.9652 61.799 34.7175 61.5552C34.4697 61.3114 34.3303 60.9809 34.3296 60.6362V52.3213C34.3296 50.1294 36.7626 47.2004 41.0093 44.2667C41.0714 44.2375 41.1312 44.2037 41.188 44.1655C41.8244 43.7319 42.4926 43.3152 43.1608 42.913C44.6577 42.0091 46.2091 41.1959 47.8065 40.4778C48.0294 40.3839 48.2758 40.3579 48.5139 40.4031C48.6287 40.5631 48.7217 40.7372 48.7905 40.921L55.1569 54.7204C55.6141 55.9277 56.3889 56.9938 57.4021 57.8098C58.4153 58.6257 59.6306 59.1622 60.9236 59.3644C61.6433 59.4776 62.3766 59.48 63.0971 59.3716C64.3864 59.1784 65.6007 58.6525 66.6162 57.8473C67.6318 57.0421 68.4124 55.9865 68.8785 54.7878L75.2743 40.9186C75.3501 40.75 75.475 40.4609 75.5043 40.4176C75.7538 40.3567 76.0166 40.377 76.2533 40.4754C77.853 41.1929 79.4062 42.007 80.9039 42.913C81.5721 43.3152 82.2403 43.7319 82.8743 44.1655C82.9305 44.2039 82.9903 44.237 83.053 44.2642C87.3021 47.1956 89.7375 50.127 89.74 52.3213H89.7425Z" fill="white"/>
<path d="M80.2895 29.2436C80.1778 29.5219 80.1761 29.8312 80.2846 30.1107C82.6148 36.1855 86.4161 39.0157 92.2464 39.0157C100.642 39.0157 103.452 32.5218 105.239 26.0786C107.116 25.91 108.714 23.8144 109.077 20.9095C109.313 19.883 109.259 18.8125 108.921 17.8139C108.583 16.8153 107.974 15.9267 107.16 15.2442C107.134 11.42 105.637 7.74747 102.97 4.96631C101.549 3.6209 99.8669 2.57124 98.0244 1.88009C96.182 1.18894 94.2168 0.870494 92.2464 0.943785C88.9207 0.725551 85.6292 1.71596 82.9963 3.72718C80.3633 5.7384 78.5719 8.63058 77.9618 11.8552C77.9225 12.0237 77.9207 12.1986 77.9566 12.3678C77.9926 12.537 78.0653 12.6966 78.1699 12.8355C79.7723 15.2299 80.7967 17.9533 81.1645 20.7974C81.5323 23.6414 81.2339 26.5306 80.292 29.2436H80.2895ZM92.2464 3.35248C93.8931 3.28328 95.5371 3.5406 97.0807 4.10915C98.6243 4.6777 100.036 5.54587 101.232 6.66204C102.416 7.92208 103.334 9.40076 103.933 11.0124C104.532 12.6241 104.8 14.3367 104.722 16.0511C104.719 16.3434 104.824 16.6267 105.018 16.8483C105.212 17.0699 105.481 17.2146 105.775 17.2555C106.214 17.6867 106.528 18.2268 106.681 18.8187C106.834 19.4106 106.822 20.0323 106.646 20.618C106.678 21.2328 106.535 21.8441 106.233 22.383C105.93 22.9219 105.481 23.3668 104.935 23.6675C104.772 23.5781 104.59 23.5267 104.403 23.5174C104.216 23.508 104.03 23.5409 103.858 23.6134C103.686 23.686 103.534 23.7963 103.412 23.936C103.29 24.0756 103.202 24.2408 103.156 24.419C101.124 32.1388 98.6838 36.607 92.2464 36.607C87.5738 36.607 84.71 34.5283 82.7397 29.6772C83.6994 26.7265 83.994 23.6054 83.603 20.5312C83.212 17.4571 82.1447 14.5037 80.4756 11.8769C81.0625 9.29766 82.5772 7.01424 84.7404 5.44764C86.9037 3.88105 89.5695 3.13692 92.2464 3.35248ZM18.6254 26.081C20.4122 32.5242 23.2246 39.0157 31.6176 39.0157C37.448 39.0157 41.2492 36.1855 43.5794 30.1107C43.6872 29.8311 43.6855 29.522 43.5745 29.2436C42.6326 26.5306 42.3341 23.6414 42.702 20.7974C43.0698 17.9533 44.0942 15.2299 45.6966 12.8355C45.8007 12.6959 45.8729 12.5358 45.9084 12.3662C45.9439 12.1966 45.9418 12.0215 45.9022 11.8528C45.2916 8.62861 43.5 5.73701 40.8671 3.72628C38.2341 1.71554 34.943 0.725466 31.6176 0.943785C29.6479 0.870918 27.6834 1.18934 25.8414 1.88004C23.9995 2.57074 22.3178 3.61957 20.8968 4.96391C18.229 7.74596 16.7309 11.4191 16.704 15.2442C15.8904 15.9276 15.2821 16.8168 14.9448 17.8157C14.6074 18.8146 14.5539 19.8852 14.7899 20.9119C15.1497 23.8216 16.7554 25.922 18.6254 26.081ZM18.0869 17.2555C18.381 17.2146 18.6499 17.0699 18.8435 16.8483C19.0372 16.6267 19.1423 16.3434 19.1394 16.0511C19.0613 14.3362 19.3299 12.623 19.9294 11.0109C20.529 9.39884 21.4477 7.91984 22.6322 6.65963C23.8282 5.54377 25.2399 4.67598 26.7835 4.10784C28.3271 3.5397 29.9711 3.28283 31.6176 3.35248C34.2953 3.13642 36.962 3.88059 39.1258 5.44772C41.2896 7.01485 42.8044 9.29918 43.3909 11.8793C41.7218 14.5061 40.6544 17.4594 40.263 20.5335C39.8715 23.6075 40.1655 26.7286 41.1244 29.6796C39.154 34.5307 36.2902 36.607 31.6176 36.607C25.1778 36.607 22.7399 32.1388 20.7083 24.419C20.6348 24.1615 20.4779 23.9347 20.2614 23.7729C20.045 23.6112 19.7808 23.5234 19.509 23.5229C19.2948 23.5231 19.0842 23.577 18.8971 23.6795C18.3613 23.3678 17.9218 22.9183 17.626 22.3793C17.3302 21.8404 17.1891 21.2323 17.218 20.6205C17.0415 20.0345 17.0291 19.4126 17.1821 18.8204C17.335 18.2281 17.6476 17.6874 18.0869 17.2555ZM45.6477 25.262C45.6676 26.3089 45.9831 27.3297 46.5588 28.2103C47.1346 29.0908 47.948 29.7964 48.908 30.248C50.5357 36.7154 53.468 43.0503 61.9198 43.0503C70.1733 43.0503 72.9392 36.6768 74.6942 30.3492C75.8001 30.02 76.7667 29.3446 77.447 28.4255C78.1274 27.5065 78.4843 26.3941 78.4636 25.2572C78.6945 24.247 78.6416 23.194 78.3104 22.2112C77.9792 21.2284 77.3823 20.3529 76.5838 19.6786C76.5551 15.9228 75.0824 12.3169 72.4619 9.5862C71.0651 8.26344 69.4116 7.23144 67.6002 6.55188C65.7889 5.87232 63.8569 5.55915 61.9198 5.63111C51.6738 5.63111 47.7331 12.797 47.4173 19.7678C46.6622 20.4524 46.1019 21.3193 45.7919 22.2825C45.482 23.2458 45.4331 24.272 45.6501 25.2596L45.6477 25.262ZM48.9055 21.7044C49.1718 21.6419 49.4092 21.4933 49.5796 21.2824C49.75 21.0714 49.8436 20.8104 49.8454 20.541C49.8699 17.6096 50.8123 8.03981 61.9198 8.03981C63.5336 7.97175 65.1449 8.22369 66.6578 8.78065C68.1707 9.33761 69.5543 10.1882 70.7265 11.2819C71.8868 12.5167 72.7865 13.9658 73.3734 15.5452C73.9604 17.1247 74.223 18.8031 74.1459 20.4832C74.143 20.7754 74.2481 21.0587 74.4418 21.2803C74.6354 21.5019 74.9043 21.6466 75.1984 21.6875C75.6227 22.1101 75.9241 22.6369 76.0713 23.213C76.2185 23.7891 76.2062 24.3935 76.0355 24.9633C76.075 25.5629 75.9405 26.1612 75.6475 26.6884C75.3545 27.2155 74.9152 27.6498 74.3809 27.9405C74.2175 27.8521 74.0357 27.8016 73.8494 27.7928C73.6631 27.7841 73.4773 27.8174 73.3061 27.8901C73.1349 27.9629 72.9829 28.0731 72.8616 28.2125C72.7403 28.3519 72.653 28.5167 72.6063 28.6944C70.6188 36.2601 68.2299 40.6416 61.9198 40.6416C55.2279 40.6416 52.7508 35.9326 51.0888 28.8606C51.0264 28.5956 50.8745 28.3592 50.6581 28.1899C50.4416 28.0206 50.1733 27.9285 49.8968 27.9284C49.8625 27.9283 49.8282 27.9299 49.794 27.9333C49.7505 27.9362 49.7071 27.9418 49.6643 27.9501C49.1646 27.6265 48.7569 27.1828 48.4798 26.6611C48.2027 26.1393 48.0653 25.5567 48.0807 24.9681C47.9136 24.4009 47.9019 23.8002 48.0468 23.227C48.1917 22.6539 48.4879 22.1286 48.9055 21.7044ZM23.9393 60.0436C25.076 60.043 26.166 59.5985 26.97 58.8078C27.774 58.017 28.2263 56.9446 28.2276 55.826V53.9231C28.2291 52.7184 27.9653 51.5276 27.4541 50.4329C27.3167 50.1452 27.1877 49.8536 27.0674 49.5586L27.0649 49.5489C25.119 44.5261 22.8478 39.6312 20.2653 34.8944C20.0812 34.5769 19.833 34.2999 19.536 34.0804C19.2389 33.8609 18.8994 33.7036 18.5383 33.618C18.1771 33.5325 17.802 33.5207 17.4361 33.5832C17.0701 33.6457 16.721 33.7812 16.4102 33.9815C14.0204 35.0495 11.7297 36.3205 9.5641 37.78C9.50263 37.808 9.44368 37.841 9.38787 37.8788C5.7898 40.3357 1.49658 44.0836 1.49658 48.0098V56.3366C1.49723 57.32 1.89465 58.2629 2.60148 58.958C3.30832 59.6532 4.26671 60.0436 5.266 60.0436H23.9393ZM3.94425 56.3342V48.0098C3.94425 45.8179 6.38213 42.8889 10.6411 39.9575C10.7008 39.9291 10.7581 39.8961 10.8124 39.8587C12.9028 38.439 15.1178 37.2057 17.4309 36.1734C17.6283 36.073 17.8453 36.0155 18.0673 36.0048C18.1387 36.0874 18.2026 36.1761 18.2582 36.2698C20.7226 40.8549 22.9018 45.583 24.7837 50.4281C24.8841 50.6858 25.053 51.0616 25.2292 51.4398C25.5931 52.2195 25.7809 53.0675 25.7799 53.9255V55.826C25.7786 56.3056 25.5841 56.765 25.2391 57.1037C24.894 57.4424 24.4266 57.6325 23.9393 57.6325H5.26355C4.91427 57.6319 4.57945 57.4952 4.33224 57.2524C4.08504 57.0096 3.94555 56.6804 3.94425 56.3366V56.3342ZM114.427 37.8812C114.377 37.8479 114.325 37.8181 114.271 37.7921C112.103 36.331 109.809 35.0584 107.417 33.9887C106.935 33.7233 106.39 33.5916 105.838 33.6077C105.286 33.6238 104.749 33.7872 104.284 34.0803C103.977 34.3175 103.718 34.6091 103.52 34.9402C100.949 39.667 98.6868 44.5505 96.7477 49.561C96.6266 49.8577 96.4968 50.1509 96.3585 50.4402C95.8487 51.5352 95.5856 52.7258 95.5875 53.9304V55.8284C95.5888 56.9477 96.0413 58.0207 96.8458 58.8119C97.6503 59.6031 98.7409 60.0478 99.8783 60.0485H118.552C119.551 60.0478 120.509 59.6567 121.215 58.9611C121.922 58.2656 122.318 57.3224 122.318 56.3391V48.017C122.318 44.0836 118.028 40.3332 114.427 37.8812ZM119.871 56.3415C119.87 56.686 119.731 57.0162 119.483 57.2596C119.235 57.503 118.899 57.6398 118.549 57.6398H99.8783C99.3899 57.6398 98.9214 57.449 98.5759 57.1094C98.2303 56.7697 98.0358 56.309 98.0351 55.8284V53.9304C98.0339 53.0715 98.2218 52.2227 98.5859 51.4422C98.743 51.1087 98.8915 50.7714 99.0314 50.4305C100.923 45.5649 103.116 40.818 105.598 36.2168C105.647 36.1445 105.689 36.0674 105.714 36.0313C105.742 36.0234 105.772 36.0201 105.802 36.0217C106.009 36.0337 106.211 36.0878 106.396 36.1806C108.706 37.211 110.918 38.4419 113.005 39.8587C113.057 39.8953 113.112 39.9275 113.169 39.9551C117.428 42.8841 119.871 45.8179 119.871 48.017V56.3415ZM84.1275 42.0892C83.4906 41.6632 82.8426 41.2536 82.184 40.8608C80.6014 39.9026 78.9599 39.0419 77.2691 38.2834C76.5418 37.9646 75.7282 37.8902 74.9536 38.0715C74.5003 38.2065 74.0878 38.4495 73.7526 38.7789C73.4175 39.1083 73.17 39.5139 73.0322 39.9599L66.6242 53.8581C66.3146 54.6768 65.7883 55.3993 65.0998 55.9507C64.4112 56.502 63.5855 56.8623 62.7079 56.9942C62.2487 57.0751 61.7784 57.0727 61.3201 56.987C60.4387 56.8456 59.6118 56.4746 58.9253 55.9125C58.2388 55.3505 57.7177 54.6178 57.4161 53.7907L51.0374 39.9623C50.8962 39.5112 50.6433 39.1016 50.3016 38.7703C49.9598 38.439 49.5398 38.1964 49.0793 38.0642C48.3149 37.8914 47.514 37.9683 46.7981 38.2834C45.1087 39.0422 43.4681 39.9021 41.8856 40.8583C41.2307 41.2493 40.5859 41.6565 39.9519 42.0796C39.8868 42.1092 39.8245 42.1447 39.7659 42.1855C36.1678 44.6424 31.8844 48.3952 31.8844 52.3213V60.6362C31.8857 61.6196 32.2833 62.5623 32.9899 63.2577C33.6965 63.9531 34.6545 64.3443 35.6538 64.3456H88.4158C89.4154 64.3443 90.3736 63.9532 91.0806 63.2579C91.7876 62.5625 92.1857 61.6198 92.1877 60.6362V52.3213C92.1852 48.3903 87.8969 44.64 84.2988 42.1855C84.2447 42.1486 84.1874 42.1163 84.1275 42.0892ZM89.7425 52.3213V60.6362C89.7412 60.9807 89.6015 61.3109 89.3539 61.5545C89.1063 61.7982 88.7709 61.9356 88.4207 61.9369H35.6514C35.301 61.9362 34.9652 61.799 34.7175 61.5552C34.4697 61.3114 34.3303 60.9809 34.3296 60.6362V52.3213C34.3296 50.1294 36.7626 47.2004 41.0093 44.2667C41.0714 44.2375 41.1312 44.2037 41.188 44.1655C41.8244 43.7319 42.4926 43.3152 43.1608 42.913C44.6577 42.0091 46.2091 41.1959 47.8065 40.4778C48.0294 40.3839 48.2758 40.3579 48.5139 40.4031C48.6287 40.5631 48.7217 40.7372 48.7905 40.921L55.1569 54.7204C55.6141 55.9277 56.3889 56.9938 57.4021 57.8098C58.4153 58.6257 59.6306 59.1622 60.9236 59.3644C61.6433 59.4776 62.3766 59.48 63.0971 59.3716C64.3864 59.1784 65.6007 58.6525 66.6162 57.8473C67.6318 57.0421 68.4124 55.9865 68.8785 54.7878L75.2743 40.9186C75.3501 40.75 75.475 40.4609 75.5043 40.4176C75.7538 40.3567 76.0166 40.377 76.2533 40.4754C77.853 41.1929 79.4062 42.007 80.9039 42.913C81.5721 43.3152 82.2403 43.7319 82.8743 44.1655C82.9305 44.2039 82.9903 44.237 83.053 44.2642C87.3021 47.1956 89.7375 50.127 89.74 52.3213H89.7425Z" stroke="black" stroke-width="1.00888" mask="url(#path-1-outside-1)"/>
</svg>
