<svg width="74" height="71" viewBox="0 0 74 71" fill="none" xmlns="http://www.w3.org/2000/svg">
<path fill-rule="evenodd" clip-rule="evenodd" d="M64.2484 45.546L73.0556 58.4973C73.2085 58.7217 73.2782 58.9907 73.2534 59.2594C73.1933 59.9089 72.6073 60.3879 71.9444 60.3291L59.7604 59.239L57.567 70.0089C57.4715 70.4772 57.0978 70.843 56.6198 70.9361C56.5428 70.9511 56.4645 70.9586 56.386 70.9585C55.9832 70.9585 55.6069 70.7614 55.3833 70.4329L46.928 58.0024L45.1323 60.9362C45.1235 60.9506 45.1144 60.9649 45.1049 60.979C44.7387 61.5236 43.9912 61.6742 43.4355 61.3153L37.1037 57.23L30.7766 61.3153C30.5799 61.4424 30.3494 61.5101 30.1138 61.5101C30.0218 61.5107 29.93 61.5008 29.8402 61.4806C29.5197 61.4092 29.2428 61.2125 29.0738 60.9362L27.2793 58.0036L18.824 70.4329C18.6004 70.7614 18.2241 70.9585 17.8213 70.9585C17.743 70.9601 17.6646 70.9542 17.5875 70.9408C17.1095 70.8478 16.7358 70.4819 16.6403 70.0137L14.4614 59.337L2.37027 61.4912C2.07772 61.5435 1.77568 61.4878 1.5223 61.335C0.955431 60.9931 0.778877 60.2658 1.12777 59.7102L10.0133 45.5601L8.41408 45.0724C8.38802 45.0644 8.36211 45.0555 8.3365 45.0458C7.71615 44.8093 7.40884 44.1249 7.65002 43.5169L10.3592 36.6917L4.84444 31.6675C4.82335 31.6482 4.80286 31.6283 4.78328 31.6076C4.32984 31.1301 4.35726 30.3828 4.84444 29.9385L10.3652 24.9131L7.65725 18.0879C7.64731 18.0629 7.63827 18.0375 7.63014 18.0118C7.43174 17.3891 7.7859 16.7269 8.42131 16.5324L15.6655 14.3168L16.3006 7.02976C16.3024 7.0088 16.3046 6.98783 16.3076 6.96702C16.3992 6.32098 17.008 5.86997 17.6672 5.95973L25.2114 6.9837L29.0751 0.669837C29.084 0.655369 29.093 0.641049 29.1025 0.627024C29.4687 0.082415 30.2162 -0.0681682 30.772 0.290722L37.1038 4.37595L43.4368 0.290722C43.4513 0.281421 43.4658 0.272563 43.4805 0.263853C44.0513 -0.071416 44.7916 0.110317 45.1337 0.669837L48.9972 6.98134L56.5427 5.95737C56.87 5.91175 57.202 6.00122 57.4598 6.20421C57.7189 6.40779 57.8813 6.7066 57.9093 7.03094L58.5432 14.318L65.7934 16.5336C65.8194 16.5416 65.8453 16.5505 65.871 16.5602C66.4913 16.7967 66.7986 17.4811 66.5574 18.0891L63.8483 24.9143L69.363 29.9385C69.3841 29.9578 69.4046 29.9777 69.4242 29.9984C69.8776 30.4758 69.8502 31.2232 69.363 31.6675L63.8483 36.6929L66.5562 43.5181C66.5662 43.5431 66.5752 43.5685 66.5834 43.5941C66.7817 44.2169 66.4276 44.8791 65.7922 45.0736L64.2484 45.546ZM16.5916 57.7316L18.4355 66.7501L25.9074 55.7663L25.2096 54.6255L17.6642 55.6494C17.3368 55.6939 17.0053 55.6045 16.7471 55.4026C16.488 55.199 16.3256 54.9002 16.2976 54.5759L15.6636 47.2888L12.3869 46.2873L4.59558 58.6906L15.1948 56.8009C15.8416 56.6861 16.4628 57.1 16.5916 57.7316ZM47.339 52.7443L43.7115 58.6708L37.7666 54.83C37.3643 54.5705 36.8431 54.5705 36.4409 54.83L30.4947 58.666L26.8672 52.7384C26.6497 52.3826 26.2576 52.1647 25.8344 52.1644C25.7787 52.1642 25.7231 52.1682 25.6681 52.1762L18.5927 53.1352L17.9973 46.2981C17.9556 45.8194 17.6221 45.4131 17.1537 45.2706L10.3651 43.1944L12.8959 36.8026C13.0751 36.3514 12.9551 35.839 12.5935 35.5093L7.43542 30.804L12.5995 26.0988C12.9612 25.7691 13.0811 25.2567 12.902 24.8055L10.3712 18.4113L17.1622 16.3362C17.6305 16.1938 17.964 15.7875 18.0058 15.3087L18.6011 8.47167L25.6765 9.43186C26.1574 9.49918 26.6325 9.27714 26.8817 8.8685L30.5092 2.94203L36.4409 6.77806C36.8431 7.03759 37.3643 7.03759 37.7666 6.77806L43.7127 2.94203L47.3402 8.86968C47.5903 9.27404 48.0612 9.49475 48.5394 9.43186L55.6148 8.47285L56.2101 15.3099C56.2519 15.7887 56.5854 16.195 57.0537 16.3374L63.8447 18.4137L61.3067 24.8055C61.1276 25.2567 61.2475 25.7691 61.6092 26.0988L66.772 30.804L61.608 35.5093C61.2463 35.839 61.1264 36.3514 61.3055 36.8026L63.8363 43.1967L57.0513 45.2718C56.583 45.4143 56.2494 45.8206 56.2077 46.2993L55.6124 53.1364L48.5382 52.1809C48.0596 52.1182 47.5888 52.3395 47.339 52.7443ZM57.615 57.732C57.7425 57.1449 58.2938 56.7408 58.9045 56.7872L69.652 57.7497L61.8535 46.2806L58.5454 47.2916L57.9103 54.5786C57.9085 54.5996 57.9062 54.6206 57.9032 54.6414C57.8116 55.2874 57.2029 55.7384 56.5437 55.6487L48.9994 54.6247L48.3029 55.7632L55.7748 66.7469L57.615 57.732Z" fill="white"/>
<path fill-rule="evenodd" clip-rule="evenodd" d="M55.2179 24.9206C55.2179 22.9637 53.5992 21.3774 51.6024 21.3774H43.1664V16.6533C43.1697 13.3952 40.4773 10.7513 37.1527 10.748H37.1407C36.4751 10.748 35.9355 11.2769 35.9355 11.9291V17.5556L33.7663 21.7979L29.8881 24.8391C29.8489 24.2251 29.3324 23.7451 28.7046 23.7395H20.2686C19.6031 23.7395 19.0635 24.2683 19.0635 24.9206V42.6362C19.0635 43.2885 19.6031 43.8173 20.2686 43.8173H28.7046C29.3702 43.8173 29.9098 43.2885 29.9098 42.6362H47.987C49.9797 42.6265 51.5925 41.046 51.6024 39.0931C51.5984 38.484 51.4322 37.8864 51.1204 37.3593C51.3427 37.2234 51.5482 37.0624 51.7326 36.8798C52.9011 35.7661 53.1456 34.0156 52.3255 32.6351C52.5479 32.4992 52.7534 32.3383 52.9377 32.1556C54.1063 31.0419 54.3508 29.2915 53.5307 27.911C53.753 27.775 53.9585 27.6141 54.1429 27.4315C54.8346 26.7724 55.2229 25.8658 55.2179 24.9206ZM27.4996 41.4561H21.4739V26.1025H27.4996V41.4561ZM51.6024 26.1022C51.9168 26.1053 52.219 25.9824 52.4388 25.762C52.6752 25.5437 52.8088 25.2393 52.8076 24.9211C52.8076 24.2689 52.268 23.7401 51.6024 23.7401H41.9613C41.2957 23.7401 40.7561 23.2113 40.7561 22.559V16.6538C40.76 15.1509 39.7929 13.8103 38.3458 13.3126V17.8349C38.346 18.0181 38.3027 18.1988 38.2193 18.3628L35.809 23.087C35.7308 23.2399 35.6198 23.3744 35.4836 23.4814L29.9098 27.8501V40.2747H47.987C48.3014 40.2778 48.6036 40.155 48.8234 39.9346C49.0597 39.7164 49.1932 39.4119 49.1921 39.0936C49.1921 38.4414 48.6525 37.9126 47.987 37.9126H44.3716V35.5505H49.1921C49.5065 35.5536 49.8087 35.4308 50.0285 35.2104C50.2649 34.9922 50.3983 34.6878 50.3973 34.3695C50.3973 33.7172 49.8577 33.1884 49.1921 33.1884H45.5767V30.8263H50.3973C50.7117 30.8294 51.0139 30.7066 51.2337 30.4862C51.47 30.268 51.6035 29.9636 51.6024 29.6453C51.6024 28.9931 51.0628 28.4643 50.3973 28.4643H46.7818V26.1022H51.6024Z" fill="white"/>
</svg>
