<svg width="33" height="31" viewBox="0 0 33 31" fill="none" xmlns="http://www.w3.org/2000/svg">
<path d="M21.9336 0.841501C17.8554 1.15717 14.8147 2.7713 14.4081 4.83484C14.1533 6.12761 15.2394 7.53542 17.1755 8.43361C19.0933 9.32577 21.7634 9.75648 24.3005 9.58661C26.358 9.44716 27.8387 9.083 29.3679 8.33029C33.3857 6.36404 32.7058 3.06858 27.9598 1.51498C26.2791 0.962887 23.8758 0.69603 21.9336 0.841501Z" fill="white"/>
<path d="M31.6743 7.8877C31.5773 7.99102 31.2191 8.2639 30.8794 8.48861C28.2153 10.2546 24.4523 10.9163 20.5259 10.3094C20.1012 10.2425 19.6822 10.176 19.6033 10.1515C19.4939 10.1275 19.7006 10.3639 20.2831 10.9588C20.7442 11.4199 21.2786 12.0329 21.4786 12.3241L21.8427 12.8461L22.4192 12.8886C23.4752 12.9735 25.2412 12.8401 26.546 12.5789C27.8872 12.3121 29.3863 11.7232 30.3146 11.0919C31.3101 10.4304 31.9291 9.52624 31.9836 8.66419C32.008 8.37895 31.9896 8.11811 31.9351 7.95426L31.8562 7.69311L31.6743 7.8877Z" fill="white"/>
<path d="M10.6454 8.30572C7.99335 8.63342 5.41416 9.97468 3.71477 11.9168C0.935275 15.0849 0.182878 19.4484 1.74852 23.3143C2.32502 24.7345 3.15665 25.9424 4.31567 27.0649C8.67919 31.2646 15.6463 31.1128 19.8035 26.7188C22.5466 23.818 23.4996 19.6547 22.2917 15.8373C21.9155 14.6659 21.1448 13.2521 20.3556 12.281C19.5363 11.2795 18.2496 10.2114 17.0725 9.56203C16.1559 9.05811 14.8331 8.603 13.6496 8.39668C13.0002 8.28163 11.2888 8.22712 10.6454 8.30572ZM12.1081 11.7045C12.4054 11.8683 12.4054 11.8744 12.4054 15.7099C12.4054 19.5454 12.4054 19.5514 12.1081 19.7153C12.0292 19.7517 10.6879 19.7761 8.21774 19.7761H4.4491L4.30331 19.6303C4.00603 19.333 4.04248 18.9324 4.39427 18.6957L4.59489 18.5623H7.89035H11.1918V15.2912V12.0202L11.3497 11.8319C11.4771 11.6801 11.55 11.6436 11.7503 11.6436C11.8777 11.6436 12.0415 11.6741 12.1081 11.7045Z" fill="white"/>
<path d="M31.4618 11.317C29.6474 12.901 26.9405 13.7326 23.3782 13.7871C22.8501 13.7932 22.4194 13.8115 22.4194 13.8296C22.4194 13.8477 22.5228 14.1028 22.6562 14.4061C22.7836 14.7034 22.9839 15.2374 23.0932 15.5835L23.2996 16.2148L24.0279 16.1724C27.8149 15.96 30.8371 14.6552 31.7293 12.8465C31.9962 12.3185 32.0751 11.6811 31.9356 11.232L31.8567 10.9709L31.4618 11.317Z" fill="white"/>
<path d="M31.5227 14.5688C29.9691 15.9709 27.505 16.8202 24.3734 17.0389C23.9303 17.0694 23.5541 17.1058 23.536 17.1239C23.5176 17.1419 23.53 17.3971 23.5664 17.6943C23.5969 17.9856 23.6454 18.5136 23.6694 18.8594L23.7059 19.4844L24.2944 19.4419C26.1577 19.3085 27.8447 18.9139 29.192 18.2889C30.4423 17.7064 31.3221 16.9537 31.7408 16.11C31.9655 15.6489 31.9775 15.594 31.9715 15.0784C31.9715 14.7751 31.9411 14.4654 31.9106 14.3986C31.8564 14.2715 31.8441 14.2835 31.5227 14.5688Z" fill="white"/>
</svg>
