<svg width="42" height="36" viewBox="0 0 42 36" fill="none" xmlns="http://www.w3.org/2000/svg">
<path d="M29.5025 25.0303C27.0216 23.7584 24.457 22.7042 21.8631 21.7126C21.6707 21.6415 21.4406 21.4909 21.3569 21.3235C21.1435 20.855 20.9971 20.3571 20.8465 19.8718C20.7544 19.558 20.6666 19.261 20.3277 19.1104C20.2357 19.0685 20.1478 18.8887 20.1478 18.7715C20.1687 17.6335 19.9052 16.437 20.7503 15.4455C20.7754 15.4162 20.7879 15.3702 20.8046 15.3325C21.2607 14.3368 21.3402 13.1947 21.9761 12.2659C21.9928 12.245 21.997 12.2157 21.997 12.1864C22.0723 11.4752 22.1476 10.7723 22.2062 10.0653C22.2145 9.97743 22.135 9.82263 22.0597 9.79335C21.7083 9.67202 21.7292 9.38753 21.7292 9.10722C21.7292 7.72243 21.7292 7.52161 21.725 6.141C21.725 5.33773 21.4866 4.62232 20.8799 4.07426C20.1855 3.4509 19.4742 2.85263 18.763 2.25018C18.4199 1.95732 18.3907 1.73559 18.7128 1.41763C18.855 1.27539 19.0349 1.17498 19.2023 1.05784C19.1646 1.00345 19.1312 0.94906 19.0935 0.894672C18.8801 0.894672 18.6626 0.865386 18.4534 0.898856C17.6669 1.02437 16.8762 1.13733 16.1022 1.31722C14.6254 1.66447 13.1945 2.12467 11.998 3.1162C11.1822 3.78977 10.5254 4.5763 10.4459 5.68916C10.404 6.27069 10.4082 6.86059 10.404 7.43794C10.3998 8.39181 10.4124 8.15753 10.3915 9.10722C10.3873 9.26202 10.3036 9.51722 10.1948 9.55069C9.80995 9.6762 9.7974 9.92304 9.85178 10.241C9.88944 10.4627 9.86015 10.6887 9.91036 10.9062C10.0442 11.5003 10.1823 12.0944 10.3538 12.6801C10.4793 13.1152 10.7262 13.5294 10.7973 13.9687C10.9312 14.8556 11.2617 15.6212 11.8599 16.2906C11.9562 16.4036 12.0315 16.5876 12.0189 16.7341C11.9729 17.4118 11.9018 18.0938 11.8097 18.7715C11.7888 18.9012 11.6508 19.102 11.542 19.1271C11.0902 19.2192 11.019 19.5664 10.9103 19.922C10.768 20.3864 10.6174 20.8508 10.4375 21.3026C10.3831 21.4449 10.2409 21.5871 10.1028 21.6541C9.29954 22.0013 8.47954 22.3234 7.66791 22.6665C6.80607 23.0305 5.93587 23.3736 5.09495 23.7752C4.22474 24.1936 3.38383 24.6579 2.53454 25.114C2.0325 25.3817 1.56811 25.6788 1.17485 26.0469L0.00341797 31.0673C5.76434 31.0673 8.7724 35.2343 14.7676 35.7447L12.5586 32.6948L15.985 23.3275L14.9266 21.0516H17.0477L15.985 23.3275L19.4115 32.6948L17.2611 35.6694C21.6205 34.9414 28.5863 31.0673 31.9667 31.0673L30.7827 25.9674C30.4229 25.5951 29.9962 25.2813 29.5025 25.0303Z" fill="white"/>
<path d="M33.7573 0C29.7619 0 26.5112 3.25071 26.5112 7.24612C26.5112 7.4051 26.5153 7.56408 26.5279 7.72724L23.2019 9.8902C23.0052 10.0199 22.9006 10.2542 22.9425 10.4885C22.9801 10.7228 23.1558 10.911 23.3901 10.9654L28.4649 12.1912C29.833 13.6555 31.7533 14.4922 33.7573 14.4922C37.7527 14.4922 41.0034 11.2415 41.0034 7.24612C41.0034 3.25071 37.7527 0 33.7573 0ZM33.7573 13.3041C32.0252 13.3041 30.3769 12.5594 29.2264 11.2624C29.1469 11.1704 29.0381 11.1077 28.9209 11.0784L25.005 10.1329L27.4734 8.52633C27.6617 8.405 27.7663 8.18326 27.7412 7.95735C27.7119 7.70633 27.6951 7.47204 27.6951 7.24194C27.6951 3.90337 30.4145 1.18398 33.7531 1.18398C37.0917 1.18398 39.8111 3.90337 39.8111 7.24194C39.8111 10.5805 37.0958 13.3041 33.7573 13.3041Z" fill="white"/>
<path d="M31.5566 7.04102H30.5525C30.4814 7.04102 30.427 7.09959 30.427 7.16653V10.5218C30.427 10.593 30.4856 10.6473 30.5525 10.6473H31.5566C31.6277 10.6473 31.6821 10.593 31.6821 10.5218V7.16653C31.6821 7.0954 31.6235 7.04102 31.5566 7.04102Z" fill="white"/>
<path d="M34.163 5.65625H33.159C33.0878 5.65625 33.0334 5.71482 33.0334 5.78176V10.5177C33.0334 10.5888 33.0878 10.6432 33.159 10.6432H34.163C34.2342 10.6432 34.2885 10.5888 34.2885 10.5177V5.78176C34.2927 5.71064 34.2342 5.65625 34.163 5.65625Z" fill="white"/>
<path d="M36.6609 2.9668H35.6526C35.5815 2.9668 35.5271 3.02118 35.5271 3.09231V10.5183C35.5271 10.5894 35.5815 10.6438 35.6526 10.6438H36.6609C36.732 10.6438 36.7864 10.5894 36.7864 10.5183V3.09231C36.7864 3.02537 36.7278 2.9668 36.6609 2.9668Z" fill="white"/>
</svg>
