<svg width="28" height="25" viewBox="0 0 28 25" fill="none" xmlns="http://www.w3.org/2000/svg">
<path d="M3.48898 19.0026H7.61483C7.9252 19.0023 8.22277 18.8806 8.44224 18.6643C8.66171 18.448 8.78514 18.1547 8.78547 17.8487V7.55721H10.0358C10.2224 7.58278 10.4124 7.55453 10.583 7.47587C10.7536 7.39722 10.8975 7.27153 10.9972 7.114C11.0835 6.94065 11.1167 6.7463 11.093 6.55463C11.0692 6.36295 10.9894 6.18223 10.8633 6.03447L6.39125 0.420317C6.29446 0.289725 6.16769 0.183565 6.0213 0.110514C5.87492 0.0374623 5.71307 -0.000406157 5.54899 3.28518e-06C5.38492 0.000412727 5.22327 0.0390886 5.07726 0.11287C4.93125 0.18665 4.80503 0.293442 4.70891 0.424515L0.236864 6.03987C0.112114 6.18734 0.0334655 6.36732 0.010461 6.55799C-0.0125436 6.74865 0.0210847 6.9418 0.107265 7.114C0.205254 7.27013 0.346884 7.39506 0.515147 7.47379C0.68341 7.55251 0.871152 7.58169 1.05583 7.55781H2.31834V17.8487C2.31866 18.1547 2.4421 18.448 2.66157 18.6643C2.88104 18.8806 3.17861 19.0023 3.48898 19.0026ZM3.35087 21.6613H25.9727C26.1081 21.6612 26.2422 21.6874 26.3672 21.7384C26.4923 21.7895 26.606 21.8643 26.7017 21.9586C26.7974 22.053 26.8734 22.165 26.9251 22.2883C26.9769 22.4116 27.0035 22.5438 27.0034 22.6772V23.9846C27.0035 24.118 26.9769 24.2501 26.9252 24.3733C26.8734 24.4965 26.7976 24.6085 26.7019 24.7028C26.6062 24.7971 26.4926 24.8719 26.3676 24.9229C26.2426 24.9739 26.1086 25.0001 25.9733 25H3.35208C3.21679 25.0001 3.0828 24.9739 2.95779 24.9229C2.83278 24.8719 2.71919 24.7971 2.62352 24.7028C2.52785 24.6085 2.45198 24.4965 2.40024 24.3733C2.3485 24.2501 2.32191 24.118 2.32199 23.9846V22.6766C2.32191 22.5433 2.34848 22.4113 2.40018 22.2881C2.45188 22.1649 2.5277 22.053 2.62331 21.9587C2.71891 21.8644 2.83243 21.7896 2.95737 21.7386C3.08231 21.6875 3.21623 21.6613 3.35148 21.6613H3.35087ZM20.5631 13.8952H26.9888V19.0026H20.5631V13.8952ZM12.6065 9.07574H16.6922C17.0026 9.07574 17.3004 9.19731 17.5199 9.41371C17.7395 9.63011 17.8628 9.92361 17.8628 10.2296V17.8475C17.8628 18.1537 17.7394 18.4474 17.5198 18.6639C17.3001 18.8804 17.0022 19.002 16.6916 19.002H12.6071C12.4533 19.0021 12.301 18.9723 12.1589 18.9144C12.0168 18.8564 11.8877 18.7714 11.7789 18.6643C11.6702 18.5571 11.5839 18.4299 11.525 18.2898C11.4661 18.1498 11.4358 17.9997 11.4358 17.8481V10.2296C11.4358 9.92361 11.5592 9.63011 11.7787 9.41371C11.9982 9.19731 12.296 9.07574 12.6065 9.07574Z" fill="black"/>
</svg>
