<svg width="33" height="32" viewBox="0 0 33 32" fill="none" xmlns="http://www.w3.org/2000/svg">
<path d="M16.0034 0C7.16747 0 0.00341797 7.16405 0.00341797 15.9999C0.00341797 24.8358 7.16747 31.9999 16.0034 31.9999C24.8392 31.9999 32.0033 24.8358 32.0033 15.9999C32.0033 7.16405 24.8392 0 16.0034 0ZM3.17075 14.7755L13.1593 4.53223L18.1095 9.60976C17.8417 9.78935 17.5903 9.99833 17.3552 10.2334C17.0221 10.5665 16.7446 10.942 16.5225 11.3404L13.1593 7.89221L6.44584 14.7755H3.17075ZM20.8588 23.2587H5.45646V23.1999C5.45646 22.5991 5.94299 22.1158 6.54053 22.1158H6.68094V15.1771L13.156 8.53548L16.307 11.7681C16.0589 12.3395 15.925 12.9534 15.9119 13.5836C15.8858 14.8506 16.356 16.0261 17.2344 16.8979C17.9005 17.5607 18.7429 17.9852 19.667 18.1354V22.1126H19.7748C20.3723 22.1126 20.8588 22.5991 20.8588 23.1966V23.2587ZM27.6376 21.0187C27.3372 21.3224 26.8474 21.3224 26.547 21.022L24.4278 18.9158C24.2156 18.7036 24.1503 18.3967 24.2384 18.1322L22.8735 16.7738C21.2637 17.9167 19.0727 17.822 17.6882 16.4473C16.1274 14.8995 16.1829 12.32 17.8091 10.684C19.4352 9.04813 22.0148 8.97956 23.5723 10.5273C24.9274 11.8726 25.0645 13.9983 24.0066 15.6048L25.3519 16.9403C25.6425 16.7836 26.0147 16.8261 26.2596 17.0742L28.3788 19.1803C28.6825 19.4807 28.6825 19.9673 28.3821 20.2709L27.6376 21.0187Z" fill="black"/>
<path d="M18.6287 11.4999C17.4565 12.6786 17.401 14.5301 18.5014 15.6272C19.605 16.7211 21.4532 16.6525 22.6254 15.4737C23.7977 14.2949 23.8532 12.4435 22.7528 11.3464C21.6524 10.2493 19.801 10.3178 18.6287 11.4999Z" fill="black"/>
<path d="M10.4199 15.8691H15.9546V21.4854H10.4199V15.8691Z" fill="black"/>
</svg>
