<svg width="25" height="29" viewBox="0 0 25 29" fill="none" xmlns="http://www.w3.org/2000/svg">
<path d="M18.1436 20.5721C21.8063 20.2993 24.6044 18.8306 24.6044 17.0591V15.5359C23.2492 16.7681 20.8974 17.6467 18.1436 17.8508V20.5721ZM1.52229 23.0491V24.5723C1.52229 26.5375 4.96743 28.1311 9.21631 28.1311C13.4652 28.1311 16.9103 26.5375 16.9103 24.5723V23.0491C15.3574 24.4615 12.4937 25.4098 9.21631 25.4098C5.93887 25.4098 3.07517 24.4615 1.52229 23.0491ZM16.5607 13.9384C17.01 14.2362 17.3859 14.6321 17.6599 15.0962C17.934 15.5604 18.0991 16.0806 18.1428 16.6178C21.8055 16.345 24.6044 14.8764 24.6044 13.1048V11.5816C23.0515 12.9941 20.1878 13.9424 16.9103 13.9424C16.7932 13.9424 16.6764 13.941 16.5599 13.9384H16.5607ZM18.1436 24.5264C21.8063 24.2536 24.6044 22.7849 24.6044 21.0134V19.4902C23.2492 20.7224 20.8974 21.601 18.1436 21.8051V24.5264ZM9.21631 9.15055C9.21631 10.0944 10.0269 10.9996 11.4698 11.667C12.9127 12.3345 14.8697 12.7094 16.9103 12.7094C18.9509 12.7094 20.9079 12.3345 22.3508 11.667C23.7937 10.9996 24.6044 10.0944 24.6044 9.15055C24.6044 8.20669 23.7937 7.30148 22.3508 6.63406C20.9079 5.96665 18.9509 5.5917 16.9103 5.5917C14.8697 5.5917 12.9127 5.96665 11.4698 6.63406C10.0269 7.30148 9.21631 8.20669 9.21631 9.15055ZM1.52229 16.6637C1.52229 17.1311 1.7213 17.5938 2.10796 18.0256C2.49462 18.4574 3.06136 18.8497 3.77581 19.1802C4.49027 19.5107 5.33845 19.7728 6.27193 19.9517C7.20542 20.1305 8.20591 20.2226 9.21631 20.2226C10.2267 20.2226 11.2272 20.1305 12.1607 19.9517C13.0942 19.7728 13.9423 19.5107 14.6568 19.1802C15.3713 18.8497 15.938 18.4574 16.3247 18.0256C16.7113 17.5938 16.9103 17.1311 16.9103 16.6637C16.9103 16.1963 16.7113 15.7336 16.3247 15.3018C15.938 14.87 15.3713 14.4777 14.6568 14.1472C13.9423 13.8167 13.0942 13.5546 12.1607 13.3757C11.2272 13.1969 10.2267 13.1048 9.21631 13.1048C8.20591 13.1048 7.20542 13.1969 6.27193 13.3757C5.33845 13.5546 4.49027 13.8167 3.77581 14.1472C3.06136 14.4777 2.49462 14.87 2.10796 15.3018C1.7213 15.7336 1.52229 16.1963 1.52229 16.6637ZM1.52229 19.0948V20.618C1.52229 22.5833 4.96743 24.1768 9.21631 24.1768C13.4652 24.1768 16.9103 22.5833 16.9103 20.618V19.0948C15.3574 20.5073 12.4937 21.4555 9.21631 21.4555C5.93887 21.4555 3.07517 20.5073 1.52229 19.0948ZM2.0001 11.1277H3.58225V9.94141H5.48954V8.3597H3.58225V6.70048H5.12327C5.95169 6.70048 6.74619 6.37148 7.33197 5.78586C7.91775 5.20024 8.24684 4.40597 8.24684 3.57778C8.24684 2.74959 7.91775 1.95532 7.33197 1.3697C6.74619 0.784076 5.95169 0.455078 5.12327 0.455078H2.0001V8.35891H0.00341797V9.94062H2.0001V11.1277ZM3.58225 2.03679H5.12327C5.53208 2.03679 5.92415 2.19915 6.21322 2.48814C6.50229 2.77713 6.66469 3.16908 6.66469 3.57778C6.66469 3.98647 6.50229 4.37843 6.21322 4.66742C5.92415 4.95641 5.53208 5.11876 5.12327 5.11876H3.58225V2.03679Z" fill="white"/>
</svg>
