<svg width="25" height="26" viewBox="0 0 25 26" fill="none" xmlns="http://www.w3.org/2000/svg">
<path d="M8.16143 13.617C7.26474 13.617 6.54142 13.3002 5.99145 12.6665C5.44149 12.0329 5.1665 11.2019 5.1665 10.1737C5.1665 9.14554 5.44149 8.31461 5.99145 7.68095C6.54142 7.0473 7.26474 6.73047 8.16143 6.73047C9.05811 6.73047 9.78143 7.0473 10.3314 7.68095C10.8933 8.30265 11.1743 9.13358 11.1743 10.1737C11.1743 11.2139 10.8933 12.0508 10.3314 12.6844C9.78143 13.3061 9.05811 13.617 8.16143 13.617ZM15.6936 6.856H17.4511L8.87877 19.4096H7.12127L15.6936 6.856ZM8.16143 12.3616C8.65161 12.3616 9.02822 12.1703 9.29125 11.7878C9.56623 11.4052 9.70372 10.8672 9.70372 10.1737C9.70372 9.4803 9.56623 8.94229 9.29125 8.5597C9.02822 8.17712 8.65161 7.98582 8.16143 7.98582C7.69515 7.98582 7.31854 8.1831 7.0316 8.57764C6.75662 8.96022 6.61913 9.49225 6.61913 10.1737C6.61913 10.8552 6.75662 11.3932 7.0316 11.7878C7.31854 12.1703 7.69515 12.3616 8.16143 12.3616ZM16.393 19.5351C15.4963 19.5351 14.773 19.2183 14.223 18.5846C13.673 17.951 13.3981 17.12 13.3981 16.0918C13.3981 15.0636 13.673 14.2327 14.223 13.5991C14.773 12.9654 15.4963 12.6486 16.393 12.6486C17.2897 12.6486 18.013 12.9654 18.5629 13.5991C19.1249 14.2327 19.4058 15.0636 19.4058 16.0918C19.4058 17.12 19.1249 17.951 18.5629 18.5846C18.013 19.2183 17.2897 19.5351 16.393 19.5351ZM16.393 18.2797C16.8712 18.2797 17.2478 18.0885 17.5228 17.7059C17.7978 17.3113 17.9353 16.7733 17.9353 16.0918C17.9353 15.4104 17.7978 14.8783 17.5228 14.4957C17.2478 14.1012 16.8712 13.9039 16.393 13.9039C15.9147 13.9039 15.5381 14.0952 15.2632 14.4778C14.9882 14.8604 14.8507 15.3984 14.8507 16.0918C14.8507 16.7853 14.9882 17.3233 15.2632 17.7059C15.5381 18.0885 15.9147 18.2797 16.393 18.2797Z" fill="white"/>
<circle cx="12.3039" cy="13.2595" r="11.3779" stroke="white" stroke-width="1.84507"/>
</svg>
