<svg width="23" height="23" viewBox="0 0 23 23" fill="none" xmlns="http://www.w3.org/2000/svg">
<path d="M16.3538 16.0603H19.3268V19.0327H16.3538V16.0603ZM11.8949 11.602H14.8679V14.5744H11.8949V11.602ZM16.3538 11.602H19.3268V14.5744H16.3538V11.602ZM7.43597 16.0603H10.4084V19.0327H7.43536L7.43597 16.0603ZM20.0642 3.74447V1.35326C20.0642 1.15753 19.9865 0.969805 19.8481 0.831398C19.7097 0.692991 19.522 0.615234 19.3262 0.615234H17.0968C16.901 0.615234 16.7133 0.692991 16.5749 0.831398C16.4365 0.969805 16.3587 1.15753 16.3587 1.35326V3.74447H5.94331V1.35326C5.94331 1.15753 5.86556 0.969805 5.72715 0.831398C5.58874 0.692991 5.40102 0.615234 5.20529 0.615234H2.97583C2.78009 0.615234 2.59237 0.692991 2.45396 0.831398C2.31555 0.969805 2.2378 1.15753 2.2378 1.35326V3.74447H0.00341797V22.0045H22.298V3.74447H20.0636H20.0642ZM17.8348 2.09129H18.5882V5.39766H17.8348V2.09129ZM3.71447 2.09129H4.46787V5.39766H3.71447V2.09129ZM20.8343 20.5401H1.4684V10.0946H20.8343V20.5401ZM2.97644 16.0603H5.94946V19.0327H2.97644V16.0603ZM7.43597 11.602H10.4084V14.5744H7.43536L7.43597 11.602ZM2.97644 11.602H5.94946V14.5744H2.97644V11.602ZM11.8949 16.0603H14.8679V19.0327H11.8949V16.0603Z" fill="white"/>
</svg>
