<svg width="14" height="24" viewBox="0 0 14 24" fill="none" xmlns="http://www.w3.org/2000/svg">
<rect width="10.3993" height="13.3793" transform="matrix(-1 0 0 1 10.8567 5.66992)" fill="white"/>
<path fill-rule="evenodd" clip-rule="evenodd" d="M11.346 23.221H2.04363C0.917356 23.2197 0.00464725 22.3039 0.00336361 21.1737V2.50815C0.00464725 1.37804 0.917356 0.462225 2.04363 0.460938H11.346C12.4722 0.462225 13.3849 1.37804 13.3862 2.50815V21.1737C13.3849 22.3039 12.4722 23.2197 11.346 23.221ZM12.4799 2.50837C12.4786 1.88034 11.9715 1.37154 11.3456 1.37026H2.04328C1.41738 1.37154 0.910307 1.88034 0.909025 2.50837V21.174C0.910307 21.802 1.41738 22.3108 2.04328 22.3121H11.3456C11.9715 22.3108 12.4786 21.802 12.4799 21.174V2.50837Z" fill="white"/>
</svg>
