<svg width="58" height="63" viewBox="0 0 58 63" fill="none" xmlns="http://www.w3.org/2000/svg">
<path fill-rule="evenodd" clip-rule="evenodd" d="M32.4755 0.0375797C27.8261 0.630911 24.3245 1.98293 20.9298 4.5216C19.179 5.82499 17.2337 7.78979 16.1832 9.31688L15.7163 9.99776L16.0276 10.4355C16.1929 10.6689 16.4653 11.1552 16.6306 11.5054C16.796 11.8556 16.9419 12.1376 16.9613 12.1376C16.9711 12.1376 17.2045 11.7972 17.4768 11.379C18.4787 9.85185 19.8988 8.27612 21.4356 6.98247C25.0929 3.91854 29.7034 2.22609 34.4694 2.21636C43.1165 2.19691 50.8395 7.59525 53.8743 15.7852C55.7321 20.7944 55.5181 26.7083 53.2907 31.4744L52.9113 32.272L49.186 32.2525L45.4607 32.2233V23.6638V15.1043L45.7816 15.0751L46.0929 15.0459V14.4623V13.8885L40.9183 13.9079L35.7339 13.9371L35.7047 14.4915L35.6756 15.0557H36.0257H36.3662L36.3467 23.6346L36.3175 32.2233L29.7617 32.2525L23.2059 32.272L23.2643 33.2252C23.3032 33.7407 23.3323 34.3049 23.3323 34.4702C23.3323 34.7426 23.3907 34.8009 23.9549 35.083C24.626 35.4332 25.2485 35.9681 25.3944 36.3475C25.6376 36.9894 25.0442 38.0302 23.877 38.9737C23.5269 39.2655 23.2351 39.5281 23.2351 39.5573C23.2351 39.5865 23.1864 39.9172 23.1378 40.2771C23.0211 41.0358 22.8557 41.4248 22.4278 41.8723C22.2624 42.0473 22.1457 42.203 22.1749 42.2322C22.3597 42.4072 23.5074 43.0589 24.3634 43.4966C26.5422 44.5763 28.7015 45.2766 31.1332 45.6657C32.6895 45.9089 36.3467 45.9089 37.9224 45.6657C41.7159 45.0626 44.9938 43.7009 48.1063 41.3957C54.1077 36.9797 57.6093 29.6847 57.3467 22.1562C57.1716 17.1177 55.3917 12.3419 52.2402 8.45121C48.6705 4.05471 43.7488 1.19505 38.117 0.261285C36.94 0.0667502 33.3801 -0.0694241 32.4755 0.0375797ZM40.3541 17.925V19.0436H39.1383H37.9224V17.925V16.8065H39.1383H40.3541V17.925ZM43.8947 16.9621C43.9725 17.1566 43.9725 18.2071 43.8947 18.6837L43.8266 19.0533L42.6496 19.0242L41.4727 18.995L41.4435 18.032C41.4338 17.4971 41.4435 17.001 41.463 16.9329C41.5019 16.8357 41.8034 16.8065 42.6788 16.8065C43.6418 16.8065 43.846 16.8357 43.8947 16.9621ZM40.3541 21.5239V22.6425H39.1383H37.9224V21.5239V20.4054H39.1383H40.3541V21.5239ZM43.9044 21.5239V22.5939H42.6885H41.4727L41.4435 21.6309C41.4338 21.096 41.4435 20.5999 41.463 20.5318C41.5019 20.4248 41.7742 20.4054 42.708 20.4248L43.9044 20.454V21.5239ZM40.3541 25.2201V26.4359H39.1383H37.9224V25.2201V24.0043H39.1383H40.3541V25.2201ZM43.8947 24.1599C43.9725 24.3641 43.9725 25.4146 43.8947 25.9885L43.8266 26.4457L42.6496 26.4165L41.4727 26.3873L41.4435 25.3271C41.4338 24.7338 41.4435 24.1988 41.463 24.1307C41.5019 24.0334 41.8034 24.0043 42.6788 24.0043C43.6418 24.0043 43.846 24.0334 43.8947 24.1599ZM40.3541 28.819V30.0348H39.1383H37.9224V28.819V27.6031H39.1383H40.3541V28.819ZM43.9141 28.7314C43.9238 29.3345 43.8947 29.8695 43.8655 29.9278C43.8168 30.0056 43.4278 30.0348 42.6302 30.0154L41.4727 29.9862L41.4435 28.7898L41.4143 27.5934L42.6594 27.6226L43.9044 27.6518L43.9141 28.7314Z" fill="#949494"/>
<path fill-rule="evenodd" clip-rule="evenodd" d="M10.0069 9.13123C9.25795 9.27713 8.21719 9.86073 7.6044 10.4735C6.61227 11.4656 6.11621 12.662 6.11621 14.0627C6.11621 15.901 7.07916 17.5254 8.74243 18.4786C10.0458 19.2276 12.0495 19.2276 13.4502 18.4786C14.2575 18.0506 15.201 17.0391 15.6192 16.1637C15.9499 15.4633 15.9791 15.3369 16.018 14.3156C16.0569 13.4013 16.0278 13.1095 15.8527 12.5453C15.2204 10.4638 13.2167 8.99505 11.0477 9.03396C10.717 9.04368 10.2501 9.08259 10.0069 9.13123Z" fill="#949494"/>
<path fill-rule="evenodd" clip-rule="evenodd" d="M5.65894 20.5424C3.41206 21.2525 1.70016 23.6355 0.824749 27.2733C0.182785 29.9968 -0.0603835 32.8759 0.0174303 37.1557C0.066064 40.0834 0.0757908 40.2682 0.280052 40.6865C0.591308 41.3285 1.04846 41.6397 1.74879 41.6883C2.43939 41.737 2.809 41.6105 3.19807 41.1631C3.6455 40.6476 3.67468 40.3752 3.57742 37.8463C3.40233 33.0413 3.91785 28.2265 4.83216 26.2423L5.0267 25.8046L5.03643 42.8264L5.04615 59.8482L5.32823 60.4318C5.65894 61.1321 5.98965 61.4531 6.6997 61.7838C7.64319 62.2215 8.68395 62.0853 9.58854 61.3947C9.86089 61.1904 9.89007 61.1224 9.81225 60.9084C9.56908 60.2761 9.75389 59.5077 10.2986 58.8852C10.6098 58.5448 10.6098 58.5059 10.5612 57.8736C10.532 57.5137 10.4348 56.7648 10.3375 56.2006C10.2013 55.4419 10.1624 54.6444 10.1527 53.0881C10.1527 51.2011 10.1721 50.919 10.3764 50.2381C10.5904 49.4989 10.5904 49.3919 10.5904 44.334V39.1788H11.1254H11.6603V43.4002C11.6603 46.114 11.6992 47.6508 11.7576 47.6897C11.816 47.7189 11.8549 47.7092 11.8549 47.6606C11.8549 47.359 14.5005 44.9176 16.5334 43.3322L17.01 42.9625V41.1826V39.4123L16.6112 39.1205C15.4343 38.2743 14.2087 37.2335 13.9558 36.8639C13.5181 36.2511 13.5473 35.7648 14.0239 35.3271C14.3546 35.0158 14.4227 34.9964 15.0452 34.9964C15.4051 34.9964 15.9985 35.0742 16.3583 35.1812L17.01 35.3562V30.5804L17.0198 25.8046L17.224 26.1937C17.652 27.001 18.0994 28.781 18.3912 30.8139C18.469 31.3488 18.508 33.2066 18.5177 36.0955L18.5371 40.5503L18.8192 40.9491C18.9748 41.1728 19.2569 41.4257 19.4417 41.523C19.8502 41.7467 20.6965 41.7662 21.0855 41.5716C21.5524 41.3285 21.9512 40.7838 22.0388 40.278C22.1652 39.4998 22.136 32.5744 21.9901 31.1057C21.6789 28.0028 20.9299 25.2307 19.9183 23.5091C19.0721 22.0501 18.0216 21.0968 16.7766 20.6397L16.1249 20.4062L11.0962 20.416C7.24439 20.416 5.97019 20.4452 5.65894 20.5424Z" fill="#949494"/>
<path fill-rule="evenodd" clip-rule="evenodd" d="M29.7032 20.7173C29.6741 20.7854 29.6643 23.2074 29.6741 26.0962L29.7032 31.3486H32.4754H35.2475V25.9989V20.6492L32.4948 20.6201C30.3452 20.6006 29.7324 20.6201 29.7032 20.7173Z" fill="#949494"/>
<path fill-rule="evenodd" clip-rule="evenodd" d="M22.8753 26.8943C22.9337 29.4913 23.0601 31.1643 23.206 31.3102C23.2546 31.3589 24.3927 31.3881 25.8225 31.3783L28.3417 31.3491V27.8962V24.4432L25.5891 24.414L22.8267 24.3945L22.8753 26.8943Z" fill="#949494"/>
<path fill-rule="evenodd" clip-rule="evenodd" d="M46.3848 27.8962V31.3978L49.1374 31.3783L51.8804 31.3491V27.8962V24.4432L49.1374 24.414L46.3848 24.3945V27.8962Z" fill="#949494"/>
<path fill-rule="evenodd" clip-rule="evenodd" d="M22.7198 36.5224C22.6322 38.1759 22.6322 39.1778 22.7295 39.1778C22.9046 39.1778 24.4317 37.7577 24.6457 37.388C24.9764 36.8336 24.9569 36.5613 24.5776 36.1917C24.2371 35.8707 23.4493 35.433 23.031 35.3357L22.7781 35.2773L22.7198 36.5224Z" fill="#949494"/>
<path fill-rule="evenodd" clip-rule="evenodd" d="M14.6076 35.5779C14.4908 35.6266 14.3547 35.753 14.2963 35.86C14.0531 36.3074 14.4811 36.8035 16.2806 38.1555C17.1171 38.778 17.8563 39.3033 17.9341 39.3422C18.0605 39.3811 18.08 39.1574 18.08 37.8248V36.2588L17.8174 36.1518C17.3408 35.967 15.3468 35.4807 15.0744 35.4904C14.9383 35.4904 14.7243 35.5293 14.6076 35.5779Z" fill="#949494"/>
<path fill-rule="evenodd" clip-rule="evenodd" d="M12.9732 61.0335C12.6425 61.4031 12.662 61.5101 13.1483 61.7533C13.7125 62.0451 14.6949 62.1131 15.2104 61.8894L15.5994 61.7241L14.724 61.4128C14.2474 61.2377 13.7125 61.0238 13.5374 60.9362C13.2261 60.7709 13.2164 60.7709 12.9732 61.0335Z" fill="#949494"/>
<path fill-rule="evenodd" clip-rule="evenodd" d="M18.8724 42.2516C18.7172 42.4069 18.2029 42.8047 17.7177 43.1249C16.398 44.008 13.9042 46.0942 12.8853 47.1713C11.7985 48.3261 11.1289 49.3935 10.8475 50.4609C10.4788 51.8097 10.5952 54.8372 11.1192 57.5833L11.2745 58.4178L10.7893 59.0485C10.178 59.8442 10.1198 60.0771 10.3624 60.6205C10.5079 60.9602 10.6244 61.0766 10.9737 61.2027C11.5559 61.4259 11.8373 61.3095 12.5069 60.572L13.0503 59.9801L13.6228 60.2712C14.4476 60.6787 15.4082 61.0087 16.5824 61.2707C17.4945 61.4841 17.8341 61.5036 19.8331 61.5036C21.7738 61.5036 22.2105 61.4744 23.1808 61.2804C24.3938 61.0378 25.4903 60.6885 26.2277 60.3197L26.6935 60.0771L26.9943 60.4556C27.7124 61.3386 27.8774 61.455 28.4013 61.455C28.8186 61.455 28.935 61.4065 29.2456 61.1154C29.5658 60.8243 29.6143 60.7273 29.624 60.3391C29.6337 60.0965 29.5852 59.8637 29.5367 59.8248C29.4784 59.786 29.197 59.4755 28.9156 59.1456C28.4014 58.5343 28.3916 58.5148 28.5178 58.2237C28.5857 58.0491 28.8186 57.3892 29.0418 56.7488C29.265 56.1084 29.4687 55.565 29.5076 55.5358C29.5367 55.5067 29.6531 55.1186 29.7502 54.6625C29.9927 53.5175 29.983 51.2663 29.7404 50.4123C29.6434 50.0824 29.527 49.8107 29.4882 49.8107C29.4396 49.8107 29.362 49.6749 29.3038 49.5099C29.1 48.918 28.0714 47.5207 27.2078 46.6473C26.1307 45.5702 25.3738 44.9977 23.763 44.0856C23.0741 43.6975 22.1813 43.0958 21.7641 42.7465C21.0363 42.1352 21.0169 42.1255 20.5705 42.1837C20.163 42.2322 19.6778 42.1643 19.2994 42.009C19.212 41.9702 19.0471 42.0575 18.8724 42.2516ZM19.9683 45.1582C19.568 45.1962 19.0195 45.2859 18.6536 45.3791C16.5177 45.9105 14.6545 47.4424 13.7194 49.4335C13.2673 50.3997 13.0466 51.3174 13.0086 52.3837C12.9638 53.7087 13.2191 54.8715 13.8126 56.0413C14.2854 56.973 14.8996 57.7424 15.7069 58.4187C17.9532 60.3026 21.1658 60.6856 23.7951 59.3849C27.5355 57.5354 29.0674 53.0565 27.2284 49.3438C26.4899 47.8566 25.365 46.711 23.9019 45.9656C23.1773 45.5964 22.3837 45.3445 21.5901 45.2237C21.2278 45.172 20.2616 45.1307 19.9683 45.1582ZM22.4872 47.8428C23.0255 47.9567 23.4465 48.1774 23.8399 48.5467C24.9062 49.5508 25.0925 51.069 24.2989 52.2629C23.9021 52.8599 23.3121 53.2774 22.6082 53.4602C22.3597 53.5257 22.2009 53.5326 20.9795 53.5464L19.6234 53.5637V53.9916V54.4194H21.0141H22.4046L22.584 54.5092C23.0463 54.7403 23.0601 55.3649 22.6082 55.6445L22.4425 55.7479L21.0312 55.7584L19.6234 55.7688V56.3725C19.6234 57.0489 19.6027 57.1351 19.406 57.3076C19.0643 57.6078 18.5951 57.525 18.3984 57.1316C18.3156 56.9694 18.312 56.9279 18.312 56.3655V55.7755L17.9601 55.7582C17.5875 55.7409 17.4978 55.7133 17.3355 55.5615C16.994 55.2475 17.0768 54.7195 17.4976 54.5056C17.646 54.4332 17.7185 54.4194 17.991 54.4194H18.3119V53.9916V53.5672L17.9774 53.5465C17.5979 53.5259 17.4771 53.4913 17.3356 53.3567C17.1872 53.2188 17.1354 53.0876 17.1354 52.8806C17.1354 52.6115 17.2527 52.4183 17.4909 52.3009C17.6461 52.2249 17.7152 52.2111 17.9912 52.2111H18.312V50.2789C18.312 48.6122 18.3189 48.3259 18.3638 48.2154C18.4362 48.0462 18.5432 47.9359 18.7088 47.8599C18.8365 47.8013 18.9676 47.7944 20.5549 47.7944C21.8764 47.7944 22.3147 47.8048 22.4872 47.8428ZM19.6232 50.6821C19.6232 49.8403 19.6337 49.1397 19.6474 49.1259C19.6612 49.1122 20.2478 49.1051 20.9517 49.1122L20.9772 49.1124C22.1877 49.1259 22.2365 49.1265 22.4251 49.2052C22.8254 49.364 23.1636 49.6988 23.3188 50.099C23.4327 50.3854 23.4327 50.9374 23.3188 51.2203C23.1498 51.6482 22.7668 52.014 22.3595 52.1416C22.1524 52.2038 22.042 52.2107 20.8792 52.2107H19.6232V50.6821Z" fill="#949494"/>
</svg>
