<svg width="58" height="39" viewBox="0 0 58 39" fill="none" xmlns="http://www.w3.org/2000/svg">
<path fill-rule="evenodd" clip-rule="evenodd" d="M48.8236 16.699C52.1542 16.699 54.8541 13.999 54.8541 10.6684C54.8541 7.3378 52.1542 4.63781 48.8236 4.63781C45.493 4.63781 42.793 7.3378 42.793 10.6684C42.793 13.999 45.493 16.699 48.8236 16.699ZM52.8535 9.69723H44.852V11.6388H52.8535V9.69723ZM57.5979 1.11086C57.437 0.950026 57.1763 0.950025 57.0154 1.11086L54.1003 4.02595L51.3201 1.24567C51.1592 1.08483 50.8985 1.08483 50.7376 1.24567C50.5768 1.4065 50.5768 1.66727 50.7376 1.8281L53.5179 4.60838L50.6207 7.50558C50.4599 7.66642 50.4599 7.92718 50.6207 8.08802C50.7815 8.24886 51.0423 8.24886 51.2031 8.08802L54.1003 5.19082L57.1323 8.22283C57.2932 8.38366 57.5539 8.38366 57.7148 8.22283C57.8756 8.06199 57.8756 7.80123 57.7148 7.64039L54.6828 4.60838L57.5979 1.6933C57.7587 1.53246 57.7587 1.2717 57.5979 1.11086Z" fill="white"/>
<path d="M45.2956 21.9436L36.2007 12.8487V6.84968C36.2007 6.1021 35.5953 5.49669 34.8477 5.49669C34.1002 5.49669 33.4947 6.1021 33.4947 6.84968V10.1427L27.0738 3.72175C26.5463 3.19431 25.6887 3.19431 25.1612 3.72175L15.6307 13.2523C15.1032 13.7797 15.1032 14.6374 15.6307 15.1648C16.1581 15.6923 17.0158 15.6923 17.5432 15.1648L26.1152 6.59284L43.383 23.8561C43.6445 24.1175 43.993 24.2505 44.337 24.2505C44.681 24.2505 45.0296 24.1175 45.2956 23.8561C45.8276 23.3286 45.8276 22.471 45.2956 21.9436Z" fill="white"/>
<path d="M41.4248 23.4992L27.074 9.14834C26.8217 8.89608 26.4777 8.75391 26.1154 8.75391C25.7531 8.75391 25.4137 8.89608 25.1569 9.14834L17.8186 16.4866C17.8415 16.4866 17.8645 16.482 17.8874 16.482C18.3002 16.482 18.6992 16.6013 19.0478 16.8214C19.5935 17.1746 19.9513 17.7479 20.0201 18.3945L20.0247 18.4266H20.1302C20.7539 18.4266 21.3456 18.6972 21.7537 19.1651C22.1803 19.6604 22.3591 20.3071 22.2399 20.9492L22.2353 20.9813L22.2674 20.9904C22.9003 21.151 23.4186 21.5821 23.6892 22.1783C23.9598 22.77 23.9506 23.4488 23.6571 24.0312L23.6433 24.0588L23.6709 24.0725C24.0699 24.3064 24.368 24.6596 24.5469 25.0723C24.9413 24.632 25.4962 24.3339 26.1246 24.2743C27.3583 24.3936 28.3169 25.4347 28.3169 26.6822V31.8235C28.3169 32.6491 28.6288 33.438 29.1883 34.0434C29.8075 34.7084 30.6835 35.0936 31.587 35.0936H38.595C40.3975 35.0936 41.8651 33.626 41.8651 31.8235V24.8201C41.8651 24.6137 41.8422 24.4073 41.8055 24.2009C41.7459 23.9349 41.6175 23.6918 41.4248 23.4992Z" fill="white"/>
<path d="M23.7488 25.7449C23.6984 25.3917 23.4874 25.0753 23.1801 24.8918L22.3821 24.4194L22.7948 23.5939C22.9554 23.2728 22.96 22.8967 22.8132 22.5711C22.6618 22.2455 22.3775 22.0024 22.0289 21.9152L21.13 21.6859L21.2951 20.7732C21.3593 20.4201 21.2584 20.0577 21.0245 19.7871C20.7906 19.5165 20.4466 19.3652 20.0843 19.3789L19.1578 19.4111L19.0615 18.4938C19.0248 18.136 18.8276 17.8196 18.5249 17.6224C18.2222 17.4297 17.8507 17.3839 17.5113 17.4985L16.6353 17.792L16.2821 16.9344C16.1446 16.6042 15.8648 16.3519 15.5208 16.251C15.1768 16.1501 14.8053 16.2097 14.5118 16.4161L13.7504 16.9436L13.1771 16.2235C12.9524 15.9437 12.613 15.7832 12.2553 15.7832C11.8975 15.7832 11.5581 15.9437 11.3334 16.2235L10.7509 16.9436L9.98959 16.4161C9.69606 16.2097 9.32456 16.1501 8.98058 16.251C8.6366 16.3519 8.35683 16.6042 8.21924 16.9344L7.86609 17.792L6.99008 17.4985C6.65069 17.3839 6.2746 17.4297 5.97648 17.6224C5.67378 17.815 5.47657 18.136 5.43988 18.4938L5.34356 19.4111L4.41711 19.3835C4.05937 19.3744 3.71539 19.5211 3.47689 19.7917C3.24299 20.0623 3.14208 20.4246 3.20629 20.7778L3.3714 21.6905L2.47706 21.9198C2.12849 22.007 1.83954 22.25 1.69278 22.5757C1.54601 22.9013 1.5506 23.2774 1.71112 23.5984L2.12849 24.424L1.33045 24.8964C1.02316 25.0799 0.812189 25.3917 0.761738 25.7449C0.711288 26.098 0.821362 26.4604 1.06903 26.7218L1.70195 27.396L1.06903 28.0702C0.825948 28.3316 0.711288 28.6894 0.761738 29.0471C0.812189 29.4002 1.02316 29.7167 1.33045 29.8956L2.1239 30.368L1.71112 31.1981C1.5506 31.5192 1.54601 31.8953 1.69278 32.2209C1.84413 32.5465 2.12849 32.785 2.47706 32.8767L3.3714 33.1061L3.20629 34.0188C3.14208 34.3719 3.24299 34.7342 3.47689 35.0048C3.7108 35.2754 4.05937 35.4268 4.41711 35.413L5.34356 35.3763L5.43988 36.2936C5.47657 36.6514 5.67837 36.9678 5.97648 37.165C6.27919 37.3577 6.65069 37.4035 6.99008 37.2889L7.86609 36.9953L8.21924 37.8484C8.35683 38.1786 8.6366 38.4309 8.98058 38.5318C9.32456 38.6327 9.69148 38.5731 9.98959 38.3667L10.7509 37.8392L11.3334 38.5593C11.5581 38.8391 11.8975 38.9996 12.2553 38.9996C12.613 38.9996 12.9524 38.8391 13.1771 38.5593L13.7596 37.8392L14.521 38.3667C14.8145 38.5731 15.186 38.6281 15.53 38.5318C15.874 38.4309 16.1537 38.1786 16.2913 37.8484L16.6445 36.9953L17.5205 37.2889C17.8599 37.4035 18.2314 37.3577 18.5341 37.165C18.8368 36.9724 19.034 36.6514 19.0707 36.2936L19.167 35.3763L20.0935 35.413C20.4466 35.4268 20.7952 35.2754 21.0337 35.0048C21.2676 34.7342 21.3685 34.3719 21.3043 34.0188L21.1392 33.1061L22.0381 32.8767C22.3867 32.7896 22.6756 32.5465 22.8224 32.2255C22.9691 31.8998 22.9645 31.5238 22.804 31.2027L22.3912 30.3772L23.1893 29.9048C23.4966 29.7213 23.7075 29.4094 23.758 29.0563C23.813 28.7031 23.6984 28.3454 23.4553 28.0794L22.8224 27.4052L23.4553 26.7264C23.6846 26.4558 23.7993 26.098 23.7488 25.7449ZM3.8805 27.9876L3.20171 27.6758L4.73815 23.6902L5.30228 23.947L3.8805 27.9876ZM13.3744 33.3354L5.82513 28.3041L6.50392 24.823L10.0355 22.8692L10.7188 23.3003L8.8751 26.7172C8.75126 26.9511 8.82465 27.24 9.04938 27.3868L10.6271 28.4004C10.8335 28.5288 11.0995 28.4967 11.2692 28.327L13.4156 26.0843L18.0296 30.0745L13.3744 33.3354ZM17.9837 28.6985L13.7092 24.9973C13.6587 24.956 13.6037 24.9239 13.5441 24.901C13.5257 24.8918 13.5028 24.8918 13.4844 24.8872C13.4477 24.878 13.4111 24.8689 13.3744 24.8689C13.3698 24.8689 13.3652 24.8689 13.356 24.8689C13.3514 24.8689 13.3423 24.8689 13.3377 24.8735C13.2826 24.878 13.223 24.8872 13.1726 24.9147C13.168 24.9147 13.1634 24.9193 13.1634 24.9193C13.1084 24.9468 13.0579 24.9835 13.012 25.0294L10.8197 27.318L9.98959 26.7814L11.7141 23.5893L13.8789 23.3003L17.7452 24.8597L18.5708 27.983L17.9837 28.6985ZM20.3503 27.5932L18.8138 23.8736L19.4972 23.5663L21.2401 27.3455L20.3503 27.5932Z" fill="white"/>
</svg>
