<svg width="37" height="40" viewBox="0 0 37 40" fill="none" xmlns="http://www.w3.org/2000/svg">
<path d="M17.31 1.04322C23.9122 1.86396 29.1118 6.9665 30.0221 13.5316C30.1714 14.5835 30.1714 16.5379 30.0296 17.5601C29.6788 20.0368 28.6718 22.439 27.1874 24.3564L26.7696 24.9008L31.5666 29.6974L36.3706 34.5018L34.058 36.8144L31.7455 39.127L26.6277 34.0092L21.5026 28.8841L20.9582 29.1152C19.6826 29.6374 18.2278 29.9807 16.6237 30.1148C12.2745 30.4877 7.64938 28.6226 4.68755 25.2956C2.73312 23.0949 1.50942 20.4541 1.07684 17.4923C0.89016 16.2168 0.964989 13.9116 1.2261 12.6657C1.86016 9.65943 3.35239 6.97351 5.5305 4.92945C8.70123 1.9458 13.0356 0.513592 17.31 1.04322ZM14.5575 5.36983C13.4834 5.62354 12.3642 6.4965 11.9168 7.4287C10.6186 10.1068 12.4912 13.1653 15.4304 13.1653C16.9449 13.1653 18.3248 12.3223 18.9667 10.9946C19.556 9.78608 19.5486 8.66721 18.9519 7.45091C18.1608 5.83983 16.303 4.95985 14.5575 5.36983ZM17.5863 18.1568C16.5715 20.3723 15.7212 22.2375 15.6989 22.2971C15.6541 22.4016 16.0345 22.4164 19.5782 22.4164H23.5022V20.1934C23.5022 18.9701 23.4648 17.6868 23.4278 17.3438C23.2785 16.1575 22.6519 15.2327 21.6374 14.7031C21.0704 14.4046 20.1978 14.1435 19.7352 14.1435L19.4367 14.1361L17.5863 18.1568ZM13.2593 15.3816C13.5727 16.0753 14.1845 17.4331 14.6245 18.4105C15.0645 19.3879 15.4526 20.156 15.4823 20.1116C15.5045 20.0668 16.1237 18.7016 16.8622 17.0827L18.19 14.1361H15.4452H12.7001L13.2593 15.3816ZM10.3423 14.285C8.73084 14.6953 7.72382 15.6727 7.47011 17.0749C7.41789 17.336 7.38788 18.5297 7.38788 19.9693V22.4164H11.3045C13.4604 22.4164 15.2212 22.4016 15.2212 22.3867C15.2212 22.3493 11.6775 14.6431 11.5208 14.3524C11.3868 14.0835 11.1631 14.0761 10.3423 14.285Z" fill="white"/>
</svg>
