<svg width="19" height="21" viewBox="0 0 19 21" fill="none" xmlns="http://www.w3.org/2000/svg">
<path d="M13.6693 15.0606C16.2335 14.8695 18.1924 13.841 18.1924 12.6004V11.5338C17.2437 12.3966 15.5972 13.0119 13.6693 13.1548V15.0606ZM2.0326 16.7952V17.8619C2.0326 19.2382 4.44456 20.3542 7.41921 20.3542C10.3939 20.3542 12.8058 19.2382 12.8058 17.8619V16.7952C11.7186 17.7844 9.71376 18.4484 7.41921 18.4484C5.12467 18.4484 3.11978 17.7844 2.0326 16.7952ZM12.561 10.415C12.8756 10.6236 13.1388 10.9008 13.3306 11.2258C13.5225 11.5509 13.6381 11.9152 13.6687 12.2914C16.233 12.1003 18.1924 11.0719 18.1924 9.83127V8.76458C17.1053 9.75373 15.1004 10.4178 12.8058 10.4178C12.7239 10.4178 12.6421 10.4169 12.5605 10.415H12.561ZM13.6693 17.8298C16.2335 17.6387 18.1924 16.6102 18.1924 15.3696V14.3029C17.2437 15.1658 15.5972 15.7811 13.6693 15.924V17.8298ZM7.41921 7.06209C7.41921 7.72307 7.98673 8.35699 8.99692 8.82438C10.0071 9.29177 11.3772 9.55435 12.8058 9.55435C14.2344 9.55435 15.6045 9.29177 16.6147 8.82438C17.6249 8.35699 18.1924 7.72307 18.1924 7.06209C18.1924 6.4011 17.6249 5.76718 16.6147 5.29979C15.6045 4.8324 14.2344 4.56982 12.8058 4.56982C11.3772 4.56982 10.0071 4.8324 8.99692 5.29979C7.98673 5.76718 7.41921 6.4011 7.41921 7.06209ZM2.0326 12.3235C2.0326 12.6508 2.17193 12.9749 2.44263 13.2773C2.71334 13.5797 3.11011 13.8544 3.61031 14.0858C4.1105 14.3173 4.70431 14.5008 5.35785 14.6261C6.01138 14.7513 6.71183 14.8158 7.41921 14.8158C8.12659 14.8158 8.82705 14.7513 9.48058 14.6261C10.1341 14.5008 10.7279 14.3173 11.2281 14.0858C11.7283 13.8544 12.1251 13.5797 12.3958 13.2773C12.6665 12.9749 12.8058 12.6508 12.8058 12.3235C12.8058 11.9962 12.6665 11.6722 12.3958 11.3698C12.1251 11.0674 11.7283 10.7927 11.2281 10.5612C10.7279 10.3298 10.1341 10.1462 9.48058 10.021C8.82705 9.89573 8.12659 9.83127 7.41921 9.83127C6.71183 9.83127 6.01138 9.89573 5.35785 10.021C4.70431 10.1462 4.1105 10.3298 3.61031 10.5612C3.11011 10.7927 2.71334 11.0674 2.44263 11.3698C2.17193 11.6722 2.0326 11.9962 2.0326 12.3235ZM2.0326 14.026V15.0927C2.0326 16.469 4.44456 17.585 7.41921 17.585C10.3939 17.585 12.8058 16.469 12.8058 15.0927V14.026C11.7186 15.0152 9.71376 15.6792 7.41921 15.6792C5.12467 15.6792 3.11978 15.0152 2.0326 14.026ZM2.36712 8.44668H3.47479V7.61592H4.81009V6.50825H3.47479V5.3463H4.55367C5.13365 5.3463 5.68987 5.1159 6.09998 4.7058C6.51009 4.29569 6.74049 3.73946 6.74049 3.15948C6.74049 2.5795 6.51009 2.02327 6.09998 1.61316C5.68987 1.20305 5.13365 0.972656 4.55367 0.972656H2.36712V6.5077H0.969238V7.61537H2.36712V8.44668ZM3.47479 2.08033H4.55367C4.83987 2.08033 5.11436 2.19402 5.31674 2.3964C5.51912 2.59878 5.63282 2.87327 5.63282 3.15948C5.63282 3.44569 5.51912 3.72017 5.31674 3.92255C5.11436 4.12493 4.83987 4.23863 4.55367 4.23863H3.47479V2.08033Z" fill="black"/>
</svg>
