<svg width="63" height="42" viewBox="0 0 63 42" fill="none" xmlns="http://www.w3.org/2000/svg">
<path d="M51.6594 22.1656L41.125 11.6313V4.68276C41.125 3.81685 40.4238 3.11562 39.5579 3.11562C38.692 3.11562 37.9908 3.81685 37.9908 4.68276V8.49701L30.5535 1.05975C29.9426 0.448833 28.9492 0.448833 28.3383 1.05975L17.2993 12.0988C16.6883 12.7097 16.6883 13.7031 17.2993 14.314C17.9102 14.9249 18.9036 14.9249 19.5145 14.314L29.4432 4.38527L49.4441 24.3809C49.747 24.6837 50.1507 24.8377 50.5491 24.8377C50.9475 24.8377 51.3513 24.6837 51.6594 24.3809C52.2756 23.77 52.2756 22.7766 51.6594 22.1656Z" fill="white"/>
<path d="M47.1758 23.9659L30.5535 7.34358C30.2614 7.0514 29.8629 6.88672 29.4433 6.88672C29.0236 6.88672 28.6305 7.0514 28.333 7.34358L19.8333 15.8433C19.8598 15.8433 19.8864 15.838 19.9129 15.838C20.391 15.838 20.8532 15.9761 21.257 16.2311C21.8891 16.6402 22.3035 17.3042 22.3832 18.0532L22.3885 18.0904H22.5107C23.2331 18.0904 23.9184 18.4038 24.3912 18.9457C24.8853 19.5194 25.0925 20.2685 24.9543 21.0122L24.949 21.0494L24.9862 21.06C25.7193 21.2459 26.3196 21.7453 26.633 22.4359C26.9465 23.1212 26.9358 23.9074 26.5958 24.5821L26.5799 24.614L26.6118 24.6299C27.074 24.9008 27.4193 25.3099 27.6264 25.788C28.0833 25.278 28.7261 24.9327 29.4539 24.8636C30.8829 25.0018 31.9932 26.2077 31.9932 27.6526V33.6077C31.9932 34.5639 32.3544 35.4777 33.0025 36.1789C33.7197 36.9492 34.7343 37.3954 35.7809 37.3954H43.8981C45.9858 37.3954 47.6858 35.6955 47.6858 33.6077V25.4958C47.6858 25.2567 47.6592 25.0177 47.6167 24.7786C47.5477 24.4705 47.3989 24.189 47.1758 23.9659Z" fill="white"/>
<path d="M26.702 26.5696C26.6436 26.1606 26.3992 25.794 26.0433 25.5815L25.1189 25.0344L25.597 24.0781C25.783 23.7063 25.7883 23.2707 25.6183 22.8935C25.443 22.5163 25.1136 22.2348 24.7099 22.1338L23.6687 21.8682L23.8599 20.8111C23.9343 20.402 23.8174 19.9823 23.5465 19.6689C23.2756 19.3555 22.8771 19.1802 22.4575 19.1961L21.3844 19.2333L21.2728 18.1708C21.2303 17.7565 21.0019 17.3899 20.6513 17.1615C20.3007 16.9384 19.8704 16.8853 19.4772 17.0181L18.4626 17.358L18.0535 16.3646C17.8942 15.9822 17.5701 15.69 17.1717 15.5731C16.7733 15.4562 16.343 15.5253 16.003 15.7644L15.1211 16.3753L14.4571 15.5412C14.1968 15.2172 13.8037 15.0312 13.3893 15.0312C12.975 15.0312 12.5818 15.2172 12.3215 15.5412L11.6469 16.3753L10.765 15.7644C10.425 15.5253 9.99474 15.4562 9.59631 15.5731C9.19789 15.69 8.87384 15.9822 8.71447 16.3646L8.30542 17.358L7.29076 17.0181C6.89765 16.8853 6.46204 16.9384 6.11674 17.1615C5.76613 17.3846 5.5377 17.7565 5.4952 18.1708L5.38364 19.2333L4.31055 19.2014C3.89619 19.1908 3.49776 19.3608 3.22152 19.6742C2.95059 19.9877 2.83372 20.4073 2.90809 20.8164L3.09934 21.8735L2.06343 22.1391C1.6597 22.2401 1.32502 22.5216 1.15503 22.8988C0.985031 23.276 0.990343 23.7116 1.17627 24.0835L1.6597 25.0397L0.735352 25.5868C0.379426 25.7993 0.135059 26.1606 0.0766231 26.5696C0.0181875 26.9787 0.145683 27.3983 0.432549 27.7012L1.16565 28.4821L0.432549 29.263C0.150996 29.5658 0.0181875 29.9801 0.0766231 30.3945C0.135059 30.8036 0.379426 31.1701 0.735352 31.3773L1.65438 31.9245L1.17627 32.886C0.990343 33.2578 0.985031 33.6935 1.15503 34.0706C1.33033 34.4478 1.6597 34.724 2.06343 34.8303L3.09934 35.0959L2.90809 36.1531C2.83372 36.5621 2.95059 36.9818 3.22152 37.2952C3.49245 37.6086 3.89619 37.7839 4.31055 37.768L5.38364 37.7255L5.4952 38.788C5.5377 39.2023 5.77144 39.5689 6.11674 39.7973C6.46735 40.0204 6.89765 40.0736 7.29076 39.9408L8.30542 39.6008L8.71447 40.5889C8.87384 40.9713 9.19789 41.2635 9.59631 41.3804C9.99474 41.4973 10.4197 41.4282 10.765 41.1892L11.6469 40.5782L12.3215 41.4123C12.5818 41.7363 12.975 41.9223 13.3893 41.9223C13.8037 41.9223 14.1968 41.7363 14.4571 41.4123L15.1318 40.5782L16.0136 41.1892C16.3536 41.4282 16.7839 41.492 17.1823 41.3804C17.5807 41.2635 17.9048 40.9713 18.0642 40.5889L18.4732 39.6008L19.4879 39.9408C19.881 40.0736 20.3113 40.0204 20.6619 39.7973C21.0125 39.5742 21.2409 39.2023 21.2834 38.788L21.395 37.7255L22.4681 37.768C22.8771 37.7839 23.2809 37.6086 23.5571 37.2952C23.828 36.9818 23.9449 36.5621 23.8705 36.1531L23.6793 35.0959L24.7205 34.8303C25.1242 34.7294 25.4589 34.4478 25.6289 34.0759C25.7989 33.6988 25.7936 33.2632 25.6077 32.8913L25.1296 31.9351L26.0539 31.3879C26.4098 31.1754 26.6542 30.8142 26.7126 30.4051C26.7764 29.9961 26.6436 29.5817 26.362 29.2736L25.6289 28.4927L26.362 27.7065C26.6276 27.393 26.7604 26.9787 26.702 26.5696ZM3.68901 29.1674L2.90278 28.8061L4.68241 24.1897L5.33583 24.4872L3.68901 29.1674ZM14.6855 35.3615L5.94143 29.5339L6.72766 25.5018L10.8181 23.2388L11.6097 23.7382L9.47413 27.6958C9.3307 27.9668 9.4157 28.3014 9.676 28.4714L11.5034 29.6455C11.7425 29.7942 12.0506 29.757 12.2472 29.5605L14.7333 26.9627L20.0775 31.5845L14.6855 35.3615ZM20.0244 29.9908L15.0733 25.7037C15.0149 25.6559 14.9511 25.6187 14.8821 25.5922C14.8608 25.5815 14.8343 25.5815 14.813 25.5762C14.7705 25.5656 14.728 25.555 14.6855 25.555C14.6802 25.555 14.6749 25.555 14.6643 25.555C14.659 25.555 14.6483 25.555 14.643 25.5603C14.5793 25.5656 14.5102 25.5762 14.4518 25.6081C14.4465 25.6081 14.4412 25.6134 14.4412 25.6134C14.3774 25.6453 14.319 25.6878 14.2659 25.7409L11.7266 28.3918L10.765 27.7702L12.7625 24.0728L15.2699 23.7382L19.7482 25.5443L20.7044 29.162L20.0244 29.9908ZM22.7656 28.7105L20.9859 24.4022L21.7775 24.0463L23.7962 28.4236L22.7656 28.7105Z" fill="white"/>
<path fill-rule="evenodd" clip-rule="evenodd" d="M55.7527 9.50823C55.6838 9.62766 55.5883 9.72962 55.4736 9.80624C55.359 9.88286 55.2282 9.93207 55.0915 9.95007C54.9548 9.96808 54.8158 9.95439 54.6852 9.91007C54.5546 9.86574 54.436 9.79198 54.3385 9.69447C54.241 9.59696 54.1672 9.47833 54.1229 9.34775C54.0786 9.21717 54.0649 9.07815 54.0829 8.94143C54.1009 8.80472 54.1501 8.67398 54.2267 8.55933C54.3033 8.44467 54.4053 8.34919 54.5247 8.28025V5.91147C54.5247 5.66381 54.7243 5.46289 54.9742 5.46289C55.2223 5.46289 55.4237 5.66336 55.4237 5.91147V8.28025C55.5603 8.35891 55.6741 8.47263 55.7527 8.60927H58.5723C58.8195 8.60927 59.0196 8.80884 59.0196 9.05875C59.0196 9.30686 58.8146 9.50823 58.5723 9.50823H55.7527Z" fill="white"/>
<path fill-rule="evenodd" clip-rule="evenodd" d="M55.0669 15.2681C58.5354 15.2681 61.3472 12.4563 61.3472 8.98783C61.3472 5.51933 58.5354 2.70755 55.0669 2.70755C51.5984 2.70755 48.7867 5.51933 48.7867 8.98783C48.7867 12.4563 51.5984 15.2681 55.0669 15.2681ZM55.0669 16.2081C59.0546 16.2081 62.2872 12.9755 62.2872 8.98783C62.2872 5.0002 59.0546 1.76758 55.0669 1.76758C51.0793 1.76758 47.8467 5.0002 47.8467 8.98783C47.8467 12.9755 51.0793 16.2081 55.0669 16.2081Z" fill="white"/>
</svg>
