<svg width="68" height="46" viewBox="0 0 68 46" fill="none" xmlns="http://www.w3.org/2000/svg">
<path fill-rule="evenodd" clip-rule="evenodd" d="M56.5684 19.1609C60.4619 19.1609 63.6182 16.0046 63.6182 12.1111C63.6182 8.21759 60.4619 5.06128 56.5684 5.06128C52.6749 5.06128 49.5186 8.21759 49.5186 12.1111C49.5186 16.0046 52.6749 19.1609 56.5684 19.1609ZM61.2796 10.9757H51.9257V13.2454H61.2796V10.9757ZM66.8258 0.937889C66.6378 0.749871 66.333 0.74987 66.1449 0.937888L62.7376 4.34523L59.4869 1.09453C59.2989 0.906512 58.994 0.906512 58.806 1.09453C58.618 1.28255 58.618 1.58738 58.806 1.7754L62.0567 5.02611L58.6695 8.41338C58.4814 8.6014 58.4814 8.90623 58.6695 9.09425C58.8575 9.28227 59.1623 9.28227 59.3503 9.09425L62.7376 5.70698L66.2815 9.25089C66.4695 9.43891 66.7744 9.43891 66.9624 9.25089C67.1504 9.06287 67.1504 8.75804 66.9624 8.57002L63.4185 5.02611L66.8258 1.61876C67.0138 1.43074 67.0138 1.12591 66.8258 0.937889Z" fill="white"/>
<path d="M52.4447 25.2912L41.8127 14.6593V7.64636C41.8127 6.77242 41.105 6.0647 40.2311 6.0647C39.3571 6.0647 38.6494 6.77242 38.6494 7.64636V11.496L31.1432 3.98978C30.5266 3.3732 29.524 3.3732 28.9075 3.98978L17.7661 15.1311C17.1496 15.7477 17.1496 16.7503 17.7661 17.3669C18.3827 17.9834 19.3853 17.9834 20.0019 17.3669L30.0227 7.34611L50.2089 27.527C50.5145 27.8326 50.922 27.9881 51.3241 27.9881C51.7262 27.9881 52.1337 27.8326 52.4447 27.527C53.0666 26.9104 53.0666 25.9078 52.4447 25.2912Z" fill="white"/>
<path d="M47.9192 27.1085L31.1429 10.3322C30.848 10.0373 30.4459 9.87109 30.0223 9.87109C29.5987 9.87109 29.202 10.0373 28.9017 10.3322L20.3232 18.9107C20.35 18.9107 20.3769 18.9053 20.4037 18.9053C20.8862 18.9053 21.3527 19.0447 21.7601 19.3021C22.3982 19.7149 22.8164 20.3851 22.8968 21.1411L22.9021 21.1786H23.0255C23.7546 21.1786 24.4463 21.4949 24.9235 22.0418C25.4221 22.6209 25.6312 23.3769 25.4918 24.1275L25.4864 24.165L25.5239 24.1757C26.2638 24.3634 26.8697 24.8674 27.186 25.5644C27.5024 26.256 27.4916 27.0495 27.1485 27.7304L27.1324 27.7626L27.1646 27.7787C27.631 28.0521 27.9795 28.465 28.1886 28.9475C28.6497 28.4328 29.2985 28.0843 30.033 28.0146C31.4753 28.154 32.5958 29.3711 32.5958 30.8294V36.8397C32.5958 37.8048 32.9604 38.727 33.6145 39.4347C34.3383 40.2121 35.3624 40.6625 36.4186 40.6625H44.6111C46.7182 40.6625 48.4339 38.9468 48.4339 36.8397V28.6526C48.4339 28.4114 48.4071 28.1701 48.3642 27.9288C48.2945 27.6178 48.1443 27.3337 47.9192 27.1085Z" fill="white"/>
<path fill-rule="evenodd" clip-rule="evenodd" d="M27.2557 29.6433C27.1968 29.2305 26.9501 28.8606 26.5909 28.6461L25.658 28.0939L26.1405 27.1288C26.3282 26.7535 26.3336 26.3138 26.162 25.9331C25.9851 25.5525 25.6526 25.2683 25.2452 25.1664L24.1943 24.8984L24.3873 23.8314C24.4624 23.4186 24.3444 22.995 24.071 22.6787C23.7975 22.3624 23.3954 22.1854 22.9719 22.2015L21.8888 22.239L21.7762 21.1667C21.7333 20.7485 21.5028 20.3786 21.1489 20.148C20.7951 19.9228 20.3608 19.8692 19.964 20.0033L18.94 20.3464L18.5271 19.3438C18.3663 18.9578 18.0392 18.6629 17.6371 18.5449C17.235 18.427 16.8007 18.4967 16.4576 18.7379L15.5676 19.3545L14.8974 18.5128C14.6346 18.1857 14.2379 17.998 13.8197 17.998C13.4015 17.998 13.0047 18.1857 12.742 18.5128L12.0611 19.3545L11.1711 18.7379C10.8279 18.4967 10.3937 18.427 9.99154 18.5449C9.58943 18.6629 9.26237 18.9578 9.10152 19.3438L8.68868 20.3464L7.66463 20.0033C7.26787 19.8692 6.82822 19.9228 6.47972 20.148C6.12586 20.3732 5.89531 20.7485 5.85242 21.1667L5.73983 22.239L4.6568 22.2069C4.23859 22.1961 3.83648 22.3677 3.55768 22.684C3.28424 23.0004 3.16628 23.4239 3.24134 23.8368L3.43436 24.9037L2.38886 25.1718C1.98138 25.2737 1.6436 25.5578 1.47203 25.9385C1.30046 26.3192 1.30582 26.7588 1.49348 27.1341L1.98138 28.0992L1.04847 28.6515C0.689245 28.8659 0.442614 29.2305 0.383636 29.6433C0.324659 30.0562 0.453337 30.4797 0.742861 30.7854L1.48275 31.5735L0.742861 32.3616C0.458698 32.6673 0.324659 33.0855 0.383636 33.5037C0.442614 33.9165 0.689245 34.2864 1.04847 34.4955L1.97602 35.0478L1.49348 36.0182C1.30582 36.3935 1.30046 36.8332 1.47203 37.2139C1.64896 37.5945 1.98138 37.8733 2.38886 37.9806L3.43436 38.2486L3.24134 39.3156C3.16628 39.7284 3.28424 40.152 3.55768 40.4683C3.83112 40.7847 4.23859 40.9616 4.6568 40.9455L5.73983 40.9026L5.85242 41.9749C5.89531 42.3931 6.13122 42.7631 6.47972 42.9936C6.83359 43.2188 7.26787 43.2724 7.66463 43.1384L8.68868 42.7952L9.10152 43.7925C9.26237 44.1785 9.58943 44.4734 9.99154 44.5914C10.3937 44.7093 10.8226 44.6396 11.1711 44.3983L12.0611 43.7818L12.742 44.6235C13.0047 44.9506 13.4015 45.1382 13.8197 45.1382C14.2379 45.1382 14.6346 44.9506 14.8974 44.6235L15.5783 43.7818L16.4683 44.3983C16.8114 44.6396 17.2457 44.7039 17.6478 44.5914C18.05 44.4734 18.377 44.1785 18.5379 43.7925L18.9507 42.7952L19.9748 43.1384C20.3715 43.2724 20.8058 43.2188 21.1597 42.9936C21.5135 42.7684 21.7441 42.3931 21.787 41.9749L21.8996 40.9026L22.9826 40.9455C23.3954 40.9616 23.8029 40.7847 24.0817 40.4683C24.3551 40.152 24.4731 39.7284 24.398 39.3156L24.205 38.2486L25.2559 37.9806C25.6634 37.8787 26.0011 37.5945 26.1727 37.2192C26.3443 36.8385 26.3389 36.3989 26.1513 36.0236L25.6687 35.0585L26.6016 34.5063C26.9609 34.2918 27.2075 33.9272 27.2665 33.5144C27.3308 33.1015 27.1968 32.6833 26.9126 32.3724L26.1727 31.5842L26.9126 30.7907C27.1807 30.4744 27.3147 30.0562 27.2557 29.6433ZM12.2223 36.2907C12.5216 36.2907 12.8029 36.1721 13.0158 35.9612L20.4665 28.5145C20.9044 28.0766 20.9044 27.3655 20.4665 26.9275C20.2556 26.7146 19.9724 26.5981 19.673 26.5981C19.3737 26.5981 19.0925 26.7146 18.8796 26.9275L12.4272 33.3799C12.367 33.4221 12.2967 33.4442 12.2243 33.4442C12.152 33.4442 12.0817 33.4221 12.0214 33.3799L8.83747 30.1959C8.62453 29.983 8.3433 29.8665 8.04398 29.8665C7.74467 29.8665 7.46343 29.983 7.2505 30.1959C6.81257 30.6338 6.81257 31.3449 7.2505 31.7829L11.4288 35.9612C11.6418 36.1741 11.923 36.2907 12.2223 36.2907Z" fill="white"/>
</svg>
