<svg width="64" height="63" viewBox="0 0 64 63" fill="none" xmlns="http://www.w3.org/2000/svg">
<path fill-rule="evenodd" clip-rule="evenodd" d="M18.3327 20.5283V18.5391H19.5204C20.966 18.5391 22.0784 18.2212 22.8604 17.5842C23.6424 16.9485 24.0341 16.0341 24.0341 14.8394C24.0341 13.7033 23.6787 12.8418 22.9664 12.2578C22.2554 11.6737 21.1848 11.3823 19.756 11.3823H16.4634V20.5283H14.7321V22.36H16.4634V23.9617H18.3314V22.3586H21.5975V20.5283H18.3327ZM36.8769 15.9379C35.6962 7.07215 28.1046 0.230469 18.914 0.230469C8.90523 0.230469 0.792236 8.34346 0.792236 18.3523C0.792236 27.5428 7.63252 35.1345 16.4997 36.3152C18.3104 25.9356 26.4973 17.7487 36.8769 15.9379ZM18.3327 16.9667H19.3253C20.2843 16.9667 20.9883 16.7994 21.4372 16.4662C21.886 16.1317 22.1104 15.6117 22.1104 14.9022C22.1104 14.2456 21.9097 13.7549 21.5082 13.4315C21.1068 13.1081 20.4809 12.9464 19.6305 12.9464H18.3327V16.9667ZM43.6322 42.05C43.4184 42.4204 43.1222 42.7366 42.7667 42.9742C42.4111 43.2118 42.0056 43.3645 41.5816 43.4203C41.1576 43.4761 40.7265 43.4337 40.3215 43.2962C39.9165 43.1588 39.5486 42.93 39.2462 42.6276C38.9438 42.3252 38.7151 41.9573 38.5776 41.5523C38.4401 41.1474 38.3977 40.7162 38.4535 40.2922C38.5094 39.8682 38.662 39.4627 38.8996 39.1072C39.1372 38.7516 39.4534 38.4554 39.8238 38.2416V30.8953C39.8238 30.1273 40.4427 29.5041 41.2178 29.5041C41.9873 29.5041 42.6118 30.1259 42.6118 30.8953V38.2416C43.0356 38.4856 43.3882 38.8383 43.6322 39.262H52.3766C53.1433 39.262 53.7637 39.881 53.7637 40.656C53.7637 41.4255 53.128 42.05 52.3766 42.05H43.6322Z" fill="white"/>
<circle cx="41.5055" cy="40.4352" r="21.1426" stroke="white" stroke-width="2.49931"/>
</svg>
