<svg width="67" height="45" viewBox="0 0 67 45" fill="none" xmlns="http://www.w3.org/2000/svg">
<path fill-rule="evenodd" clip-rule="evenodd" d="M55.907 19.0916C59.7647 19.0916 62.892 15.9643 62.892 12.1066C62.892 8.24881 59.7647 5.12149 55.907 5.12149C52.0492 5.12149 48.9219 8.24881 48.9219 12.1066C48.9219 15.9643 52.0492 19.0916 55.907 19.0916ZM60.5751 10.9816H51.3071V13.2304H60.5751V10.9816ZM66.0703 1.0362C65.884 0.849911 65.582 0.849912 65.3957 1.0362L62.0197 4.41214L58.7988 1.19117C58.6125 1.00488 58.3104 1.00488 58.1241 1.19117C57.9378 1.37746 57.9378 1.6795 58.1241 1.86579L61.3451 5.08676L57.9888 8.44306C57.8025 8.62935 57.8025 8.93139 57.9888 9.11768C58.1751 9.30397 58.4771 9.30397 58.6634 9.11768L62.0197 5.76138L65.531 9.27265C65.7173 9.45894 66.0193 9.45894 66.2056 9.27265C66.3919 9.08636 66.3919 8.78432 66.2056 8.59802L62.6943 5.08676L66.0703 1.71083C66.2566 1.52453 66.2566 1.22249 66.0703 1.0362Z" fill="white"/>
<path d="M51.821 25.1656L41.2867 14.6313V7.68276C41.2867 6.81685 40.5854 6.11562 39.7195 6.11562C38.8536 6.11562 38.1524 6.81685 38.1524 7.68276V11.497L30.7151 4.05975C30.1042 3.44883 29.1108 3.44883 28.4999 4.05975L17.4609 15.0988C16.85 15.7097 16.85 16.7031 17.4609 17.314C18.0718 17.9249 19.0652 17.9249 19.6761 17.314L29.6049 7.38527L49.6058 27.3809C49.9086 27.6837 50.3123 27.8377 50.7107 27.8377C51.1092 27.8377 51.5129 27.6837 51.821 27.3809C52.4372 26.77 52.4372 25.7766 51.821 25.1656Z" fill="white"/>
<path d="M47.3374 26.9659L30.7151 10.3436C30.423 10.0514 30.0245 9.88672 29.6049 9.88672C29.1852 9.88672 28.7921 10.0514 28.4946 10.3436L19.9949 18.8433C20.0214 18.8433 20.048 18.838 20.0746 18.838C20.5527 18.838 21.0148 18.9761 21.4186 19.2311C22.0507 19.6402 22.4651 20.3042 22.5448 21.0532L22.5501 21.0904H22.6723C23.3948 21.0904 24.0801 21.4038 24.5528 21.9457C25.0469 22.5194 25.2541 23.2685 25.116 24.0122L25.1106 24.0494L25.1478 24.06C25.8809 24.2459 26.4812 24.7453 26.7947 25.4359C27.1081 26.1212 27.0975 26.9074 26.7575 27.5821L26.7415 27.614L26.7734 27.6299C27.2356 27.9008 27.5809 28.3099 27.7881 28.788C28.2449 28.278 28.8877 27.9327 29.6155 27.8636C31.0445 28.0018 32.1548 29.2077 32.1548 30.6526V36.6077C32.1548 37.5639 32.516 38.4777 33.1641 39.1789C33.8813 39.9492 34.896 40.3954 35.9425 40.3954H44.0597C46.1475 40.3954 47.8474 38.6955 47.8474 36.6077V28.4958C47.8474 28.2567 47.8208 28.0177 47.7783 27.7786C47.7093 27.4705 47.5605 27.189 47.3374 26.9659Z" fill="white"/>
<path d="M26.8636 29.5696C26.8052 29.1606 26.5608 28.794 26.2049 28.5815L25.2806 28.0344L25.7587 27.0781C25.9446 26.7063 25.9499 26.2707 25.7799 25.8935C25.6046 25.5163 25.2752 25.2348 24.8715 25.1338L23.8303 24.8682L24.0215 23.8111C24.0959 23.402 23.979 22.9823 23.7081 22.6689C23.4372 22.3555 23.0388 22.1802 22.6191 22.1961L21.546 22.2333L21.4344 21.1708C21.3919 20.7565 21.1635 20.3899 20.8129 20.1615C20.4623 19.9384 20.032 19.8853 19.6389 20.0181L18.6242 20.358L18.2152 19.3646C18.0558 18.9822 17.7317 18.69 17.3333 18.5731C16.9349 18.4562 16.5046 18.5253 16.1646 18.7644L15.2828 19.3753L14.6187 18.5412C14.3584 18.2172 13.9653 18.0312 13.5509 18.0312C13.1366 18.0312 12.7435 18.2172 12.4832 18.5412L11.8085 19.3753L10.9266 18.7644C10.5867 18.5253 10.1564 18.4562 9.75794 18.5731C9.35951 18.69 9.03546 18.9822 8.87609 19.3646L8.46704 20.358L7.45239 20.0181C7.05927 19.8853 6.62366 19.9384 6.27836 20.1615C5.92775 20.3846 5.69932 20.7565 5.65682 21.1708L5.54526 22.2333L4.47217 22.2014C4.05781 22.1908 3.65938 22.3608 3.38314 22.6742C3.11221 22.9877 2.99534 23.4073 3.06971 23.8164L3.26096 24.8735L2.22505 25.1391C1.82132 25.2401 1.48664 25.5216 1.31665 25.8988C1.14665 26.276 1.15196 26.7116 1.3379 27.0835L1.82132 28.0397L0.896973 28.5868C0.541047 28.7993 0.29668 29.1606 0.238244 29.5696C0.179809 29.9787 0.307304 30.3983 0.59417 30.7012L1.32727 31.4821L0.59417 32.263C0.312617 32.5658 0.179809 32.9801 0.238244 33.3945C0.29668 33.8036 0.541047 34.1701 0.896973 34.3773L1.81601 34.9245L1.3379 35.886C1.15196 36.2578 1.14665 36.6935 1.31665 37.0706C1.49195 37.4478 1.82132 37.724 2.22505 37.8303L3.26096 38.0959L3.06971 39.1531C2.99534 39.5621 3.11221 39.9818 3.38314 40.2952C3.65407 40.6086 4.05781 40.7839 4.47217 40.768L5.54526 40.7255L5.65682 41.788C5.69932 42.2023 5.93306 42.5689 6.27836 42.7973C6.62897 43.0204 7.05927 43.0736 7.45239 42.9408L8.46704 42.6008L8.87609 43.5889C9.03546 43.9713 9.35951 44.2635 9.75794 44.3804C10.1564 44.4973 10.5813 44.4282 10.9266 44.1892L11.8085 43.5782L12.4832 44.4123C12.7435 44.7363 13.1366 44.9223 13.5509 44.9223C13.9653 44.9223 14.3584 44.7363 14.6187 44.4123L15.2934 43.5782L16.1752 44.1892C16.5152 44.4282 16.9455 44.492 17.3439 44.3804C17.7424 44.2635 18.0664 43.9713 18.2258 43.5889L18.6348 42.6008L19.6495 42.9408C20.0426 43.0736 20.4729 43.0204 20.8235 42.7973C21.1741 42.5742 21.4026 42.2023 21.4451 41.788L21.5566 40.7255L22.6297 40.768C23.0388 40.7839 23.4425 40.6086 23.7187 40.2952C23.9897 39.9818 24.1065 39.5621 24.0322 39.1531L23.8409 38.0959L24.8821 37.8303C25.2859 37.7294 25.6205 37.4478 25.7905 37.0759C25.9605 36.6988 25.9552 36.2632 25.7693 35.8913L25.2912 34.9351L26.2155 34.3879C26.5715 34.1754 26.8158 33.8142 26.8743 33.4051C26.938 32.9961 26.8052 32.5817 26.5236 32.2736L25.7905 31.4927L26.5236 30.7065C26.7893 30.393 26.9221 29.9787 26.8636 29.5696ZM3.85063 32.1674L3.0644 31.8061L4.84403 27.1897L5.49745 27.4872L3.85063 32.1674ZM14.8471 38.3615L6.10305 32.5339L6.88928 28.5018L10.9798 26.2388L11.7713 26.7382L9.63575 30.6958C9.49232 30.9668 9.57732 31.3014 9.83762 31.4714L11.6651 32.6455C11.9041 32.7942 12.2122 32.757 12.4088 32.5605L14.895 29.9627L20.2392 34.5845L14.8471 38.3615ZM20.186 32.9908L15.2349 28.7037C15.1765 28.6559 15.1128 28.6187 15.0437 28.5922C15.0225 28.5815 14.9959 28.5815 14.9746 28.5762C14.9321 28.5656 14.8896 28.555 14.8471 28.555C14.8418 28.555 14.8365 28.555 14.8259 28.555C14.8206 28.555 14.81 28.555 14.8046 28.5603C14.7409 28.5656 14.6718 28.5762 14.6134 28.6081C14.6081 28.6081 14.6028 28.6134 14.6028 28.6134C14.539 28.6453 14.4806 28.6878 14.4275 28.7409L11.8882 31.3918L10.9266 30.7702L12.9241 27.0728L15.4315 26.7382L19.9098 28.5443L20.866 32.162L20.186 32.9908ZM22.9272 31.7105L21.1476 27.4022L21.9391 27.0463L23.9578 31.4236L22.9272 31.7105Z" fill="white"/>
</svg>
