<svg width="39" height="39" viewBox="0 0 39 39" fill="none" xmlns="http://www.w3.org/2000/svg">
<path d="M37.7368 21.7692H36.6005V16.0852C36.6005 15.3466 36.0092 14.7473 35.2826 14.7473H34.6796L33.984 12.4621H35.2826C36.0092 12.4621 36.6005 11.8627 36.6005 11.1242C36.6005 10.3856 36.0092 9.7863 35.2826 9.7863H33.1685L30.6022 1.35686C30.4322 0.792324 29.8408 0.475254 29.2804 0.649256L4.59162 8.40588C4.32495 8.49095 4.10079 8.67655 3.96938 8.93175C3.83797 9.18309 3.81092 9.47696 3.89595 9.74763L3.91914 9.8211C2.07946 10.0686 0.65332 11.6655 0.65332 13.6027V34.6531C0.65332 36.7605 2.34227 38.4773 4.41384 38.4773H35.2826C36.0092 38.4773 36.6005 37.878 36.6005 37.1394V31.1653H37.7368C38.1735 31.1653 38.5291 30.8057 38.5291 30.3611V22.5735C38.5291 22.1288 38.1735 21.7692 37.7368 21.7692ZM4.41384 14.7434C3.82638 14.7434 3.351 14.2833 3.30076 13.6994C3.29689 13.6685 3.28916 13.6337 3.28916 13.5989C3.28916 12.9686 3.7916 12.4582 4.41384 12.4582H4.71916L5.14044 13.8347L5.41484 14.7396H4.41384V14.7434ZM7.29317 12.4621L6.96079 12.5665L6.92987 12.4621L6.52019 11.1242L6.2226 10.1382L7.34728 9.7863L28.8978 3.01182L29.636 5.44011L15.8191 9.78243L11.5561 11.1203L7.29317 12.4621ZM14.3002 14.7434L14.876 14.5617L21.5739 12.4621L25.8368 11.1242L30.0998 9.7863L30.8843 9.53883L30.9616 9.7863L31.3675 11.1242L31.7733 12.4621L32.438 14.6429L32.1056 14.7473H17.3032H14.3002V14.7434ZM36.9445 29.5568H36.6005H35.2826H33.9646H29.7326C28.0553 29.5568 26.691 28.1686 26.691 26.4673C26.691 24.7621 28.0553 23.3778 29.7326 23.3778H33.9646H35.2826H36.6005H36.9445V29.5568ZM30.2505 25.4194C29.6824 25.4194 29.2186 25.8873 29.2186 26.4673C29.2186 27.0473 29.6785 27.5152 30.2505 27.5152C30.8186 27.5152 31.2824 27.0473 31.2824 26.4673C31.2824 25.8873 30.8225 25.4194 30.2505 25.4194Z" fill="white"/>
</svg>
