<svg width="45" height="44" viewBox="0 0 45 44" fill="none" xmlns="http://www.w3.org/2000/svg">
<path d="M7.43482 24.6507H10.6163L5.39538 31.7525L0.178955 24.6507H3.36048C3.36048 14.1589 11.8944 5.625 22.3862 5.625V9.70387C14.1468 9.69934 7.43482 16.4068 7.43482 24.6507ZM44.5934 24.6507H41.4118C41.4118 35.1425 32.8779 43.6764 22.3862 43.6764V39.5975C30.63 39.5975 37.3375 32.89 37.3375 24.6462H34.1605L39.3769 17.5444L44.5934 24.6507Z" fill="white"/>
<path fill-rule="evenodd" clip-rule="evenodd" d="M34.2138 15.7626C38.3465 15.7626 41.6967 12.4124 41.6967 8.27974C41.6967 4.14707 38.3465 0.796875 34.2138 0.796875C30.0811 0.796875 26.731 4.14707 26.731 8.27974C26.731 12.4124 30.0811 15.7626 34.2138 15.7626ZM35.1365 11.355V4.99969H32.5739V5.9893H33.9381V11.355H35.1365Z" fill="white"/>
<path d="M22.3871 33.624C24.1058 33.6238 25.7857 33.0998 27.2146 32.1183C28.6435 31.1368 29.7571 29.7419 30.4147 28.1099C31.0722 26.4779 31.2442 24.6822 30.9087 22.9498C30.5733 21.2174 29.7456 19.6261 28.5303 18.3772C27.315 17.1283 25.7666 16.2778 24.081 15.9333C22.3953 15.5887 20.6482 15.7657 19.0604 16.4417C17.4726 17.1177 16.1155 18.2624 15.1607 19.7311C14.2059 21.1998 13.6963 22.9265 13.6963 24.6929C13.6988 27.061 14.6153 29.3313 16.2447 31.0056C17.874 32.68 20.0831 33.6217 22.3871 33.624ZM25.17 25.0701C24.5185 25.6415 23.6766 25.9306 22.8218 25.8764H21.5554C21.5154 25.8764 21.4758 25.8845 21.4389 25.9003C21.402 25.916 21.3685 25.9391 21.3403 25.9682C21.312 25.9973 21.2897 26.0319 21.2745 26.0699C21.2593 26.1079 21.2515 26.1486 21.2517 26.1897V26.8449C21.2515 26.886 21.2593 26.9267 21.2745 26.9647C21.2897 27.0027 21.312 27.0372 21.3403 27.0663C21.3685 27.0954 21.402 27.1185 21.4389 27.1343C21.4758 27.15 21.5154 27.1581 21.5554 27.1581H22.0061C22.176 27.1513 22.3434 27.2008 22.4837 27.2993C22.5448 27.3512 22.594 27.4164 22.6277 27.4902C22.6614 27.5639 22.6789 27.6444 22.6788 27.7259C22.6786 27.8074 22.661 27.8878 22.6271 27.9615C22.5932 28.0351 22.5439 28.1002 22.4827 28.1519C22.3433 28.2511 22.1766 28.3013 22.0072 28.2953H21.5565C21.5165 28.2952 21.4769 28.3032 21.4399 28.3188C21.4029 28.3344 21.3693 28.3574 21.341 28.3864C21.3127 28.4154 21.2902 28.4498 21.2749 28.4878C21.2596 28.5257 21.2517 28.5664 21.2517 28.6075V29.2307C21.2514 29.4005 21.189 29.5639 21.0767 29.6885C21.0219 29.7497 20.9552 29.7986 20.8809 29.8318C20.8066 29.865 20.7263 29.882 20.6453 29.8815C20.5641 29.8801 20.484 29.8618 20.4098 29.8276C20.3357 29.7935 20.269 29.7443 20.2139 29.6829C20.1015 29.5607 20.0389 29.3989 20.039 29.2307V28.6075C20.039 28.5664 20.0311 28.5257 20.0157 28.4878C20.0004 28.4498 19.9779 28.4154 19.9496 28.3864C19.9213 28.3574 19.8877 28.3344 19.8507 28.3188C19.8137 28.3032 19.7741 28.2952 19.7342 28.2953H19.4433C19.2736 28.3014 19.1065 28.2511 18.9668 28.1519C18.9057 28.1001 18.8564 28.035 18.8226 27.9613C18.7888 27.8876 18.7713 27.8071 18.7713 27.7256C18.7713 27.6441 18.7888 27.5637 18.8226 27.49C18.8564 27.4163 18.9057 27.3512 18.9668 27.2993C19.1068 27.2009 19.2739 27.1514 19.4433 27.1581H19.7342C19.815 27.1581 19.8925 27.1251 19.9497 27.0664C20.0068 27.0076 20.039 26.928 20.039 26.8449V26.1897C20.039 26.1066 20.0068 26.0269 19.9497 25.9682C19.8925 25.9094 19.815 25.8764 19.7342 25.8764H19.4433C19.2737 25.8831 19.1065 25.8332 18.9668 25.7341C18.9057 25.6821 18.8565 25.6168 18.8228 25.543C18.7891 25.4691 18.7717 25.3886 18.7718 25.307C18.7719 25.2254 18.7895 25.1449 18.8234 25.0712C18.8573 24.9974 18.9066 24.9323 18.9679 24.8804C19.1077 24.7826 19.2743 24.7335 19.4433 24.7403H19.7342C19.815 24.7403 19.8925 24.7073 19.9497 24.6486C20.0068 24.5898 20.039 24.5101 20.039 24.427V20.2532C20.0395 20.0545 20.1166 19.864 20.2533 19.7235C20.3901 19.583 20.5754 19.5037 20.7687 19.5032H22.8218C23.2469 19.4772 23.6727 19.5399 24.0736 19.6873C24.4746 19.8348 24.8424 20.0641 25.1549 20.3613C25.736 21.0239 26.0405 21.8946 26.0028 22.7858C26.0271 23.2052 25.9655 23.6252 25.8221 24.0187C25.6786 24.4122 25.4565 24.7704 25.17 25.0701ZM22.8218 20.722H21.5554C21.4748 20.722 21.3976 20.7549 21.3406 20.8134C21.2837 20.872 21.2517 20.9514 21.2517 21.0342V24.427C21.2515 24.4681 21.2593 24.5088 21.2745 24.5468C21.2897 24.5848 21.312 24.6194 21.3403 24.6485C21.3685 24.6776 21.402 24.7007 21.4389 24.7164C21.4758 24.7322 21.5154 24.7403 21.5554 24.7403H22.0341C22.7178 24.7954 23.4052 24.7022 24.0517 24.4668C24.3309 24.3 24.5524 24.0476 24.6852 23.745C24.818 23.4424 24.8554 23.1047 24.7922 22.7791C24.7936 22.2735 24.6527 21.7782 24.3865 21.3529C24.1926 21.1283 23.9498 20.9541 23.6778 20.8444C23.4059 20.7348 23.1125 20.6928 22.8218 20.722Z" fill="white"/>
</svg>
