<svg width="40" height="51" viewBox="0 0 40 51" fill="none" xmlns="http://www.w3.org/2000/svg">
<path d="M38.2523 31.3783L39.2985 30.2546C39.7014 29.8206 39.8874 29.2239 39.8099 28.635C39.7247 28.0538 39.3759 27.5268 38.8645 27.2246L37.5471 26.4419L38.2368 25.0703C38.5003 24.5433 38.5158 23.9157 38.2678 23.3732C38.0198 22.8307 37.5394 22.4355 36.9659 22.2883L35.478 21.9086L35.7493 20.3975C35.8577 19.8163 35.6873 19.2118 35.2998 18.7623C34.9123 18.3129 34.3389 18.0649 33.7422 18.0881L32.2078 18.1424L32.0451 16.6158C31.9831 16.0268 31.6576 15.4999 31.1539 15.1744C30.6579 14.8489 30.038 14.7792 29.4723 14.9652L28.0154 15.4534L27.4265 14.0352C27.2017 13.485 26.7368 13.0666 26.1633 12.9038C25.5899 12.7411 24.9777 12.8341 24.4895 13.1751L23.2263 14.0507L22.2654 12.8573C21.8934 12.3924 21.3277 12.1289 20.7388 12.1289C20.1421 12.1289 19.5841 12.4001 19.2122 12.8573L18.2512 14.0507L16.9959 13.1751C16.5076 12.8341 15.8954 12.7411 15.322 12.9038C14.7485 13.0666 14.2836 13.485 14.0589 14.0352L13.4699 15.4534L12.013 14.9652C11.4473 14.7792 10.8274 14.8567 10.3314 15.1744C9.83546 15.4921 9.50224 16.0268 9.44025 16.6158L9.27751 18.1424L7.74314 18.0881C7.15419 18.0727 6.58074 18.3129 6.18552 18.7623C5.79806 19.2118 5.63532 19.8163 5.73606 20.3975L6.00729 21.9086L4.55816 22.296C3.98471 22.4433 3.50425 22.8462 3.25627 23.3809C3.0083 23.9234 3.01605 24.5433 3.28727 25.0781L3.97696 26.4497L2.65958 27.2324C2.14812 27.5346 1.7994 28.0538 1.71416 28.6427C1.62891 29.2317 1.8149 29.8284 2.21786 30.2624L3.26402 31.386L2.21786 32.5097C1.8149 32.9436 1.62891 33.5403 1.71416 34.1215C1.7994 34.7105 2.14812 35.2297 2.65958 35.5319L3.97696 36.3146L3.28727 37.6862C3.02379 38.2132 3.0083 38.8409 3.25627 39.3833C3.50425 39.918 3.97696 40.321 4.55816 40.4682L6.04604 40.848L5.77481 42.3591C5.66632 42.9403 5.8368 43.5447 6.22427 43.9942C6.61174 44.4436 7.18519 44.6916 7.78189 44.6684L9.31626 44.6141L9.47899 46.1408C9.54099 46.7297 9.87421 47.2567 10.3702 47.5821C10.8739 47.9076 11.4861 47.9773 12.0518 47.7914L13.5087 47.3109L14.0899 48.729C14.3146 49.2792 14.7795 49.6977 15.353 49.8604C15.9187 50.0309 16.5386 49.9302 17.0268 49.5892L18.2822 48.7135L19.2432 49.9069C19.6151 50.3719 20.1808 50.6431 20.7698 50.6431C21.3665 50.6431 21.9244 50.3796 22.2964 49.9147L23.2573 48.7213L24.5205 49.597C25.0087 49.9379 25.6209 50.0387 26.1943 49.8682C26.76 49.7054 27.225 49.287 27.4575 48.7368L28.0464 47.3187L29.5033 47.7991C30.069 47.9851 30.6812 47.9154 31.1849 47.5899C31.6809 47.2722 32.0141 46.7452 32.0761 46.1485L32.2388 44.6219L33.7732 44.6761C34.3621 44.6994 34.9356 44.4514 35.3308 44.0019C35.7183 43.5525 35.881 42.9558 35.7803 42.3668L35.509 40.8557L36.9969 40.476C37.5704 40.3287 38.0508 39.9335 38.2988 39.3911C38.5468 38.8486 38.5313 38.2287 38.2678 37.694L37.5781 36.3223L38.8955 35.5397C39.4069 35.2374 39.7557 34.7182 39.8332 34.1293C39.9184 33.5403 39.7324 32.9514 39.3217 32.5174L38.2523 31.3783ZM13.4854 32.5407C10.3469 32.5407 8.92879 30.3554 8.92879 27.8988V26.6357C8.92879 23.9234 10.1919 21.8388 13.4854 21.8388C16.7789 21.8388 18.0188 23.9234 18.0188 26.6357V27.8988C18.011 30.3554 16.5929 32.5407 13.4854 32.5407ZM18.042 39.9103C17.2516 41.5221 16.8564 41.6771 16.1434 41.6771C15.4615 41.6771 14.8803 40.9642 14.8803 40.569C14.8803 40.3287 14.9888 39.9878 15.2213 39.5151L23.4666 22.8385C24.257 21.2266 24.6522 21.0716 25.3651 21.0716C26.0471 21.0716 26.6283 21.7846 26.6283 22.1798C26.6283 22.42 26.5198 22.761 26.2873 23.2337L18.042 39.9103ZM32.5875 36.2758C32.5875 38.7246 31.1616 40.91 28.0542 40.91C24.9157 40.91 23.4975 38.7246 23.4975 36.2758V35.0127C23.4975 32.3004 24.7607 30.2159 28.0542 30.2159C31.3476 30.2159 32.5875 32.2927 32.5875 35.0127V36.2758Z" fill="white"/>
<path d="M13.4852 24.0547C12.2221 24.0547 12.0903 25.4496 12.0903 27.1932C12.0903 28.929 12.2221 30.3239 13.4852 30.3239C14.7251 30.3239 14.8568 28.929 14.8568 27.1932C14.8568 25.4573 14.7251 24.0547 13.4852 24.0547Z" fill="white"/>
<path d="M28.0541 32.4316C26.7909 32.4316 26.6592 33.8265 26.6592 35.5701C26.6592 37.3137 26.7909 38.7009 28.0541 38.7009C29.294 38.7009 29.4257 37.306 29.4257 35.5701C29.4257 33.8265 29.294 32.4316 28.0541 32.4316Z" fill="white"/>
<path d="M0.630371 10.1012C0.630371 15.6805 5.15219 20.2023 10.7315 20.2023C16.3109 20.2023 20.8327 15.6805 20.8327 10.1012C20.8327 4.52182 16.3109 0 10.7315 0C5.15219 0 0.630371 4.52182 0.630371 10.1012ZM14.8613 11.3273H6.60172V8.87498H14.8613V11.3273Z" fill="white"/>
</svg>
