<svg width="133" height="131" viewBox="0 0 133 131" fill="none" xmlns="http://www.w3.org/2000/svg">
<path fill-rule="evenodd" clip-rule="evenodd" d="M37.5559 42.4786V38.3156H40.0414C43.0666 38.3156 45.3946 37.6505 47.0312 36.3173C48.6678 34.987 49.4876 33.0733 49.4876 30.5732C49.4876 28.1956 48.7437 26.3927 47.2529 25.1703C45.7651 23.948 43.5246 23.3383 40.5344 23.3383H33.6438V42.4786H30.0205V46.3119H33.6438V49.6639H37.553V46.309H44.3882V42.4786H37.5559ZM76.3645 32.872C73.8936 14.318 58.0061 0 38.7724 0C17.8263 0 0.847656 16.9786 0.847656 37.9247C0.847656 57.1584 15.1628 73.0459 33.7196 75.5169C37.5092 53.7948 54.6424 36.6615 76.3645 32.872ZM37.5559 35.0249H39.633C41.6401 35.0249 43.1133 34.6749 44.0527 33.9776C44.992 33.2775 45.4617 32.1893 45.4617 30.7044C45.4617 29.3304 45.0416 28.3035 44.2015 27.6267C43.3613 26.9499 42.0514 26.6115 40.2719 26.6115H37.5559V35.0249ZM90.5017 87.5186C90.0543 88.2937 89.4345 88.9555 88.6904 89.4528C87.9463 89.95 87.0977 90.2694 86.2104 90.3863C85.3231 90.5031 84.4207 90.4143 83.5733 90.1266C82.7258 89.839 81.9558 89.3602 81.323 88.7273C80.6901 88.0945 80.2113 87.3245 79.9236 86.477C79.636 85.6295 79.5471 84.7272 79.664 83.8399C79.7808 82.9526 80.1003 82.104 80.5975 81.3599C81.0948 80.6158 81.7566 79.996 82.5317 79.5486V64.1745C82.5317 62.567 83.827 61.263 85.449 61.263C87.0593 61.263 88.3662 62.5641 88.3662 64.1745V79.5486C89.2531 80.0591 89.9912 80.7972 90.5017 81.684H108.802C110.406 81.684 111.705 82.9793 111.705 84.6013C111.705 86.2116 110.374 87.5186 108.802 87.5186H90.5017Z" fill="white"/>
<circle cx="86.0513" cy="84.1391" r="45.4843" stroke="white" stroke-width="2.75499"/>
</svg>
