<svg width="52" height="50" viewBox="0 0 52 50" fill="none" xmlns="http://www.w3.org/2000/svg">
<path d="M18.1071 10.8312C16.3013 11.0465 14.7186 11.4206 13.255 11.9785C6.86796 14.3924 2.35765 19.8732 1.15666 26.6764C0.87038 28.3094 0.862622 31.4482 1.14115 32.8581L1.1811 33.0652L1.76957 32.7307C2.09581 32.5395 2.58885 32.3084 2.85923 32.2046C3.12961 32.1091 3.36042 32.0216 3.36817 32.0135C3.38408 32.0053 3.35227 31.5356 3.31231 30.9618C3.0497 27.4884 4.01212 23.7521 5.95325 20.7726C11.7677 11.8185 24.2319 10.5197 31.7563 18.0798C35.9086 22.2629 37.5234 28.2934 36.0757 34.2047C35.7018 35.7184 34.9143 37.5187 34.0314 38.8731L33.562 39.5981L33.5221 41.3584C33.498 42.3305 33.5139 43.127 33.5461 43.127C33.6893 43.127 35.1688 41.3025 35.7732 40.3945C37.5072 37.7654 38.5491 34.8819 38.8753 31.7431C39.0107 30.4447 38.9312 27.8952 38.7163 26.6764C38.1596 23.5376 36.9664 20.797 35.0334 18.2161C34.3654 17.3241 32.7346 15.643 31.8758 14.9658C29.2589 12.8946 26.3716 11.604 23.0786 11.0146C22.3229 10.879 21.7345 10.8394 20.255 10.8235C19.2289 10.8072 18.2584 10.8149 18.1071 10.8312Z" fill="white"/>
<path d="M19.0618 15.0139C18.2584 15.3725 17.7891 16.1134 17.7891 16.9976C17.7972 18.2405 18.7038 19.1484 19.9366 19.1484C21.1694 19.1484 22.0763 18.2401 22.0841 16.9976C22.0841 15.7629 21.1771 14.8468 19.9366 14.8468C19.5867 14.8464 19.3004 14.9024 19.0618 15.0139Z" fill="white"/>
<path d="M10.042 20.335C9.46132 20.7173 9.32633 21.4982 9.7476 22.0639C9.87484 22.2313 11.8792 24.2707 14.2098 26.5967C16.5323 28.9146 18.5448 30.9702 18.672 31.1532C18.7992 31.3366 19.046 31.5514 19.2446 31.647C19.5786 31.8063 19.6981 31.8145 23.1579 31.8145C26.634 31.8145 26.7372 31.8063 27.0793 31.647C27.2861 31.5433 27.5087 31.3443 27.636 31.1532C27.8191 30.8824 27.8509 30.7468 27.8509 30.2608C27.8509 29.7747 27.8191 29.6395 27.636 29.3684C27.5087 29.1772 27.2861 28.9779 27.0793 28.8746C26.7372 28.7153 26.634 28.7071 23.2296 28.7071H19.7376L15.7211 24.6767C13.51 22.4621 11.5611 20.5421 11.3939 20.4146C11.0122 20.1279 10.4078 20.0961 10.042 20.335Z" fill="white"/>
<path d="M31.9159 27.8004C31.3592 27.9757 30.7308 28.621 30.5636 29.1867C30.4046 29.7205 30.4046 30.0072 30.5636 30.541C30.8022 31.3616 31.7487 32.0547 32.6238 32.0547C33.7535 32.0547 34.8113 30.9952 34.8113 29.8639C34.8113 28.7088 33.7376 27.6571 32.592 27.6812C32.433 27.6808 32.1304 27.7367 31.9159 27.8004Z" fill="white"/>
<path d="M6.17608 32.6588C3.84548 32.9696 1.91249 33.7901 1.21269 34.7459C0.981879 35.0804 0.965974 35.1363 0.942311 35.9569C0.918261 36.6978 0.934165 36.857 1.07731 37.136C1.57035 38.0999 3.20115 38.8967 5.65899 39.3587C6.66912 39.5498 9.42139 39.5899 10.6305 39.4302C13.2078 39.0875 15.2758 38.1796 15.8007 37.1438C16.0074 36.7374 16.0233 35.4471 15.8325 35.0326C15.3076 33.9253 13.2711 33.001 10.6065 32.6506C9.4532 32.4995 7.3216 32.5072 6.17608 32.6588ZM10.8214 33.8457C11.9351 34.0131 12.9053 34.2917 13.7086 34.6899C14.2971 34.9848 14.846 35.439 14.846 35.6379C14.846 35.8213 14.3289 36.2751 13.8359 36.5381C12.1973 37.3905 9.46096 37.7969 6.96355 37.5498C5.37271 37.3905 4.04448 37.0478 3.05025 36.5299C2.55721 36.2751 2.04011 35.8209 2.04011 35.6375C2.04011 35.4545 2.55721 35.0003 3.05025 34.7373C4.86376 33.7979 8.0214 33.4315 10.8214 33.8457Z" fill="white"/>
<path d="M23.1979 37.5995C21.2889 37.8307 20.1038 38.1333 19.022 38.659C18.1786 39.0732 17.5902 39.5592 17.3597 40.053C17.1848 40.4275 17.1848 41.766 17.3597 42.1401C17.6778 42.8095 18.9983 43.6219 20.4142 44.0283C22.9597 44.7614 26.539 44.7614 29.0841 44.0283C30.5 43.6219 31.8205 42.8095 32.1386 42.1401C32.3294 41.7337 32.3135 40.4353 32.1145 40.0371C31.5974 39.0172 29.808 38.1489 27.4137 37.7507C26.6899 37.6232 23.8104 37.5276 23.1979 37.5995ZM27.0557 38.8739C28.1376 39.0254 29.2432 39.3358 29.9352 39.6703C30.5 39.9411 31.1521 40.4668 31.1521 40.6424C31.1521 40.8735 30.6032 41.3273 29.9271 41.6541C28.5193 42.339 27.1034 42.602 24.7887 42.602C22.5458 42.6098 20.9309 42.3312 19.5945 41.6937C19.022 41.4229 18.3458 40.8731 18.3458 40.682C18.3458 40.4668 18.9583 39.957 19.5786 39.6621C20.5251 39.2002 22.0683 38.8575 23.8341 38.7142C24.447 38.6668 26.2205 38.7546 27.0557 38.8739Z" fill="white"/>
<path d="M0.926169 38.5785C0.926169 39.1442 0.957978 39.3749 1.08521 39.6143C1.55459 40.5463 3.29634 41.3987 5.57923 41.821C6.70884 42.0281 10.1609 42.0363 11.2665 41.8292C13.5812 41.3991 15.3311 40.5467 15.8004 39.6146C15.9277 39.3757 15.9595 39.1445 15.9595 38.5789V37.8461L15.7287 38.1569C15.4265 38.5793 15.2116 38.7622 14.6549 39.0971C12.4356 40.4356 7.76669 40.8338 4.46552 39.9655C2.787 39.5272 1.7214 38.9456 1.15659 38.1569L0.925781 37.8461V38.5785H0.926169Z" fill="white"/>
<path d="M0.926169 41.1275C0.926169 41.6932 0.957978 41.9244 1.08521 42.1633C1.55459 43.0954 3.30448 43.9478 5.61918 44.3779C6.72474 44.5849 10.1768 44.5772 11.3064 44.3697C13.5893 43.9474 15.3311 43.095 15.8004 42.1629C15.9277 41.924 15.9595 41.6928 15.9595 41.1272V40.3944L15.7287 40.7052C15.4265 41.1275 15.2116 41.3105 14.6549 41.6454C11.7358 43.398 5.22933 43.414 2.2544 41.6691C1.76911 41.3824 1.41921 41.0798 1.15659 40.7052L0.925781 40.3944V41.1275H0.926169Z" fill="white"/>
<path d="M0.92627 43.5968C0.92627 44.1624 0.958079 44.3932 1.08532 44.6326C1.54655 45.5487 3.22506 46.3851 5.41252 46.7993C6.51809 47.0145 9.19083 47.0942 10.3682 46.9586C12.5715 46.6956 14.3532 46.0821 15.2838 45.2619C15.8327 44.7759 15.96 44.4655 15.96 43.5972V42.8644L15.7292 43.183C14.1465 45.3738 7.74313 46.1703 3.55945 44.7044C2.39027 44.298 1.6028 43.7965 1.15747 43.1748L0.926657 42.864V43.5968H0.92627Z" fill="white"/>
<path d="M17.2322 43.5884C17.2322 44.1141 17.2722 44.4171 17.3595 44.6083C17.6775 45.2773 19.0217 46.106 20.4376 46.5124C24.3032 47.6119 29.6646 47.0062 31.5972 45.2536C32.1697 44.7357 32.2651 44.4968 32.2651 43.5884V42.8475L32.1139 43.0864C31.5572 44.0107 29.8232 44.839 27.6117 45.2454C26.4584 45.4607 23.0223 45.4607 21.8849 45.2454C19.6656 44.839 17.9398 44.0107 17.3827 43.0864L17.2314 42.8475V43.5884H17.2322Z" fill="white"/>
<path d="M0.92627 46.1234C0.92627 46.8802 0.942174 46.944 1.15708 47.2466C1.71374 48.0194 2.73978 48.6087 4.24334 49.0151C8.12484 50.0905 13.3745 49.4852 15.2679 47.7486C15.8645 47.207 15.96 46.968 15.96 46.0597V45.3188L15.8087 45.5577C15.3952 46.2427 14.4805 46.8165 13.12 47.2625C9.85106 48.338 5.37257 48.1468 2.61254 46.8084C1.99226 46.5135 1.31613 45.9637 1.06941 45.5577L0.92627 45.3188V46.1234Z" fill="white"/>
<path d="M17.2322 46.1387C17.2322 46.6647 17.2722 46.9674 17.3595 47.1585C17.6857 47.8357 18.9903 48.6481 20.4535 49.0626C24.4544 50.2099 30.054 49.5009 31.7721 47.6364C32.2174 47.1585 32.2651 46.9992 32.2651 46.1309V45.3982L32.1139 45.6371C31.5572 46.561 29.8232 47.3897 27.6117 47.7961C26.4584 48.0113 23.0223 48.0113 21.8849 47.7961C19.6656 47.3897 17.9398 46.5614 17.3827 45.6371L17.2314 45.3982V46.1387H17.2322Z" fill="white"/>
<path d="M45.5345 10.7513H43.1485V8.36168C43.1485 7.70119 42.6161 7.16797 41.9567 7.16797C41.2972 7.16797 40.7648 7.70119 40.7648 8.36168V10.7513H38.3789C37.7194 10.7513 37.187 11.2845 37.187 11.945C37.187 12.6055 37.7194 13.1387 38.3789 13.1387H40.7648V15.5283C40.7648 16.1888 41.2972 16.722 41.9567 16.722C42.6161 16.722 43.1485 16.1888 43.1485 15.5283V13.1409H45.5345C46.1939 13.1409 46.7263 12.6077 46.7263 11.9472C46.7263 11.2867 46.1939 10.7513 45.5345 10.7513Z" fill="white"/>
<path d="M51.1499 5.12811L46.3781 0.35109C46.1546 0.12727 45.8523 0 45.5346 0H35.9931C34.019 0 32.4131 1.60843 32.4131 3.58332V17.9188C32.4131 19.8958 34.019 21.5021 35.9909 21.5021H47.9183C49.8923 21.5021 51.4961 19.8937 51.4961 17.9188V5.97292C51.5005 5.65475 51.3734 5.35193 51.1499 5.12811ZM48.6194 5.97292H47.3246C46.3387 5.97292 45.5346 5.1698 45.5346 4.18017V2.88333L48.6194 5.97292ZM47.9205 19.1147H35.9931C35.3336 19.1147 34.8012 18.5793 34.8012 17.921V3.58332C34.8012 2.92283 35.3358 2.38961 35.9931 2.38961H44.3427V4.18236C44.3427 5.83029 45.6792 7.16883 47.3246 7.16883H49.1146V17.921C49.1146 18.5793 48.58 19.1147 47.9205 19.1147Z" fill="white"/>
</svg>
