<svg width="54" height="51" viewBox="0 0 54 51" fill="none" xmlns="http://www.w3.org/2000/svg">
<path d="M36.4834 0.174317C29.5337 0.712231 24.3522 3.46283 23.6593 6.97925C23.2251 9.18221 25.0759 11.5812 28.3752 13.1118C31.6432 14.6321 36.1933 15.3661 40.5166 15.0766C44.0228 14.8389 46.546 14.2184 49.1519 12.9357C55.9984 9.5851 54.8399 3.96942 46.7523 1.32197C43.8883 0.381166 39.7929 -0.0735769 36.4834 0.174317Z" fill="white"/>
<path d="M53.082 12.1808C52.9167 12.3569 52.3064 12.8219 51.7275 13.2048C47.1876 16.2141 40.7753 17.3418 34.0844 16.3075C33.3607 16.1936 32.6467 16.0802 32.5122 16.0386C32.3259 15.9975 32.678 16.4004 33.6707 17.4141C34.4565 18.2 35.367 19.2445 35.7078 19.7408L36.3284 20.6303L37.3108 20.7027C39.1103 20.8474 42.1196 20.62 44.3431 20.175C46.6286 19.7203 49.1832 18.7168 50.7651 17.641C52.4614 16.5138 53.5162 14.973 53.6091 13.504C53.6507 13.0179 53.6194 12.5735 53.5265 12.2942L53.392 11.8492L53.082 12.1808Z" fill="white"/>
<path d="M52.7199 18.0248C49.628 20.7241 45.0152 22.1412 38.9448 22.2341C38.045 22.2444 37.311 22.2757 37.311 22.3065C37.311 22.3373 37.4871 22.772 37.7145 23.2889C37.9316 23.7955 38.2729 24.7055 38.4592 25.2953L38.8108 26.3711L40.0519 26.2987C46.5053 25.9369 51.6554 23.7134 53.1757 20.6312C53.6304 19.7314 53.7649 18.6453 53.5273 17.8801L53.3928 17.435L52.7199 18.0248Z" fill="white"/>
<path d="M52.8239 23.5668C50.1765 25.9561 45.9774 27.4035 40.6409 27.7761C39.8859 27.828 39.2449 27.8901 39.2141 27.9209C39.1827 27.9517 39.2038 28.3864 39.2659 28.893C39.3178 29.3894 39.4004 30.2891 39.4414 30.8783L39.5036 31.9434L40.5065 31.871C43.6816 31.6436 46.5564 30.9712 48.8522 29.9062C50.9828 28.9135 52.4821 27.6309 53.1955 26.1932C53.5784 25.4074 53.5989 25.314 53.5887 24.4353C53.5887 23.9184 53.5368 23.3907 53.485 23.2768C53.3926 23.0602 53.3716 23.0807 52.8239 23.5668Z" fill="white"/>
<path fill-rule="evenodd" clip-rule="evenodd" d="M18.691 50.0383C28.9863 50.0383 37.3322 41.6923 37.3322 31.3971C37.3322 21.1018 28.9863 12.7559 18.691 12.7559C8.39576 12.7559 0.0498047 21.1018 0.0498047 31.3971C0.0498047 41.6923 8.39576 50.0383 18.691 50.0383ZM20.6966 32.9702H26.9968V29.4108H20.6966V23.1818H16.888V29.4108H10.5879V32.9702H16.888V39.1991H20.6966V32.9702Z" fill="white"/>
</svg>
