<svg width="51" height="50" viewBox="0 0 51 50" fill="none" xmlns="http://www.w3.org/2000/svg">
<path fill-rule="evenodd" clip-rule="evenodd" d="M9.15604 4.2734C7.1666 4.60829 5.55177 5.93648 4.882 7.78686C4.50738 8.82274 4.45062 9.98064 4.72591 11.0421C5.1658 12.7562 6.46561 14.1894 8.12868 14.7911C9.16456 15.1657 10.3225 15.2225 11.3839 14.9472C13.098 14.5073 14.5312 13.2075 15.1329 11.5444C15.5075 10.5085 15.5643 9.35061 15.289 8.28919C14.9484 6.961 14.0686 5.76052 12.9051 5.03967C12.258 4.63951 11.6109 4.39828 10.8305 4.27057C10.3963 4.19962 9.58458 4.20245 9.15604 4.2734Z" fill="white"/>
<path fill-rule="evenodd" clip-rule="evenodd" d="M5.11192 16.0804C4.58122 16.174 4.28606 16.2648 3.80644 16.4834C2.47825 17.0907 1.44237 18.3309 1.08195 19.7414C0.917342 20.3942 0.925856 19.9429 0.925856 27.5005C0.925856 32.3734 0.93437 34.4849 0.957074 34.5899C0.974102 34.6722 1.04505 34.8595 1.116 35.0071C1.2948 35.3789 1.55022 35.6343 1.922 35.8131C2.23702 35.9663 2.40162 36.0032 2.74218 36.0032C3.08275 36.0032 3.24735 35.9663 3.56237 35.8131C3.99942 35.6031 4.30025 35.254 4.4904 34.7403C4.54148 34.6041 4.54432 34.3572 4.55851 28.894C4.5727 23.2038 4.5727 23.1896 4.6323 23.0903C4.81109 22.7866 5.21409 22.7866 5.39289 23.0903L5.45249 23.1896L5.46668 35.4782C5.48087 47.1112 5.4837 47.7753 5.53195 47.9512C5.77034 48.8225 6.22159 49.3248 6.98501 49.5576C7.12124 49.6001 7.25178 49.6115 7.63775 49.6115C8.06629 49.6115 8.14576 49.603 8.33307 49.5434C9.08798 49.3078 9.65274 48.7487 9.8883 48.008C9.91952 47.9058 9.95641 47.7923 9.96776 47.7526C9.98195 47.7129 9.99898 44.7642 10.0075 41.1968L10.0217 34.7119L10.0898 34.6041C10.1636 34.4849 10.331 34.3856 10.4616 34.3856C10.5921 34.3856 10.7596 34.4849 10.8334 34.6041L10.9015 34.7119L10.91 39.4429L10.9157 44.1767H13.1861H15.4565V45.0707V45.9646L15.5218 45.9533C15.5558 45.9448 15.6864 45.9249 15.8112 45.905C16.5378 45.8057 17.3012 45.5361 17.8319 45.1927C18.7145 44.6194 19.2254 43.9099 19.9604 42.2241C20.2669 41.5175 20.3918 41.2706 20.5876 40.9697C20.7579 40.7058 21.1297 40.3142 21.3312 40.1893C21.8448 39.8629 22.4238 39.7068 23.2128 39.6728L23.63 39.6557V38.7362V37.8195H23.3263C22.7956 37.8195 22.052 37.9274 21.5582 38.075C20.7863 38.302 20.1874 38.6482 19.6709 39.1676C19.1771 39.6614 18.8138 40.2375 18.408 41.1599C17.812 42.5193 17.6219 42.8684 17.2927 43.226C17.0571 43.4842 16.8272 43.6517 16.5037 43.8049C16.2681 43.9184 15.8566 44.0405 15.5899 44.0802L15.4565 44.0972L15.4622 33.6448L15.4707 23.1896L15.5303 23.0903C15.7091 22.7866 16.1121 22.7866 16.2909 23.0903C16.3505 23.1896 16.3505 23.2038 16.3646 28.894C16.3788 34.3572 16.3817 34.6041 16.4328 34.7403C16.6229 35.254 16.9237 35.6031 17.3608 35.8131C17.6758 35.9663 17.8404 36.0032 18.181 36.0032C18.5215 36.0032 18.6861 35.9663 19.0012 35.8131C19.3729 35.6343 19.6284 35.3789 19.8071 35.0071C19.8781 34.8595 19.9491 34.6722 19.9661 34.5899C19.9888 34.4849 19.9973 32.3734 19.9973 27.5005C19.9973 19.9429 20.0058 20.3942 19.8412 19.7414C19.7617 19.4321 19.6993 19.2618 19.5375 18.9042C18.9302 17.576 17.69 16.5401 16.2795 16.1797C15.6353 16.0151 15.8992 16.0236 10.4275 16.0265C5.73912 16.0293 5.37586 16.0321 5.11192 16.0804Z" fill="white"/>
<path fill-rule="evenodd" clip-rule="evenodd" d="M10.9155 46.7386C10.9155 47.1501 10.9297 47.5616 10.9467 47.6553C11.0489 48.2342 11.3526 48.7706 11.7754 49.114C11.9826 49.2843 12.3856 49.4915 12.6467 49.5596C12.9135 49.6334 13.6968 49.6305 13.938 49.5567C14.7412 49.3127 15.2378 48.7252 15.4109 47.8114C15.445 47.6326 15.4563 47.3857 15.4563 46.784V45.9922H13.1859H10.9155V46.7386Z" fill="white"/>
<path fill-rule="evenodd" clip-rule="evenodd" d="M32.0496 47.7662C36.6676 47.7662 40.4112 44.0226 40.4112 39.4046C40.4112 34.7866 36.6676 31.043 32.0496 31.043C27.4316 31.043 23.688 34.7866 23.688 39.4046C23.688 44.0226 27.4316 47.7662 32.0496 47.7662ZM31.5468 44.4032H30.0815V43.3014H28.2323V41.8332H30.0815V34.4966H32.974C33.7412 34.4966 34.477 34.8019 35.0195 35.3455C35.5621 35.8891 35.8668 36.6264 35.8668 37.3951C35.8668 38.1639 35.5621 38.9012 35.0195 39.4448C34.477 39.9884 33.7412 40.2937 32.974 40.2937H31.5468V41.8339H33.3132V43.3021H31.5468V44.4032ZM32.974 35.9648H31.5468V38.8255H32.974C33.3526 38.8255 33.7157 38.6748 33.9834 38.4066C34.2511 38.1383 34.4015 37.7745 34.4015 37.3951C34.4015 37.0158 34.2511 36.652 33.9834 36.3837C33.7157 36.1155 33.3526 35.9648 32.974 35.9648Z" fill="white"/>
<rect x="48.8599" y="0.267578" width="2.55494" height="33.6277" rx="1.27747" transform="rotate(45 48.8599 0.267578)" fill="white"/>
<rect x="25.0815" y="1.80664" width="2.55494" height="33.6277" rx="1.27747" transform="rotate(-45 25.0815 1.80664)" fill="white"/>
</svg>
