<svg width="59" height="50" viewBox="0 0 59 50" fill="none" xmlns="http://www.w3.org/2000/svg">
<path d="M35.8617 30.0757C39.4091 29.8114 42.1191 28.389 42.1191 26.6732V25.198C40.8066 26.3914 38.5288 27.2424 35.8617 27.44V30.0757ZM19.7635 32.4747V33.9499C19.7635 35.8533 23.1003 37.3968 27.2154 37.3968C31.3305 37.3968 34.6673 35.8533 34.6673 33.9499V32.4747C33.1632 33.8427 30.3897 34.7611 27.2154 34.7611C24.0411 34.7611 21.2676 33.8427 19.7635 32.4747ZM34.3286 23.6507C34.7638 23.9392 35.1278 24.3226 35.3933 24.7721C35.6587 25.2217 35.8186 25.7255 35.861 26.2458C39.4084 25.9816 42.1191 24.5592 42.1191 22.8434V21.3682C40.6151 22.7362 37.8415 23.6546 34.6673 23.6546C34.5539 23.6546 34.4407 23.6533 34.3278 23.6507H34.3286ZM35.8617 33.9055C39.4091 33.6412 42.1191 32.2188 42.1191 30.5031V29.0278C40.8066 30.2212 38.5288 31.0722 35.8617 31.2698V33.9055ZM27.2154 19.0136C27.2154 19.9277 28.0005 20.8045 29.398 21.4509C30.7955 22.0973 32.6909 22.4604 34.6673 22.4604C36.6436 22.4604 38.539 22.0973 39.9365 21.4509C41.334 20.8045 42.1191 19.9277 42.1191 19.0136C42.1191 18.0994 41.334 17.2227 39.9365 16.5763C38.539 15.9299 36.6436 15.5667 34.6673 15.5667C32.6909 15.5667 30.7955 15.9299 29.398 16.5763C28.0005 17.2227 27.2154 18.0994 27.2154 19.0136ZM19.7635 26.2903C19.7635 26.7429 19.9563 27.1911 20.3308 27.6093C20.7053 28.0275 21.2542 28.4075 21.9461 28.7275C22.6381 29.0476 23.4596 29.3015 24.3637 29.4747C25.2678 29.6479 26.2368 29.7371 27.2154 29.7371C28.194 29.7371 29.163 29.6479 30.0671 29.4747C30.9712 29.3015 31.7927 29.0476 32.4847 28.7275C33.1766 28.4075 33.7255 28.0275 34.1 27.6093C34.4745 27.1911 34.6673 26.7429 34.6673 26.2903C34.6673 25.8376 34.4745 25.3894 34.1 24.9712C33.7255 24.553 33.1766 24.173 32.4847 23.853C31.7927 23.5329 30.9712 23.279 30.0671 23.1058C29.163 22.9326 28.194 22.8434 27.2154 22.8434C26.2368 22.8434 25.2678 22.9326 24.3637 23.1058C23.4596 23.279 22.6381 23.5329 21.9461 23.853C21.2542 24.173 20.7053 24.553 20.3308 24.9712C19.9563 25.3894 19.7635 25.8376 19.7635 26.2903ZM19.7635 28.6448V30.1201C19.7635 32.0235 23.1003 33.5669 27.2154 33.5669C31.3305 33.5669 34.6673 32.0235 34.6673 30.1201V28.6448C33.1632 30.0128 30.3897 30.9312 27.2154 30.9312C24.0411 30.9312 21.2676 30.0128 19.7635 28.6448ZM20.2263 20.9285H21.7587V19.7796H23.6059V18.2476H21.7587V16.6406H23.2512C24.0535 16.6406 24.823 16.322 25.3904 15.7548C25.9577 15.1876 26.2764 14.4183 26.2764 13.6162C26.2764 12.8141 25.9577 12.0448 25.3904 11.4776C24.823 10.9104 24.0535 10.5918 23.2512 10.5918H20.2263V18.2469H18.2925V19.7788H20.2263V20.9285ZM21.7587 12.1237H23.2512C23.6471 12.1237 24.0269 12.281 24.3068 12.5609C24.5868 12.8408 24.7441 13.2204 24.7441 13.6162C24.7441 14.012 24.5868 14.3917 24.3068 14.6716C24.0269 14.9515 23.6471 15.1087 23.2512 15.1087H21.7587V12.1237Z" fill="white"/>
<path d="M9.62172 24.7721H13.7642L6.9663 34.0189L0.174316 24.7721H4.31678C4.31678 11.1115 15.4282 0 29.0889 0V5.31085C18.361 5.30494 9.62172 14.0383 9.62172 24.7721ZM58.0035 24.7721H53.8611C53.8611 38.4328 42.7496 49.5443 29.0889 49.5443V44.2334C39.8227 44.2334 48.5561 35.5001 48.5561 24.7662H44.4196L51.2116 15.5195L58.0035 24.7721Z" fill="white"/>
</svg>
