<svg width="51" height="49" viewBox="0 0 51 49" fill="none" xmlns="http://www.w3.org/2000/svg">
<path d="M8.27674 27.1975H11.9044L5.95132 35.2951L0.00341797 27.1975H3.63107C3.63107 15.2345 13.3617 5.50391 25.3247 5.50391V10.1547C15.93 10.1496 8.27674 17.7976 8.27674 27.1975ZM50.6459 27.1975H47.0182C47.0182 39.1605 37.2876 48.8911 25.3247 48.8911V44.2402C34.7245 44.2402 42.3726 36.5922 42.3726 27.1923H38.7501L44.698 19.0947L50.6459 27.1975Z" fill="white"/>
<path fill-rule="evenodd" clip-rule="evenodd" d="M38.811 17.0643C43.5231 17.0643 47.3431 13.2443 47.3431 8.53216C47.3431 3.81998 43.5231 0 38.811 0C34.0988 0 30.2788 3.81998 30.2788 8.53216C30.2788 13.2443 34.0988 17.0643 38.811 17.0643ZM39.863 12.0387V4.79226H36.941V5.92064H38.4966V12.0387H39.863Z" fill="white"/>
<path d="M25.326 37.4315C27.2857 37.4313 29.2012 36.8338 30.8305 35.7147C32.4597 34.5956 33.7295 33.005 34.4792 31.1442C35.229 29.2834 35.425 27.2358 35.0426 25.2605C34.6601 23.2852 33.7164 21.4708 32.3306 20.0467C30.9449 18.6226 29.1794 17.6529 27.2574 17.26C25.3354 16.8672 23.3432 17.0689 21.5328 17.8398C19.7223 18.6106 18.175 19.9158 17.0863 21.5905C15.9976 23.2651 15.4165 25.2339 15.4165 27.248C15.4194 29.9481 16.4644 32.5368 18.3222 34.446C20.18 36.3551 22.6989 37.4289 25.326 37.4315ZM28.4991 27.6781C27.7562 28.3296 26.7963 28.6592 25.8216 28.5975H24.3777C24.3321 28.5975 24.287 28.6067 24.2449 28.6247C24.2028 28.6427 24.1645 28.669 24.1324 28.7022C24.1002 28.7354 24.0747 28.7748 24.0574 28.8181C24.04 28.8614 24.0312 28.9078 24.0314 28.9547V29.7018C24.0312 29.7486 24.04 29.795 24.0574 29.8383C24.0747 29.8817 24.1002 29.9211 24.1324 29.9542C24.1645 29.9874 24.2028 30.0138 24.2449 30.0317C24.287 30.0497 24.3321 30.0589 24.3777 30.0589H24.8916C25.0852 30.0512 25.2762 30.1076 25.4362 30.2199C25.5058 30.2791 25.5619 30.3534 25.6003 30.4375C25.6388 30.5216 25.6587 30.6134 25.6585 30.7063C25.6584 30.7992 25.6383 30.891 25.5997 30.9749C25.561 31.0589 25.5048 31.1331 25.4349 31.1921C25.2761 31.3051 25.0859 31.3625 24.8928 31.3556H24.3789C24.3333 31.3555 24.2881 31.3645 24.246 31.3823C24.2038 31.4002 24.1655 31.4264 24.1332 31.4594C24.1009 31.4925 24.0753 31.5318 24.0578 31.575C24.0404 31.6183 24.0314 31.6647 24.0314 31.7115V32.4221C24.0311 32.6157 23.9599 32.8021 23.8319 32.9441C23.7693 33.014 23.6933 33.0696 23.6086 33.1075C23.5238 33.1454 23.4324 33.1647 23.34 33.1642C23.2473 33.1626 23.156 33.1417 23.0714 33.1028C22.9869 33.0639 22.9109 33.0077 22.848 32.9378C22.7199 32.7984 22.6486 32.6139 22.6486 32.4221V31.7115C22.6486 31.6647 22.6396 31.6183 22.6221 31.575C22.6046 31.5318 22.579 31.4925 22.5467 31.4594C22.5144 31.4264 22.4761 31.4002 22.4339 31.3823C22.3918 31.3645 22.3466 31.3555 22.301 31.3556H21.9694C21.7759 31.3626 21.5854 31.3052 21.4261 31.1921C21.3564 31.133 21.3002 31.0588 21.2617 30.9747C21.2231 30.8907 21.2031 30.7989 21.2031 30.706C21.2031 30.6131 21.2231 30.5214 21.2617 30.4373C21.3002 30.3533 21.3564 30.279 21.4261 30.2199C21.5857 30.1077 21.7762 30.0513 21.9694 30.0589H22.301C22.3932 30.0589 22.4816 30.0213 22.5468 29.9543C22.612 29.8873 22.6486 29.7965 22.6486 29.7018V28.9547C22.6486 28.86 22.612 28.7691 22.5468 28.7021C22.4816 28.6351 22.3932 28.5975 22.301 28.5975H21.9694C21.776 28.6052 21.5854 28.5482 21.4261 28.4353C21.3564 28.3759 21.3003 28.3015 21.2619 28.2173C21.2234 28.1331 21.2036 28.0412 21.2037 27.9482C21.2038 27.8552 21.2239 27.7634 21.2626 27.6793C21.3012 27.5952 21.3575 27.5209 21.4273 27.4618C21.5867 27.3503 21.7767 27.2943 21.9694 27.3021H22.301C22.3932 27.3021 22.4816 27.2644 22.5468 27.1975C22.612 27.1305 22.6486 27.0396 22.6486 26.9449V22.1858C22.6492 21.9592 22.7371 21.742 22.893 21.5818C23.0489 21.4215 23.2602 21.3312 23.4807 21.3305H25.8216C26.3063 21.301 26.7919 21.3724 27.249 21.5405C27.7062 21.7087 28.1256 21.9701 28.482 22.309C29.1445 23.0645 29.4917 24.0573 29.4487 25.0734C29.4764 25.5517 29.4062 26.0306 29.2427 26.4793C29.0791 26.9279 28.8258 27.3363 28.4991 27.6781ZM25.8216 22.7203H24.3777C24.2858 22.7203 24.1977 22.7578 24.1328 22.8245C24.0678 22.8913 24.0314 22.9818 24.0314 23.0762V26.9449C24.0312 26.9917 24.04 27.0382 24.0574 27.0815C24.0747 27.1248 24.1002 27.1642 24.1324 27.1974C24.1645 27.2306 24.2028 27.2569 24.2449 27.2749C24.287 27.2928 24.3321 27.3021 24.3777 27.3021H24.9234C25.7031 27.3649 26.4869 27.2587 27.224 26.9902C27.5424 26.8 27.795 26.5122 27.9464 26.1672C28.0978 25.8221 28.1404 25.4371 28.0683 25.0659C28.07 24.4893 27.9093 23.9246 27.6058 23.4397C27.3847 23.1836 27.1078 22.9849 26.7977 22.8599C26.4876 22.7349 26.1532 22.687 25.8216 22.7203Z" fill="white"/>
</svg>
