<svg width="64" height="63" viewBox="0 0 64 63" fill="none" xmlns="http://www.w3.org/2000/svg">
<path fill-rule="evenodd" clip-rule="evenodd" d="M0.263672 31.6789C0.263672 14.5913 14.4492 0.689453 31.8855 0.689453C49.3218 0.689453 63.5074 14.5913 63.5074 31.6789C63.5074 48.7664 49.3218 62.6683 31.8855 62.6683C14.4492 62.6683 0.263672 48.7664 0.263672 31.6789ZM2.37183 31.6795C2.37183 47.6277 15.6119 60.603 31.8856 60.603C48.1592 60.603 61.3993 47.6277 61.3993 31.6795C61.3993 15.7314 48.1592 2.75609 31.8856 2.75609C15.6119 2.75609 2.37183 15.7314 2.37183 31.6795Z" fill="white"/>
<path d="M31.8855 0.437232C14.3148 0.437232 0.0114508 14.4472 0.0114508 31.6789H0.515893C0.515893 14.7354 14.5837 0.941674 31.8855 0.941674V0.437232ZM63.7596 31.6789C63.7596 14.4472 49.4563 0.437232 31.8855 0.437232V0.941674C49.1874 0.941674 63.2552 14.7354 63.2552 31.6789H63.7596ZM31.8855 62.9205C49.4563 62.9205 63.7596 48.9105 63.7596 31.6789H63.2552C63.2552 48.6224 49.1874 62.4161 31.8855 62.4161V62.9205ZM0.0114508 31.6789C0.0114508 48.9105 14.3148 62.9205 31.8855 62.9205V62.4161C14.5837 62.4161 0.515893 48.6224 0.515893 31.6789H0.0114508ZM31.8856 60.3508C15.7464 60.3508 2.62405 47.4837 2.62405 31.6795H2.11961C2.11961 47.7718 15.4774 60.8552 31.8856 60.8552V60.3508ZM61.1471 31.6795C61.1471 47.4837 48.0248 60.3508 31.8856 60.3508V60.8552C48.2937 60.8552 61.6515 47.7718 61.6515 31.6795H61.1471ZM31.8856 3.00831C48.0248 3.00831 61.1471 15.8754 61.1471 31.6795H61.6515C61.6515 15.5873 48.2937 2.50386 31.8856 2.50386V3.00831ZM2.62405 31.6795C2.62405 15.8754 15.7464 3.00831 31.8856 3.00831V2.50386C15.4774 2.50386 2.11961 15.5873 2.11961 31.6795H2.62405Z" fill="white"/>
<path fill-rule="evenodd" clip-rule="evenodd" d="M32.9399 17.0916V27.5681C34.7529 28.0298 36.1021 29.633 36.1021 31.5533C36.1021 33.8321 34.2111 35.6852 31.8858 35.6852C29.9274 35.6852 28.2904 34.363 27.8192 32.5863H20.2911C19.7093 32.5863 19.2371 32.1245 19.2371 31.5533C19.2371 30.9821 19.7093 30.5203 20.2911 30.5203H27.8192C28.2029 29.0752 29.3571 27.9441 30.8317 27.5681V17.0916C30.8317 16.5203 31.304 16.0586 31.8858 16.0586C32.4676 16.0586 32.9399 16.5203 32.9399 17.0916ZM29.7776 31.5534C29.7776 32.6928 30.7231 33.6194 31.8857 33.6194C33.0483 33.6194 33.9938 32.6928 33.9938 31.5534C33.9938 30.414 33.0483 29.4874 31.8857 29.4874C30.7231 29.4874 29.7776 30.414 29.7776 31.5534Z" fill="white"/>
<path d="M32.9399 27.5681H32.6876V27.7641L32.8776 27.8125L32.9399 27.5681ZM27.8192 32.5863L28.063 32.5216L28.0133 32.3341H27.8192V32.5863ZM27.8192 30.5203V30.7725H28.0132L28.063 30.585L27.8192 30.5203ZM30.8317 27.5681L30.8941 27.8125L31.084 27.764V27.5681H30.8317ZM33.1921 27.5681V17.0916H32.6876V27.5681H33.1921ZM36.3543 31.5533C36.3543 29.5099 34.9192 27.8119 33.0021 27.3236L32.8776 27.8125C34.5866 28.2477 35.8498 29.7561 35.8498 31.5533H36.3543ZM31.8858 35.9374C34.3455 35.9374 36.3543 33.9761 36.3543 31.5533H35.8498C35.8498 33.688 34.0766 35.433 31.8858 35.433V35.9374ZM27.5754 32.6509C28.0755 34.5368 29.8114 35.9374 31.8858 35.9374V35.433C30.0433 35.433 28.5053 34.1893 28.063 32.5216L27.5754 32.6509ZM20.2911 32.8385H27.8192V32.3341H20.2911V32.8385ZM18.9848 31.5533C18.9848 32.2688 19.575 32.8385 20.2911 32.8385V32.3341C19.8436 32.3341 19.4893 31.9803 19.4893 31.5533H18.9848ZM20.2911 30.2681C19.575 30.2681 18.9848 30.8378 18.9848 31.5533H19.4893C19.4893 31.1263 19.8436 30.7725 20.2911 30.7725V30.2681ZM27.8192 30.2681H20.2911V30.7725H27.8192V30.2681ZM30.7694 27.3237C29.2082 27.7218 27.9831 28.9202 27.5755 30.4556L28.063 30.585C28.4227 29.2302 29.506 28.1664 30.8941 27.8125L30.7694 27.3237ZM30.5795 17.0916V27.5681H31.084V17.0916H30.5795ZM31.8858 15.8064C31.1697 15.8064 30.5795 16.3761 30.5795 17.0916H31.084C31.084 16.6646 31.4383 16.3108 31.8858 16.3108V15.8064ZM33.1921 17.0916C33.1921 16.3761 32.602 15.8064 31.8858 15.8064V16.3108C32.3333 16.3108 32.6876 16.6646 32.6876 17.0916H33.1921ZM31.8857 33.3672C30.8576 33.3672 30.0298 32.5487 30.0298 31.5534H29.5254C29.5254 32.8369 30.5886 33.8716 31.8857 33.8716V33.3672ZM33.7416 31.5534C33.7416 32.5487 32.9139 33.3672 31.8857 33.3672V33.8716C33.1828 33.8716 34.2461 32.8369 34.2461 31.5534H33.7416ZM31.8857 29.7397C32.9139 29.7397 33.7416 30.5581 33.7416 31.5534H34.2461C34.2461 30.27 33.1828 29.2352 31.8857 29.2352V29.7397ZM30.0298 31.5534C30.0298 30.5581 30.8576 29.7397 31.8857 29.7397V29.2352C30.5886 29.2352 29.5254 30.27 29.5254 31.5534H30.0298Z" fill="white"/>
<path fill-rule="evenodd" clip-rule="evenodd" d="M31.8856 10.8939C32.4674 10.8939 32.9397 10.4321 32.9397 9.86088V8.8279C32.9397 8.25666 32.4674 7.79492 31.8856 7.79492C31.3038 7.79492 30.8315 8.25666 30.8315 8.8279V9.86088C30.8315 10.4321 31.3038 10.8939 31.8856 10.8939Z" fill="white" stroke="white" stroke-width="0.504442"/>
<path fill-rule="evenodd" clip-rule="evenodd" d="M31.8856 52.4805C31.3038 52.4805 30.8315 52.9422 30.8315 53.5134V54.5464C30.8315 55.1177 31.3038 55.5794 31.8856 55.5794C32.4674 55.5794 32.9397 55.1177 32.9397 54.5464V53.5134C32.9397 52.9422 32.4674 52.4805 31.8856 52.4805Z" fill="white" stroke="white" stroke-width="0.504442"/>
<path fill-rule="evenodd" clip-rule="evenodd" d="M55.0749 30.5195H54.0209C53.439 30.5195 52.9668 30.9813 52.9668 31.5525C52.9668 32.1238 53.439 32.5855 54.0209 32.5855H55.0749C55.6568 32.5855 56.129 32.1238 56.129 31.5525C56.129 30.9813 55.6568 30.5195 55.0749 30.5195Z" fill="white" stroke="white" stroke-width="0.504442"/>
<path fill-rule="evenodd" clip-rule="evenodd" d="M9.75046 30.5195H8.6964C8.11455 30.5195 7.64233 30.9813 7.64233 31.5525C7.64233 32.1238 8.11455 32.5855 8.6964 32.5855H9.75046C10.3323 32.5855 10.8045 32.1238 10.8045 31.5525C10.8045 30.9813 10.3323 30.5195 9.75046 30.5195Z" fill="white" stroke="white" stroke-width="0.504442"/>
<path fill-rule="evenodd" clip-rule="evenodd" d="M47.5372 14.7537L46.792 15.484C46.3799 15.8879 46.3799 16.5408 46.792 16.9447C46.9976 17.1461 47.2674 17.2473 47.5372 17.2473C47.8071 17.2473 48.0769 17.1461 48.2825 16.9447L49.0277 16.2143C49.4398 15.8104 49.4398 15.1576 49.0277 14.7537C48.6155 14.3498 47.9494 14.3508 47.5372 14.7537Z" fill="white" stroke="white" stroke-width="0.504442"/>
<path fill-rule="evenodd" clip-rule="evenodd" d="M15.0577 45.9236L14.3125 46.6539C13.9004 47.0578 13.9004 47.7107 14.3125 48.1146C14.5181 48.316 14.7879 48.4172 15.0577 48.4172C15.3276 48.4172 15.5974 48.316 15.803 48.1146L16.5482 47.3843C16.9603 46.9804 16.9603 46.3275 16.5482 45.9236C16.136 45.5197 15.4688 45.5208 15.0577 45.9236Z" fill="white" stroke="white" stroke-width="0.504442"/>
<path fill-rule="evenodd" clip-rule="evenodd" d="M47.803 45.924C47.3908 45.5201 46.7247 45.5201 46.3125 45.924C45.9004 46.3279 45.9004 46.9808 46.3125 47.3847L47.0577 48.115C47.2633 48.3164 47.5331 48.4176 47.803 48.4176C48.0728 48.4176 48.3426 48.3164 48.5482 48.115C48.9603 47.7111 48.9603 47.0582 48.5482 46.6543L47.803 45.924Z" fill="white" stroke="white" stroke-width="0.504442"/>
<path fill-rule="evenodd" clip-rule="evenodd" d="M16.2336 14.7541C15.8215 14.3502 15.1553 14.3502 14.7432 14.7541C14.331 15.158 14.331 15.8108 14.7432 16.2147L15.4884 16.945C15.6939 17.1465 15.9638 17.2477 16.2336 17.2477C16.5035 17.2477 16.7733 17.1465 16.9789 16.945C17.391 16.5412 17.391 15.8883 16.9789 15.4844L16.2336 14.7541Z" fill="white" stroke="white" stroke-width="0.504442"/>
</svg>
