<svg width="30" height="32" viewBox="0 0 30 32" fill="none" xmlns="http://www.w3.org/2000/svg">
<path d="M13.3877 0.0883011C18.7966 0.760707 23.0565 4.94105 23.8023 10.3197C23.9246 11.1814 23.9246 12.7826 23.8084 13.6201C23.521 15.6491 22.696 17.6171 21.4799 19.188L21.1376 19.634L25.0676 23.5637L29.0034 27.4998L27.1088 29.3945L25.2142 31.2891L21.0214 27.0963L16.8225 22.8974L16.3765 23.0867C15.3315 23.5146 14.1396 23.7959 12.8255 23.9057C9.26228 24.2112 5.47306 22.6832 3.04652 19.9575C1.44533 18.1545 0.442786 15.991 0.088384 13.5645C-0.0645515 12.5195 -0.00324706 10.631 0.210671 9.61021C0.730141 7.14728 1.95267 4.9468 3.73713 3.27217C6.3348 0.827756 9.88584 -0.345601 13.3877 0.0883011ZM11.1326 3.63296C10.2527 3.84081 9.33572 4.556 8.96918 5.31972C7.90566 7.51382 9.4398 10.0195 11.8478 10.0195C13.0885 10.0195 14.2191 9.32893 14.745 8.24114C15.2277 7.25105 15.2217 6.33439 14.7328 5.33792C14.0847 4.01801 12.5627 3.29707 11.1326 3.63296ZM13.6141 14.1089C12.7827 15.924 12.086 17.4521 12.0678 17.5009C12.0311 17.5865 12.3427 17.5986 15.2459 17.5986H18.4608V15.7774C18.4608 14.7752 18.4301 13.7238 18.3998 13.4429C18.2775 12.471 17.7641 11.7133 16.933 11.2794C16.4685 11.0348 15.7536 10.8209 15.3746 10.8209L15.13 10.8149L13.6141 14.1089ZM10.0691 11.8353C10.3258 12.4036 10.8271 13.516 11.1875 14.3167C11.548 15.1175 11.866 15.7468 11.8903 15.7104C11.9085 15.6737 12.4158 14.5552 13.0209 13.2289L14.1086 10.8149H11.86H9.61094L10.0691 11.8353ZM7.67929 10.9368C6.35906 11.273 5.53404 12.0738 5.32619 13.2226C5.28341 13.4365 5.25882 14.4144 5.25882 15.5939V17.5986H8.46759C10.2339 17.5986 11.6764 17.5865 11.6764 17.5744C11.6764 17.5437 8.77315 11.2302 8.64479 10.9921C8.53496 10.7718 8.35169 10.7657 7.67929 10.9368Z" fill="black"/>
<path d="M12.5385 4.63566C13.1803 4.84351 13.657 5.27134 13.9564 5.92523C14.0541 6.13915 14.0848 6.3288 14.0848 6.7809C14.0909 7.31857 14.0787 7.39201 13.8955 7.76493C13.657 8.24768 13.2719 8.6206 12.7892 8.84665C12.4897 8.98713 12.3613 9.01172 11.8601 9.01172C11.3588 9.01172 11.2304 8.98745 10.9309 8.84665C9.6535 8.24768 9.2014 6.65862 9.98364 5.52198C10.5459 4.70271 11.6033 4.33617 12.5385 4.63566Z" fill="black"/>
<path d="M16.2114 12.0005C16.7369 12.2144 17.0243 12.4771 17.2503 12.9417L17.4521 13.3513L17.4703 14.9832L17.4949 16.6211H15.5329C14.4512 16.6211 13.5709 16.6029 13.5709 16.5722C13.5709 16.456 15.7407 11.8539 15.8017 11.8539C15.8324 11.8539 16.022 11.9213 16.2114 12.0005Z" fill="black"/>
<path d="M9.03015 14.14C9.61092 15.3989 10.1058 16.4685 10.124 16.5234C10.1607 16.609 9.97107 16.6211 8.19268 16.6211H6.23102L6.24922 14.9525C6.26742 13.1068 6.292 13.0027 6.71984 12.5078C6.91524 12.2878 7.68534 11.8539 7.88106 11.8539C7.94843 11.8542 8.28431 12.5206 9.03015 14.14Z" fill="black"/>
</svg>
