<svg width="33" height="29" viewBox="0 0 33 29" fill="none" xmlns="http://www.w3.org/2000/svg">
<path d="M1.42969 24.6275V17.1491C1.42969 16.958 1.51915 16.7778 1.67147 16.6622L5.06452 14.0879C5.06452 14.0879 8.50193 16.8456 10.5512 16.8456C12.6005 16.8456 16.6657 14.0879 16.6657 14.0879L19.6792 16.6627C19.8151 16.7788 19.8934 16.9486 19.8934 17.1274V24.0721" stroke="black" stroke-width="1.83369" stroke-linecap="round"/>
<path d="M10.7909 16.1561C14.8925 16.1561 18.2175 12.8393 18.2175 8.74796C18.2175 4.65657 14.8925 1.33984 10.7909 1.33984C6.68926 1.33984 3.36426 4.65657 3.36426 8.74796C3.36426 12.8393 6.68926 16.1561 10.7909 16.1561Z" stroke="black" stroke-width="1.83369"/>
<path d="M9.16283 16.7051L7.93286 25.215C7.93286 25.215 9.16283 27.2736 10.7281 27.2736C12.2934 27.2736 13.5625 25.215 13.5625 25.215L12.042 16.7051H9.16283Z" stroke="black" stroke-width="1.83369"/>
<path d="M28.2195 10.0767V2.82422" stroke="black" stroke-width="1.83369" stroke-linecap="round"/>
<path d="M24.3892 6.70328H31.7673" stroke="black" stroke-width="1.83369" stroke-linecap="round"/>
</svg>
