<svg width="36" height="37" viewBox="0 0 36 37" fill="none" xmlns="http://www.w3.org/2000/svg">
<path fill-rule="evenodd" clip-rule="evenodd" d="M16.6663 0.727205C16.5973 0.738107 16.2121 0.785351 15.8123 0.832597C12.9849 1.18511 10.4047 2.1409 8.07516 3.69632C5.83651 5.18997 3.83044 7.33413 2.50397 9.64546C1.26109 11.8042 0.51608 14.1228 0.25442 16.6412C0.163566 17.4989 0.163566 19.5558 0.25442 20.3844C0.49791 22.6594 1.0285 24.4801 2.00972 26.4499C2.4858 27.402 2.99459 28.2233 3.67054 29.1246C4.65177 30.4366 6.01458 31.8066 7.30834 32.7806C11.2296 35.7352 16.143 36.9017 21.0782 36.0441C22.7717 35.7497 24.4762 35.1719 26.097 34.3433C27.7796 33.482 29.1606 32.4753 30.5343 31.1052C31.2975 30.3421 31.6355 29.9568 32.2206 29.1791C33.9032 26.9405 35.0625 24.2439 35.524 21.4929C35.7167 20.3445 35.7603 19.8102 35.7603 18.5128C35.7603 17.2154 35.7167 16.6812 35.524 15.5328C35.0044 12.4292 33.5979 9.3947 31.6137 7.09427C29.8402 5.03733 27.9504 3.55096 25.7336 2.46797C23.8729 1.56307 21.6088 0.937989 19.5918 0.778084C19.094 0.738109 16.8844 0.701768 16.6663 0.727205ZM24.5888 6.73812C25.3629 6.78537 25.61 6.82171 26.3151 6.99252C27.4635 7.26871 28.5537 7.71935 29.2151 8.19543C29.8257 8.63153 30.2872 9.21663 30.4253 9.73268C30.4907 9.97617 30.4907 10.4486 30.4217 10.6994C30.2109 11.5025 29.455 12.2512 28.292 12.8036C27.3181 13.2687 26.057 13.6067 24.8977 13.7157C24.011 13.7957 22.1757 13.7521 21.209 13.6212C19.4392 13.385 17.6003 12.5419 16.8299 11.6115C15.4162 9.91076 16.7645 7.98828 19.988 7.10518C20.5476 6.95254 21.3217 6.79264 21.7614 6.74176C22.143 6.69815 23.8838 6.69451 24.5888 6.73812ZM30.4398 12.4038C30.4871 12.4983 30.4871 13.0616 30.4362 13.3378C30.3781 13.6649 30.1745 14.0137 29.8366 14.3662C28.5682 15.7 26.1406 16.4595 23.1969 16.4486C22.7427 16.445 22.3792 16.4268 22.3393 16.405C22.2993 16.3868 22.183 16.2524 22.0776 16.107C21.7396 15.6382 21.4562 15.3075 20.9219 14.7587C20.6348 14.4644 20.4059 14.2172 20.4132 14.21C20.4204 14.2027 20.7075 14.2427 21.0455 14.2972C23.5858 14.7151 25.9734 14.4971 28.0667 13.6576C28.8008 13.3632 29.2987 13.0798 30.1636 12.4619C30.3672 12.3129 30.389 12.3093 30.4398 12.4038ZM15.1509 12.7381C17.3714 12.9308 19.5519 14.0864 21.0019 15.8345C22.0304 17.0737 22.7754 18.7236 22.9934 20.2572C23.0734 20.7987 23.0625 22.5795 22.9789 23.001C22.3138 26.3481 20.0606 28.9175 16.888 29.9387C15.8741 30.2657 15.2417 30.3457 13.9952 30.313C13.0576 30.2839 12.7523 30.2476 12.1273 30.084C11.5058 29.9241 11.0661 29.7606 10.4555 29.4662C9.57243 29.041 8.84196 28.5395 8.1333 27.8708C6.77049 26.5807 5.8256 24.76 5.52397 22.8557C5.44765 22.3651 5.41494 20.9913 5.46945 20.5262C5.86558 17.1464 8.17691 14.2718 11.3859 13.1597C11.8329 13.0034 12.5452 12.8254 12.9958 12.7563C13.4138 12.6945 14.5403 12.6836 15.1509 12.7381ZM30.4471 15.0131C30.5525 15.2784 30.4616 16.0743 30.2908 16.4159C30.1019 16.7902 29.4913 17.408 28.9898 17.7315C28.2194 18.2294 26.9837 18.6764 25.7881 18.8908C25.0722 19.018 24.6324 19.0616 23.9965 19.0689L23.455 19.0761L23.2442 18.4765C23.1315 18.1458 22.9753 17.7242 22.8989 17.5389C22.8263 17.3535 22.7717 17.1936 22.779 17.1864C22.7863 17.1755 23.0879 17.1537 23.4477 17.1319C25.5083 17.0156 25.9371 16.9647 26.8129 16.7466C27.8269 16.4922 28.6155 16.1506 29.4295 15.6091C29.6948 15.4311 30.0037 15.2021 30.1128 15.1004C30.2218 15.0022 30.3344 14.9186 30.3599 14.915C30.3853 14.915 30.4217 14.9586 30.4471 15.0131ZM30.4725 17.9059C30.5707 18.611 30.3163 19.2215 29.6767 19.8357C28.6119 20.8532 26.4386 21.6128 24.2545 21.7327L23.7929 21.7582L23.7748 21.6346C23.7639 21.5655 23.7384 21.2239 23.7166 20.875C23.6948 20.5262 23.6694 20.1409 23.6585 20.021L23.6367 19.7993L24.3199 19.7557C25.4247 19.683 26.3187 19.5377 27.1764 19.2906C28.3684 18.9489 29.1824 18.531 30.0001 17.8441C30.2799 17.6079 30.3853 17.5389 30.4071 17.5752C30.4217 17.6007 30.4507 17.7497 30.4725 17.9059Z" fill="black"/>
<path fill-rule="evenodd" clip-rule="evenodd" d="M13.8826 15.5443C13.8099 15.6098 13.7772 15.6788 13.7554 15.8278C13.7408 15.9368 13.7263 17.147 13.7263 18.5207L13.7227 21.0174L11.0806 21.0283C8.18054 21.0392 8.2714 21.0319 8.09696 21.2573C7.97703 21.4099 7.98793 21.6752 8.11876 21.8242C8.22052 21.9368 8.23142 21.9405 8.65662 21.9696C9.21265 22.0059 13.3883 22.0059 13.9407 21.9696C14.3986 21.9368 14.4967 21.9005 14.5621 21.7297C14.6566 21.4862 14.6348 15.8642 14.5403 15.6316C14.4677 15.4535 14.0534 15.399 13.8826 15.5443Z" fill="black"/>
</svg>
