<svg width="24" height="21" viewBox="0 0 24 21" fill="none" xmlns="http://www.w3.org/2000/svg">
<path fill-rule="evenodd" clip-rule="evenodd" d="M18.4425 14.9724H22.7024C22.826 14.9724 22.9484 14.9461 23.0626 14.895C23.1767 14.844 23.2805 14.7691 23.3679 14.6747C23.4552 14.5803 23.5245 14.4683 23.5718 14.345C23.619 14.2217 23.6433 14.0895 23.6433 13.9561V1.69549C23.6425 1.42633 23.5432 1.16843 23.3669 0.978102C23.1906 0.787777 22.9517 0.680495 22.7024 0.679688H0.944284C0.820688 0.679687 0.698303 0.705979 0.584121 0.75706C0.469939 0.808141 0.366198 0.88301 0.278824 0.97739C0.19145 1.07177 0.122157 1.18381 0.0749015 1.30711C0.0276464 1.43042 0.00335598 1.56256 0.00341809 1.696V13.9566C0.00341809 14.513 0.42468 14.9724 0.944284 14.9724H5.20418C5.46706 14.9724 5.67698 14.7442 5.67698 14.463V10.8878C5.67692 10.8208 5.66464 10.7545 5.64085 10.6927C5.61705 10.6308 5.58221 10.5746 5.53831 10.5273C5.4944 10.48 5.4423 10.4425 5.38497 10.4169C5.32764 10.3914 5.26621 10.3783 5.20418 10.3783H4.73139C4.20895 10.3783 3.78579 9.92555 3.78579 9.35742V6.29469C3.78579 5.73064 4.20753 5.27378 4.73139 5.27378H18.9153C19.4377 5.27378 19.8609 5.72655 19.8609 6.29469V9.35742C19.8609 9.92147 19.4392 10.3783 18.9153 10.3783H18.4425C18.1796 10.3783 17.9697 10.6065 17.9697 10.8878V14.463C17.9697 14.7448 18.1815 14.9724 18.4425 14.9724ZM6.62258 5.27378H17.0241V19.5706C17.0241 20.1321 16.6033 20.5874 16.0828 20.5874H7.56344C7.04337 20.5874 6.6221 20.129 6.6221 19.5706V5.27378H6.62258ZM11.8233 13.9515C11.071 13.9515 10.3494 13.6288 9.81743 13.0545C9.28543 12.4801 8.98656 11.7011 8.98656 10.8888C8.98656 10.0765 9.28543 9.29748 9.81743 8.7231C10.3494 8.14873 11.071 7.82605 11.8233 7.82605C12.5757 7.82605 13.2973 8.14873 13.8293 8.7231C14.3612 9.29748 14.6601 10.0765 14.6601 10.8888C14.6601 11.7011 14.3612 12.4801 13.8293 13.0545C13.2973 13.6288 12.5757 13.9515 11.8233 13.9515ZM11.8233 12.9306C12.3249 12.9306 12.8059 12.7155 13.1606 12.3326C13.5153 11.9496 13.7145 11.4303 13.7145 10.8888C13.7145 10.3473 13.5153 9.82791 13.1606 9.445C12.8059 9.06208 12.3249 8.84696 11.8233 8.84696C11.3218 8.84696 10.8407 9.06208 10.4861 9.445C10.1314 9.82791 9.93215 10.3473 9.93215 10.8888C9.93215 11.4303 10.1314 11.9496 10.4861 12.3326C10.8407 12.7155 11.3218 12.9306 11.8233 12.9306Z" fill="white"/>
</svg>
