<svg width="23" height="22" viewBox="0 0 23 22" fill="none" xmlns="http://www.w3.org/2000/svg">
<path fill-rule="evenodd" clip-rule="evenodd" d="M0.927625 21.8757L2.78555 16.3036C1.82651 14.6909 1.27442 12.8089 1.27442 10.7966C1.27442 4.83384 6.10942 0 12.0736 0C18.0378 0 22.8728 4.83384 22.8728 10.7966C22.8728 16.7593 18.0378 21.5932 12.0736 21.5932C10.259 21.5932 8.55003 21.1435 7.04914 20.3533L0.993728 21.9461C0.964383 21.9539 0.934334 21.9363 0.926613 21.907C0.923896 21.8967 0.924247 21.8858 0.927625 21.8757ZM18.9635 14.3898C18.4648 13.4476 16.6259 12.3702 16.6259 12.3702C16.2099 12.1331 15.7078 12.1066 15.4706 12.5293C15.4706 12.5293 14.873 13.2457 14.7211 13.3487C14.0269 13.8189 13.3839 13.8007 12.7348 13.1517L11.2263 11.6436L9.71786 10.1355C9.06877 9.4866 9.05059 8.84372 9.52082 8.14971C9.62389 7.9978 10.3404 7.40039 10.3404 7.40039C10.7633 7.16287 10.7368 6.6613 10.4996 6.24535C10.4996 6.24535 9.42193 4.4069 8.47956 3.90836C8.07866 3.69622 7.58645 3.77047 7.26588 4.09096L6.59974 4.75694C4.48651 6.86966 5.52702 9.25475 7.64025 11.3675L9.5716 13.2984L11.5029 15.2292C13.6162 17.342 16.0018 18.3822 18.1151 16.2695L18.7812 15.6035C19.1018 15.2823 19.1757 14.7902 18.9635 14.3898Z" fill="black"/>
</svg>
