<svg width="15" height="25" viewBox="0 0 15 25" fill="none" xmlns="http://www.w3.org/2000/svg">
<rect width="11.4168" height="14.5426" transform="matrix(-1 0 0 1 12.0508 5.92383)" fill="black"/>
<path fill-rule="evenodd" clip-rule="evenodd" d="M12.5882 25.0006H2.37576C1.13928 24.9992 0.137275 24.0038 0.135865 22.7754V2.48693C0.137275 1.25856 1.13928 0.263119 2.37576 0.261719H12.5882C13.8247 0.263119 14.8267 1.25856 14.8281 2.48693V22.7754C14.8267 24.0038 13.8247 24.9992 12.5882 25.0006ZM13.8334 2.4878C13.832 1.80516 13.2753 1.25213 12.5882 1.25073H2.37568C1.68854 1.25213 1.13185 1.80516 1.13045 2.4878V22.7763C1.13185 23.4589 1.68854 24.012 2.37568 24.0134H12.5882C13.2753 24.012 13.832 23.4589 13.8334 22.7763V2.4878Z" fill="black"/>
</svg>
