<svg width="22" height="19" viewBox="0 0 22 19" fill="none" xmlns="http://www.w3.org/2000/svg">
<path d="M20.2577 17.5186V3.47198L14.4711 0V17.5208H13.4108V9.47906C13.4108 8.62594 12.7208 7.93596 11.8677 7.93596H8.2017V16.6853H7.81593V4.86077C7.5536 4.38021 7.05099 4.04954 6.46461 4.04954H3.08962C2.23651 4.04954 1.54652 4.73953 1.54652 5.59264V17.5208H0.00341797V19H21.6069V17.5208L20.2577 17.5186ZM17.7491 3.88862H19.4862V5.62571H17.7491V3.88862ZM17.7491 6.94396H19.4862V8.68105H17.7491V6.94396ZM17.7491 10.061H19.4862V11.7981H17.7491V10.061ZM17.7491 13.1164H19.4862V14.8535H17.7491V13.1164ZM15.2427 3.88862H16.9775V5.62571H15.2405V3.88862H15.2427ZM15.2427 6.94396H16.9775V8.68105H15.2405V6.94396H15.2427ZM15.2427 10.061H16.9775V11.7981H15.2405V10.061H15.2427ZM15.2427 13.1164H16.9775V14.8535H15.2405V13.1164H15.2427ZM5.14636 5.78222H6.68946V7.32533H5.14636V5.78222ZM5.14636 8.54658H6.68946V10.0897H5.14636V8.54658ZM5.14636 11.3484H6.68946V12.8915H5.14636V11.3484ZM5.14636 14.1128H6.68946V15.6559H5.14636V14.1128ZM2.57599 5.78222H4.11909V7.32533H2.57599V5.78222V5.78222ZM2.57599 8.54658H4.11909V10.0897H2.57599V8.54658V8.54658ZM2.57599 11.3484H4.11909V12.8915H2.57599V11.3484V11.3484ZM2.57599 14.1128H4.11909V15.6559H2.57599V14.1128V14.1128Z" fill="white"/>
</svg>
