<svg width="16" height="16" viewBox="0 0 16 16" fill="none" xmlns="http://www.w3.org/2000/svg">
<path fill-rule="evenodd" clip-rule="evenodd" d="M7.76585 8.46888C9.68822 8.46888 11.2468 6.62682 11.2468 4.35454C11.2468 1.20351 9.6883 0.240234 7.76585 0.240234C5.84333 0.240234 4.28491 1.20351 4.28491 4.35454C4.28495 6.62682 5.84337 8.46888 7.76585 8.46888Z" fill="white"/>
<path fill-rule="evenodd" clip-rule="evenodd" d="M15.4527 14.5249L13.6965 10.5299C13.6162 10.3471 13.4751 10.1954 13.2994 10.1031L10.5739 8.67038C10.5138 8.63884 10.4411 8.64497 10.387 8.68628C9.61617 9.27505 8.70981 9.58626 7.76604 9.58626C6.82212 9.58626 5.91584 9.27505 5.14498 8.68628C5.09079 8.64497 5.01802 8.63884 4.95792 8.67038L2.23262 10.1031C2.05691 10.1954 1.91595 10.347 1.83554 10.5299L0.0793655 14.5249C-0.0417123 14.8003 -0.0168973 15.1154 0.145767 15.368C0.308355 15.6206 0.583521 15.7713 0.881871 15.7713H14.6501C14.9484 15.7713 15.2237 15.6205 15.3863 15.368C15.5489 15.1154 15.5738 14.8002 15.4527 14.5249Z" fill="white"/>
</svg>
