<svg width="20" height="19" viewBox="0 0 20 19" fill="none" xmlns="http://www.w3.org/2000/svg">
<path d="M8.82196 0.0111561C8.31488 0.0592461 7.62009 0.172878 7.15665 0.29097C4.45119 0.964037 2.09109 2.90451 0.906679 5.42653C0.334058 6.6503 0.054437 7.8128 0.00634691 9.1634C-0.0504692 10.8417 0.272975 12.3147 1.02477 13.7963C1.62357 14.9765 2.40154 15.9511 3.42423 16.8078C6.2695 19.1941 10.3387 19.6792 13.6692 18.0316C18.407 15.6889 20.3475 10.0156 18.018 5.31289C17.0826 3.42904 15.6577 1.978 13.8045 1.03385C12.8867 0.56613 11.8815 0.247147 10.8763 0.0941505C10.4173 0.0286083 9.19349 -0.0237484 8.82196 0.0111561ZM12.0126 3.41159C12.6944 3.55586 13.2276 3.83548 13.726 4.30319C15.0766 5.57506 15.3126 7.49808 14.3073 9.0104C13.8047 9.76666 13.0574 10.2955 12.1658 10.527C11.8511 10.61 11.65 10.6187 10.1027 10.6362L8.38508 10.6581V11.2001V11.742H10.1466H11.9079L12.1351 11.8557C12.7207 12.1485 12.7382 12.9396 12.1658 13.2937L11.956 13.4248L10.1683 13.438L8.38508 13.4512V14.216C8.38508 15.0727 8.3589 15.1818 8.10972 15.4004C7.67691 15.7806 7.08257 15.6757 6.8334 15.1774C6.72849 14.972 6.72403 14.9195 6.72403 14.207V13.4597L6.27823 13.4378C5.80625 13.4159 5.69261 13.381 5.48707 13.1886C5.05445 12.7909 5.15936 12.1221 5.69242 11.8512C5.88032 11.7595 5.97223 11.742 6.3174 11.742H6.72384V11.2001V10.6625L6.30014 10.6363C5.81943 10.6102 5.66643 10.5663 5.48726 10.3959C5.29917 10.2212 5.23362 10.055 5.23362 9.79283C5.23362 9.45194 5.38216 9.20722 5.68389 9.05849C5.88051 8.96231 5.96797 8.94486 6.31759 8.94486H6.72403V6.49731C6.72403 4.38619 6.73276 4.02357 6.78957 3.88357C6.88129 3.6693 7.01684 3.52949 7.22665 3.43331C7.38837 3.35904 7.55436 3.35031 9.56503 3.35031C11.2389 3.35031 11.794 3.3635 12.0126 3.41159Z" fill="white"/>
<path d="M8.4154 5.03799C8.39795 5.05544 8.38477 5.94278 8.38477 7.0091V8.94531H9.97562C11.4486 8.94531 11.5884 8.93659 11.8507 8.85786C12.3665 8.69614 12.8517 8.23288 13.0658 7.6909C13.2101 7.33255 13.2101 6.6333 13.0658 6.2705C12.8692 5.76361 12.4408 5.33953 11.9337 5.13844C11.6933 5.03799 11.6322 5.03799 10.0675 5.02054C9.17592 5.01162 8.43286 5.02054 8.4154 5.03799Z" fill="white"/>
</svg>
