<svg width="26" height="25" viewBox="0 0 26 25" fill="none" xmlns="http://www.w3.org/2000/svg">
<g clip-path="url(#clip0)">
<path d="M11.0034 0C4.92872 0 0.00341797 4.92531 0.00341797 11C0.00341797 17.0747 4.92872 22 11.0034 22C17.0781 22 22.0034 17.0747 22.0034 11C22.0034 4.92531 17.0781 0 11.0034 0ZM13.9824 16.3765H12.6848V12.6657C12.6848 11.8576 12.3908 11.4535 11.8004 11.4535C11.5332 11.4535 11.2436 11.5388 10.9293 11.7094C10.624 11.88 10.3928 12.091 10.2312 12.338C10.2402 12.4816 10.2446 12.6096 10.2446 12.7241V16.3788H8.94485V12.7241C8.94485 11.8778 8.64627 11.4535 8.04689 11.4535C7.78872 11.4535 7.51934 11.5388 7.23423 11.7094C6.94913 11.871 6.72464 12.0708 6.56301 12.3088V16.3765H5.26546V10.2973H6.56301V10.8114C7.07709 10.4208 7.57097 10.2255 8.04689 10.2255C8.84607 10.2255 9.44546 10.5398 9.84505 11.1684C10.4826 10.5398 11.1336 10.2255 11.8004 10.2255C12.5434 10.2255 13.1046 10.4724 13.484 10.9686C13.8163 11.4063 13.9824 11.9922 13.9824 12.7241V16.3765ZM17.2914 10.0998V10.7665H14.2944C14.4022 10.2794 14.5863 9.84388 14.8467 9.45551C15.0532 9.15469 15.3563 8.81571 15.7559 8.43857C16.0208 8.19612 16.2048 8.00082 16.3148 7.85714C16.481 7.61918 16.564 7.37673 16.564 7.12755C16.564 6.75041 16.3059 6.55959 15.7873 6.55959C15.2799 6.55959 15.0083 6.92775 14.9724 7.66184L14.3034 7.40592C14.3506 6.93898 14.4942 6.57306 14.7389 6.30367C14.9971 6.01408 15.3473 5.86816 15.7873 5.86816C16.2161 5.86816 16.564 5.96694 16.8267 6.16224C17.1432 6.38449 17.3004 6.70551 17.3004 7.12531C17.3004 7.45531 17.1836 7.78755 16.9502 8.1198C16.7997 8.33306 16.5618 8.59122 16.2363 8.89653C15.6885 9.4151 15.3495 9.81469 15.2193 10.0998H17.2914Z" fill="white"/>
</g>
<defs>
<clipPath id="clip0">
<rect width="25" height="25" fill="white" transform="translate(0.00341797)"/>
</clipPath>
</defs>
</svg>
