<svg width="80" height="60" viewBox="0 0 80 60" fill="none" xmlns="http://www.w3.org/2000/svg">
<path d="M42.4472 0.26116C40.9155 0.580189 39.2243 1.47379 38.1549 2.52691C36.0487 4.60141 35.2666 7.12271 35.2666 11.7812C35.2666 17.3503 36.8626 21.4188 39.7981 23.3655C41.2345 24.3071 42.8297 24.7539 44.8244 24.7539C48.2711 24.7539 50.6166 23.5413 52.3395 20.8922C54.047 18.2431 54.8763 13.6799 54.4295 9.29243C54.0942 6.05331 53.1851 3.97882 51.3181 2.28764C49.1964 0.340918 45.7335 -0.457468 42.4472 0.26116Z" fill="#949494"/>
<path d="M14.2207 10.3128C11.636 10.9988 9.72097 13.1214 9.11466 15.9609C8.79563 17.3973 8.71587 20.0936 8.9234 21.801C9.29045 24.7529 10.2158 26.8274 11.8117 28.2956C13.0879 29.4764 14.1255 29.8752 16.2155 29.9713C18.7848 30.0828 20.3319 29.4927 21.8481 27.8333C23.1723 26.3814 23.8909 24.5624 24.2734 21.7221C24.4809 20.2222 24.3849 17.3664 24.0821 15.9617C23.4758 13.0896 21.5608 10.9997 18.9126 10.2973C17.7309 9.99374 15.3691 9.99374 14.2207 10.3128Z" fill="#949494"/>
<path d="M43.9626 27.7526C42.7337 28.0716 42.2869 28.6145 42.2869 29.7628C42.2869 30.6084 42.6376 31.5183 43.4198 32.7309L43.8828 33.465L42.846 36.4014C42.2714 38.0128 41.7611 39.4492 41.7131 39.5762C41.6016 39.8635 41.25 38.8746 39.2561 32.5079C38.426 29.9069 37.6927 27.7689 37.5967 27.7689C37.0066 27.7689 28.4539 32.6357 27.273 33.6408L26.6187 34.1991L24.5759 33.1305C23.443 32.5405 22.486 32.1254 22.4534 32.1889C22.4054 32.2532 21.7193 34.3912 20.9055 36.9434C20.1079 39.4801 19.3893 41.6189 19.3258 41.6987C19.2623 41.7622 18.8155 40.6773 18.3362 39.3052L17.4588 36.7839L17.9691 35.9065C19.4373 33.4333 18.831 31.9968 16.3731 32.1091C15.3835 32.1571 15.2403 32.2206 14.8252 32.6837C14.5697 32.971 14.3621 33.3698 14.3621 33.5773C14.3621 34.1201 14.7772 35.205 15.3038 36.0506L15.7506 36.7847L14.857 39.2897C14.3621 40.6781 13.9316 41.811 13.8836 41.811C13.8356 41.811 13.1658 39.7845 12.3837 37.2958C11.6016 34.8225 10.9155 32.6365 10.8357 32.429L10.6925 32.0782L9.22431 32.8123C5.74755 34.5499 2.50844 36.5438 1.63111 37.4854C0.210949 39.0016 0.00341797 40.0865 0.00341797 46.2294V51.0645H16.7255H33.4314L37.7399 46.7405C40.1172 44.3632 42.3349 42.257 42.6865 42.0495C44.0904 41.2356 46.0371 41.2039 47.585 41.986C48.0155 42.1935 49.7873 43.8367 52.228 46.2465L56.1695 50.1717L60.7173 45.6402L65.2651 41.0924V39.8163C65.2488 36.2581 64.0044 34.3431 60.2387 32.0619C57.0631 30.1469 52.2606 27.6102 52.1328 27.7697C52.1011 27.8177 51.2709 30.4342 50.2821 33.5936C49.277 36.7529 48.4151 39.4338 48.3517 39.5615C48.2239 39.8008 48.1922 39.721 46.8517 35.9236L45.9744 33.4503L46.2934 33.0198C46.8998 32.158 47.6021 30.435 47.6176 29.7807C47.6339 28.9831 47.2668 28.3605 46.5807 27.9935C46.0053 27.7046 44.6487 27.5768 43.9626 27.7526Z" fill="#949494"/>
<path d="M74.1359 34.5502C70.4817 34.7414 70.3067 34.7577 70.0194 35.1085C69.8599 35.2997 69.7321 35.539 69.7321 35.6187C69.7321 35.7148 70.3385 36.4163 71.0888 37.1667C71.8384 37.9325 72.4455 38.6349 72.4455 38.7146C72.4455 38.7944 68.7913 42.5283 64.3078 46.9955L56.1702 55.1332L51.0958 50.0588C45.6064 44.5694 45.4949 44.4897 44.4264 45.0488C44.1708 45.1929 41.7618 47.5058 39.0647 50.2184L34.1499 55.1487V55.8665C34.1499 57.3029 35.6978 58.4195 36.8787 57.8612C37.1815 57.718 39.1762 55.851 41.3305 53.6967L45.2394 49.7878L50.3455 54.8939L55.467 60H56.1694H56.8872L66.1414 50.7457L75.3957 41.4915L76.7524 42.8482C77.7738 43.8695 78.2043 44.2048 78.5233 44.2048C79.3852 44.2048 79.3852 44.2048 79.7042 37.3116C79.8002 35.0775 79.8002 34.966 79.4804 34.647C79.2411 34.4077 78.9701 34.3117 78.5551 34.328C78.2206 34.3426 76.2258 34.4379 74.1359 34.5502Z" fill="#949494"/>
</svg>
