<svg width="58" height="62" viewBox="0 0 58 62" fill="none" xmlns="http://www.w3.org/2000/svg">
<path fill-rule="evenodd" clip-rule="evenodd" d="M32.4961 0.0374903C28.4885 0.551781 25.7909 1.43481 22.8313 3.20086C20.289 4.71461 17.6302 7.14051 16.1552 9.28502L15.6895 9.95457L16 10.4009C16.1649 10.6532 16.4366 11.1384 16.6016 11.478C16.7568 11.8274 16.9024 12.1088 16.9218 12.1088C16.9315 12.1088 17.1644 11.7691 17.4361 11.3519C19.6582 7.95563 23.2583 5.06395 27.0621 3.5987C31.5742 1.87146 36.6395 1.76472 41.1323 3.2979C49.7297 6.22839 55.3966 14.4667 55.0667 23.559C54.9599 26.6059 54.4553 28.7893 53.3103 31.1957L52.8833 32.0982H38.0174H23.1515L23.2097 33.0394C23.2486 33.5634 23.2777 34.1262 23.2777 34.2912C23.2777 34.5629 23.3359 34.6211 23.8987 34.9025C24.5682 35.2518 25.1893 35.7855 25.3348 36.164C25.5774 36.8044 24.9855 37.8427 23.8211 38.784C23.4717 39.0751 23.1806 39.3371 23.1806 39.3662C23.1806 39.3953 23.1321 39.7252 23.0836 40.0842C22.9672 40.8411 22.8022 41.2293 22.3752 41.6756C22.2103 41.8503 22.0938 42.0056 22.1229 42.0347C22.3073 42.2093 23.4523 42.8595 24.3062 43.2961C26.8874 44.5867 29.1192 45.2271 32.2923 45.5862C33.5829 45.7414 36.6492 45.6638 38.0271 45.4406C45.9938 44.1889 52.6311 38.8713 55.7168 31.2734C58.7831 23.7434 57.4149 14.8452 52.2138 8.4311C48.6526 4.03536 43.7231 1.18251 38.1242 0.260663C36.95 0.0665914 33.3791 -0.069259 32.4961 0.0374903Z" fill="#949494"/>
<path fill-rule="evenodd" clip-rule="evenodd" d="M39.347 5.07321C39.085 6.61608 38.7648 7.34385 38.1826 7.79021C37.775 8.10073 36.8726 8.41124 36.1642 8.48887C35.5626 8.54709 35.3879 8.71205 35.9216 8.71205C36.4068 8.71205 37.7071 9.07109 38.0953 9.30397C38.7066 9.68241 39.1141 10.546 39.347 11.9628C39.4052 12.3412 39.4149 12.3218 39.5799 11.5164C39.9195 9.84738 40.3853 9.27486 41.6759 8.92553C42.1028 8.80909 42.5686 8.71205 42.7142 8.71205C42.8597 8.71205 42.9762 8.66354 42.9762 8.61502C42.9762 8.5568 42.8597 8.51798 42.7142 8.51798C42.5589 8.51798 42.229 8.45976 41.9573 8.38213C40.4144 7.96488 39.871 7.30503 39.5508 5.43224C39.4149 4.70447 39.4149 4.69477 39.347 5.07321Z" fill="#949494"/>
<path fill-rule="evenodd" clip-rule="evenodd" d="M9.98398 9.10951C9.2368 9.25506 8.19852 9.83728 7.58719 10.4486C6.59742 11.4384 6.10254 12.6319 6.10254 14.0292C6.10254 15.8632 7.0632 17.4837 8.72251 18.4347C10.0228 19.1818 12.0217 19.1818 13.4191 18.4347C14.2245 18.0077 15.1657 16.9985 15.583 16.1252C15.9129 15.4265 15.942 15.3004 15.9808 14.2815C16.0196 13.3694 15.9905 13.0783 15.8158 12.5155C15.1851 10.4389 13.1862 8.97366 11.0223 9.01247C10.6923 9.02218 10.2266 9.06099 9.98398 9.10951Z" fill="#949494"/>
<path fill-rule="evenodd" clip-rule="evenodd" d="M23.4521 11.7106C23.1416 13.4573 22.4817 14.0298 20.3178 14.3985L19.9297 14.4664L20.3178 14.5538C22.0063 14.9322 22.4914 15.1845 22.9281 15.8832C23.1998 16.3004 23.423 17.0476 23.52 17.8045C23.5879 18.3479 23.7626 18.5128 23.7626 18.0277C23.7626 17.0476 24.3254 15.757 24.9464 15.3106C25.3346 15.0292 26.1109 14.7575 27.0618 14.5635L27.4985 14.4664L27.0133 14.3985C25.616 14.1947 24.7815 13.7678 24.306 13.0303C24.0634 12.6325 23.7626 11.6039 23.7626 11.109C23.7626 10.5656 23.5976 10.8761 23.4521 11.7106Z" fill="#949494"/>
<path fill-rule="evenodd" clip-rule="evenodd" d="M31.7393 12.7588C31.3512 13.6224 29.8859 17.2225 29.818 17.4845L29.7598 17.7367H34.5145C37.2898 17.7367 39.2984 17.6979 39.3275 17.6494C39.3857 17.5621 37.4062 12.6715 37.2218 12.4192C37.1539 12.3318 36.4941 12.3027 34.5339 12.3027H31.9431L31.7393 12.7588ZM34.7183 12.8364C34.6892 12.8558 34.2137 12.9723 33.6606 13.0887C33.0978 13.2149 32.6029 13.3701 32.535 13.4575C32.4574 13.5448 32.1857 13.9135 31.914 14.292C31.652 14.6607 31.4288 14.9324 31.4288 14.8839C31.4288 14.8451 31.5549 14.5152 31.7102 14.1658C31.8654 13.8068 32.0595 13.3507 32.1469 13.1469L32.2924 12.7879H33.5248C34.204 12.7879 34.7377 12.8073 34.7183 12.8364Z" fill="#949494"/>
<path fill-rule="evenodd" clip-rule="evenodd" d="M49.254 15.64C49.0502 17.6486 48.2837 18.4443 46.2556 18.7452C45.3823 18.881 45.3726 18.8713 46.7893 19.143C47.8082 19.3468 48.3904 19.6864 48.7397 20.2783C49.0114 20.7441 49.2831 21.6853 49.2831 22.1705C49.2831 22.6751 49.4481 22.5393 49.5063 21.9765C49.5936 21.2875 49.9042 20.4045 50.205 20.0066C50.5058 19.6088 51.2821 19.2303 52.0972 19.0848C53.1064 18.9101 53.1937 18.8422 52.5144 18.7646C51.2336 18.619 50.3699 18.1435 49.9624 17.3478C49.778 16.9791 49.4772 15.7564 49.4772 15.3683C49.4772 14.9025 49.3122 15.116 49.254 15.64Z" fill="#949494"/>
<path fill-rule="evenodd" clip-rule="evenodd" d="M26.4509 18.8726C26.2956 19.1249 24.3452 23.9282 24.3452 24.0543C24.3452 24.1029 26.3053 24.1417 29.197 24.1417C31.8655 24.1417 34.0488 24.132 34.0488 24.1126C34.0488 24.1029 33.6122 23.016 33.0687 21.7158C32.5351 20.4058 32.0499 19.2219 31.9916 19.0667L31.8946 18.8047H29.197C27.7027 18.8047 26.4703 18.8338 26.4509 18.8726ZM28.2364 19.5713L27.1301 19.8333L26.5965 20.5901C26.3053 20.9977 26.053 21.3179 26.0336 21.2985C25.9948 21.2694 26.5673 19.8624 26.7711 19.4839C26.8682 19.3093 26.9749 19.2899 28.1102 19.2996L29.3426 19.3093L28.2364 19.5713Z" fill="#949494"/>
<path fill-rule="evenodd" clip-rule="evenodd" d="M37.1443 19.0667C37.0957 19.2122 36.7949 19.94 36.4844 20.6872C36.1739 21.4441 35.8925 22.1233 35.8634 22.2009C35.8343 22.2786 35.6499 22.7152 35.4655 23.1713C35.2715 23.6177 35.1162 24.0252 35.1162 24.064C35.1162 24.1029 37.2801 24.1417 39.9195 24.1417C42.5589 24.1417 44.7228 24.1126 44.7228 24.064C44.7228 23.9961 44.3152 22.9966 43.6166 21.3276C43.4904 21.0365 43.209 20.3476 42.9761 19.7945L42.5686 18.8047H39.9098H37.251L37.1443 19.0667ZM39.1917 19.5422C38.6871 19.6683 38.202 19.775 38.1146 19.775C38.037 19.775 37.7071 20.1438 37.3966 20.5999C37.086 21.0559 36.824 21.4247 36.8046 21.4247C36.7658 21.4247 36.9793 20.8424 37.1928 20.3282C37.2801 20.1341 37.416 19.8139 37.4839 19.6295L37.6294 19.2899L38.8715 19.2996L40.1136 19.3093L39.1917 19.5422Z" fill="#949494"/>
<path fill-rule="evenodd" clip-rule="evenodd" d="M5.64623 20.4933C3.4047 21.2016 1.68716 23.579 0.833246 27.2082C0.163698 29.9931 -0.0594848 32.6907 0.018144 36.97C0.066662 39.8908 0.0763656 40.0751 0.280141 40.4924C0.580953 41.1134 1.03702 41.4336 1.68716 41.4919C2.34701 41.5501 2.61871 41.4822 2.99715 41.1619C3.60848 40.6476 3.58907 40.7447 3.61818 36.0384C3.63759 32.157 3.65699 31.6233 3.85107 30.323C4.10336 28.7025 4.53032 26.9365 4.83113 26.2766L5.0252 25.84L5.05431 42.7242L5.08342 59.6085L5.30661 60.0937C5.77238 61.1028 6.60689 61.6948 7.66458 61.7724C8.21768 61.8112 8.39235 61.7821 8.89694 61.5492C9.68293 61.1999 9.92552 60.9379 9.78967 60.5885C9.56648 59.9869 9.73145 59.3659 10.3331 58.6284C10.7309 58.1432 10.7309 58.1918 10.4301 56.2607C10.3428 55.7561 10.2263 54.7179 10.1681 53.961C10.042 52.4472 10.139 51.0014 10.4398 50.031C10.5854 49.5847 10.6048 48.8181 10.6339 44.2477L10.6727 38.9786L11.0802 39.0077L11.4878 39.0368L11.5169 43.2967L11.5363 47.5663L12.5358 46.5474C13.0792 45.9846 14.2727 44.9366 15.1752 44.1992C16.0873 43.4714 16.883 42.8213 16.9509 42.763C17.0383 42.6854 17.0674 42.2487 17.048 40.9485L17.0188 39.2406L16.5822 38.9204C14.1563 37.1155 13.6711 36.6012 13.6711 35.8541C13.6711 35.5533 13.739 35.4077 14.001 35.1457C14.3212 34.8255 14.3601 34.8158 15.049 34.8158C15.4372 34.8158 16 34.8837 16.2911 34.9613C16.5822 35.039 16.883 35.1069 16.9509 35.1069C17.0383 35.1069 17.0674 34.1171 17.0674 30.488C17.0674 27.8971 17.1062 25.8982 17.1547 25.9273C17.3197 26.034 17.8437 27.7127 18.0862 28.8966C18.2124 29.5661 18.3676 30.6335 18.4356 31.274C18.552 32.5257 18.6005 36.1355 18.5326 38.6487C18.4841 40.0945 18.5035 40.2304 18.6976 40.6088C18.9984 41.1813 19.4059 41.4433 20.0949 41.4919C20.7838 41.5404 21.1332 41.4142 21.5698 40.9291C21.8027 40.6671 21.9289 40.4148 21.9871 40.0848C22.1229 39.3085 22.0841 32.1958 21.9386 30.8858C21.5892 27.7613 20.8712 25.1607 19.8717 23.4432C19.0275 21.9973 17.9795 21.0464 16.7374 20.5903L16.0873 20.3574L11.0705 20.3671C7.22792 20.3671 5.95675 20.3962 5.64623 20.4933Z" fill="#949494"/>
<path fill-rule="evenodd" clip-rule="evenodd" d="M22.2297 26.149C22.2588 26.2946 22.3946 26.3237 23.1612 26.3528C23.6464 26.3625 24.0539 26.411 24.0539 26.4498C24.0539 26.4886 23.6949 26.5954 23.2679 26.6827C22.8313 26.77 22.4528 26.8671 22.4334 26.8962C22.4043 26.9156 22.4722 27.3522 22.5887 27.8471C22.6954 28.342 22.8507 29.2639 22.9283 29.8849C23.0059 30.5059 23.0933 31.059 23.1321 31.1172C23.1709 31.1852 24.1122 31.224 26.0141 31.224C28.6534 31.224 28.8281 31.2143 28.7796 31.0493C28.7505 30.962 28.5079 30.3798 28.2459 29.7684C27.9839 29.1571 27.5181 28.0606 27.227 27.3425L26.6836 26.0326L24.4421 26.0034C22.3364 25.984 22.2005 25.9937 22.2297 26.149Z" fill="#949494"/>
<path fill-rule="evenodd" clip-rule="evenodd" d="M31.6812 26.489C31.5551 26.7704 31.2251 27.5661 30.9437 28.2647C30.6623 28.9537 30.2839 29.8561 30.1092 30.2637C29.9249 30.6712 29.7793 31.0594 29.7793 31.1176C29.7793 31.1952 31.0893 31.2243 34.5826 31.2243C37.843 31.2243 39.3859 31.1952 39.3859 31.1273C39.3859 31.0691 39.2985 30.8556 39.1918 30.6518C39.0948 30.448 38.8328 29.8464 38.6193 29.3224C38.4058 28.7887 38.0079 27.8378 37.746 27.1973L37.2705 26.0329L34.5826 26.0038L31.9044 25.9844L31.6812 26.489ZM34.5826 26.4599C34.5244 26.4987 34.2235 26.586 33.9033 26.6539C32.671 26.8868 32.6419 26.9062 32.0499 27.731C31.7394 28.158 31.4774 28.4879 31.458 28.4685C31.4386 28.4491 31.623 27.9736 31.8753 27.4011L32.3216 26.3725H33.4958C34.1653 26.3725 34.6311 26.4113 34.5826 26.4599Z" fill="#949494"/>
<path fill-rule="evenodd" clip-rule="evenodd" d="M42.3548 26.0717C42.2868 26.1785 40.841 29.6621 40.841 29.7203C40.841 29.7397 40.7149 30.0405 40.5499 30.3801C40.3946 30.7295 40.2588 31.0594 40.2588 31.1176C40.2588 31.1952 41.6658 31.2243 45.0621 31.2243C47.7985 31.2243 49.8654 31.1855 49.8654 31.137C49.8654 31.0885 49.7295 30.7489 49.5645 30.3898C49.2055 29.5844 49.0697 29.2545 48.3225 27.4399L47.7403 26.0329L45.0718 26.0038C43.5095 25.9941 42.3839 26.0232 42.3548 26.0717ZM45.0621 26.4599C45.0038 26.4987 44.703 26.586 44.3828 26.654C43.1505 26.8868 43.1213 26.9062 42.5294 27.7311C42.2189 28.158 41.9569 28.4879 41.9375 28.4782C41.9181 28.4588 42.1025 27.9833 42.3451 27.4302C42.5877 26.8771 42.7817 26.4114 42.7817 26.4017C42.7817 26.3823 43.3154 26.3725 43.9656 26.3725C44.6351 26.3725 45.1106 26.4114 45.0621 26.4599Z" fill="#949494"/>
<path fill-rule="evenodd" clip-rule="evenodd" d="M22.6664 36.3378C22.5791 37.9874 22.5791 38.9868 22.6761 38.9868C22.8508 38.9868 24.3742 37.5701 24.5877 37.2014C24.9176 36.6483 24.8982 36.3766 24.5198 36.0078C24.1801 35.6876 23.3942 35.251 22.9769 35.1539L22.7246 35.0957L22.6664 36.3378Z" fill="#949494"/>
<path fill-rule="evenodd" clip-rule="evenodd" d="M14.5736 35.398C14.4572 35.4465 14.3116 35.5727 14.2534 35.6794C14.1078 35.9705 14.4184 36.543 15.0006 37.0185C15.6895 37.5813 17.737 39.0854 17.8923 39.1533C18.0184 39.1921 18.0378 38.9689 18.0378 37.6396V36.0773L17.7758 35.9705C17.3003 35.7862 15.3111 35.301 15.0394 35.3107C14.9035 35.3107 14.6901 35.3495 14.5736 35.398Z" fill="#949494"/>
<path fill-rule="evenodd" clip-rule="evenodd" d="M12.9434 60.7927C12.6135 61.1615 12.6329 61.2682 13.1181 61.5108C13.6809 61.8019 14.6609 61.8698 15.1752 61.6467L15.5634 61.4817L14.69 61.1712C14.2146 60.9965 13.6809 60.783 13.5062 60.6957C13.1957 60.5307 13.186 60.5307 12.9434 60.7927Z" fill="#949494"/>
<path fill-rule="evenodd" clip-rule="evenodd" d="M18.8724 42.1032C18.7172 42.2584 18.2029 42.6563 17.7177 42.9765C16.398 43.8595 13.9042 45.9458 12.8853 47.0229C11.7985 48.1776 11.1289 49.245 10.8475 50.3124C10.4788 51.6612 10.5952 54.6887 11.1192 57.4349L11.2745 58.2694L10.7893 58.9001C10.178 59.6958 10.1198 59.9287 10.3624 60.4721C10.5079 60.8117 10.6244 60.9282 10.9737 61.0543C11.5559 61.2775 11.8373 61.1611 12.5069 60.4236L13.0503 59.8317L13.6228 60.1228C14.4476 60.5303 15.4082 60.8602 16.5824 61.1222C17.4945 61.3357 17.8341 61.3551 19.8331 61.3551C21.7738 61.3551 22.2105 61.326 23.1808 61.1319C24.3938 60.8893 25.4903 60.54 26.2277 60.1713L26.6935 59.9287L26.9943 60.3071C27.7124 61.1902 27.8774 61.3066 28.4013 61.3066C28.8186 61.3066 28.935 61.2581 29.2456 60.967C29.5658 60.6759 29.6143 60.5788 29.624 60.1907C29.6337 59.9481 29.5852 59.7152 29.5367 59.6764C29.4784 59.6376 29.197 59.3271 28.9156 58.9971C28.4014 58.3858 28.3916 58.3664 28.5178 58.0753C28.5857 57.9006 28.8186 57.2408 29.0418 56.6004C29.265 55.9599 29.4687 55.4165 29.5076 55.3874C29.5367 55.3583 29.6531 54.9702 29.7502 54.5141C29.9927 53.3691 29.983 51.1178 29.7404 50.2639C29.6434 49.934 29.527 49.6623 29.4882 49.6623C29.4396 49.6623 29.362 49.5264 29.3038 49.3615C29.1 48.7696 28.0714 47.3722 27.2078 46.4989C26.1307 45.4218 25.3738 44.8493 23.763 43.9372C23.0741 43.549 22.1813 42.9474 21.7641 42.5981C21.0363 41.9867 21.0169 41.977 20.5705 42.0353C20.163 42.0838 19.6778 42.0158 19.2994 41.8606C19.212 41.8218 19.0471 41.9091 18.8724 42.1032ZM19.9683 45.0098C19.568 45.0477 19.0195 45.1375 18.6536 45.2307C16.5177 45.7621 14.6545 47.294 13.7194 49.2851C13.2673 50.2512 13.0466 51.169 13.0086 52.2352C12.9638 53.5602 13.2191 54.7231 13.8126 55.8928C14.2854 56.8245 14.8996 57.5939 15.7069 58.2703C17.9532 60.1542 21.1658 60.5372 23.7951 59.2364C27.5355 57.387 29.0674 52.9081 27.2284 49.1954C26.4899 47.7081 25.365 46.5626 23.9019 45.8172C23.1773 45.4479 22.3837 45.1961 21.5901 45.0753C21.2278 45.0236 20.2616 44.9822 19.9683 45.0098ZM22.4872 47.6943C23.0255 47.8082 23.4465 48.029 23.8399 48.3982C24.9062 49.4023 25.0925 50.9205 24.2989 52.1145C23.9021 52.7115 23.3121 53.129 22.6082 53.3118C22.3597 53.3773 22.2009 53.3842 20.9795 53.3979L19.6234 53.4152V53.8431V54.271H21.0141H22.4046L22.584 54.3607C23.0463 54.5919 23.0601 55.2165 22.6082 55.496L22.4425 55.5995L21.0312 55.6099L19.6234 55.6203V56.2241C19.6234 56.9004 19.6027 56.9866 19.406 57.1592C19.0643 57.4594 18.5951 57.3765 18.3984 56.9831C18.3156 56.821 18.312 56.7795 18.312 56.2171V55.6271L17.9601 55.6098C17.5875 55.5925 17.4978 55.5649 17.3355 55.413C16.994 55.0991 17.0768 54.5711 17.4976 54.3572C17.646 54.2848 17.7185 54.271 17.991 54.271H18.3119V53.8431V53.4188L17.9774 53.3981C17.5979 53.3774 17.4771 53.3428 17.3356 53.2083C17.1872 53.0703 17.1354 52.9391 17.1354 52.7322C17.1354 52.463 17.2527 52.2698 17.4909 52.1524C17.6461 52.0765 17.7152 52.0627 17.9912 52.0627H18.312V50.1304C18.312 48.4638 18.3189 48.1775 18.3638 48.067C18.4362 47.8978 18.5432 47.7874 18.7088 47.7115C18.8365 47.6528 18.9676 47.646 20.5549 47.646C21.8764 47.646 22.3147 47.6564 22.4872 47.6943ZM19.6232 50.5336C19.6232 49.6918 19.6337 48.9913 19.6474 48.9775C19.6612 48.9637 20.2478 48.9567 20.9517 48.9637L20.9772 48.964C22.1877 48.9775 22.2365 48.9781 22.4251 49.0568C22.8254 49.2156 23.1636 49.5504 23.3188 49.9505C23.4327 50.237 23.4327 50.789 23.3188 51.0719C23.1498 51.4998 22.7668 51.8655 22.3595 51.9932C22.1524 52.0553 22.042 52.0622 20.8792 52.0622H19.6232V50.5336Z" fill="#949494"/>
</svg>
