<svg width="61" height="61" viewBox="0 0 61 61" fill="none" xmlns="http://www.w3.org/2000/svg">
<path d="M29.787 0.158352C29.3102 0.420385 1.29056 17.0512 0.873548 17.3257C0.110473 17.8136 0.00341797 18.207 0.00341797 20.363C0.00341797 22.257 0.0152437 22.2931 0.301553 22.5788L0.587239 22.877H30.5015H60.4158L60.7015 22.5788C60.9872 22.2931 60.9996 22.257 60.9996 20.363C60.9996 18.0159 60.9162 17.8136 59.7131 17.0748C59.2725 16.801 52.6724 12.8692 45.0361 8.34243C30.2277 -0.460947 30.5731 -0.270489 29.787 0.158352ZM31.6928 9.7248C32.8959 10.0821 33.837 10.9043 34.3972 12.0956C34.6829 12.703 34.7308 12.9651 34.7308 13.8227C34.7308 14.6804 34.6829 14.9425 34.3972 15.5624C33.9684 16.4798 33.158 17.2896 32.2287 17.7184C31.6212 18.0041 31.3592 18.052 30.5015 18.052C29.6438 18.052 29.3818 18.0041 28.7743 17.7184C27.8451 17.2896 27.0347 16.4792 26.6059 15.5624C26.3202 14.9431 26.2723 14.6811 26.2723 13.8227C26.2723 12.9651 26.3202 12.703 26.6059 12.0956C27.5351 10.1175 29.6675 9.11733 31.6928 9.7248Z" fill="#949494"/>
<path d="M6.97245 26.9871L6.67432 27.2727V38.1257V48.9787L6.97245 49.2644L7.25814 49.5625H10.4866H13.715L14.0007 49.2644L14.2988 48.9787V38.1257V27.2727L14.0007 26.9871L13.715 26.6889H10.4866H7.25814L6.97245 26.9871Z" fill="#949494"/>
<path d="M20.3157 26.9871L20.0176 27.2727V38.1257V48.9787L20.3157 49.2644L20.6014 49.5625H23.8298H27.0583L27.344 49.2644L27.6421 48.9787V38.1257V27.2727L27.344 26.9871L27.0583 26.6889H23.8298H20.6014L20.3157 26.9871Z" fill="#949494"/>
<path d="M33.6585 26.9871L33.3604 27.2727V38.1257V48.9787L33.6585 49.2644L33.9442 49.5625H37.1726H40.4011L40.6867 49.2644L40.9849 48.9787V38.1257V27.2727L40.6867 26.9871L40.4011 26.6889H37.1726H33.9442L33.6585 26.9871Z" fill="#949494"/>
<path d="M47.0017 26.9871L46.7036 27.2727V38.1257V48.9787L47.0017 49.2644L47.2874 49.5625H50.5159H53.7443L54.03 49.2644L54.3281 48.9787V38.1257V27.2727L54.03 26.9871L53.7443 26.6889H50.5159H47.2874L47.0017 26.9871Z" fill="#949494"/>
<path d="M0.301553 53.6736L0.00341797 53.9593V57.1877V60.4162L0.301553 60.7019L0.587239 61H30.5015H60.4158L60.7015 60.7019L60.9996 60.4162V57.1877V53.9593L60.7015 53.6736L60.4158 53.3755H30.5015H0.587239L0.301553 53.6736Z" fill="#949494"/>
</svg>
