<svg width="59" height="39" viewBox="0 0 59 39" fill="none" xmlns="http://www.w3.org/2000/svg">
<path fill-rule="evenodd" clip-rule="evenodd" d="M49.2686 16.5246C52.6301 16.5246 55.3551 13.7996 55.3551 10.4382C55.3551 7.07671 52.6301 4.35171 49.2686 4.35171C45.9071 4.35171 43.1821 7.07671 43.1821 10.4382C43.1821 13.7996 45.9071 16.5246 49.2686 16.5246ZM53.336 9.45804H45.2603V11.4176H53.336V9.45804ZM58.1243 0.791666C57.962 0.62934 57.6988 0.629341 57.5365 0.791666L54.5943 3.7339L51.7886 0.928226C51.6262 0.7659 51.3631 0.7659 51.2007 0.928226C51.0384 1.09055 51.0384 1.35373 51.2007 1.51606L54.0064 4.32174L51.0825 7.24564C50.9202 7.40797 50.9202 7.67115 51.0825 7.83348C51.2448 7.9958 51.508 7.9958 51.6703 7.83348L54.5943 4.90957L57.6547 7.97004C57.817 8.13236 58.0802 8.13236 58.2426 7.97004C58.4049 7.80771 58.4049 7.54453 58.2426 7.3822L55.1821 4.32173L58.1243 1.3795C58.2866 1.21717 58.2866 0.953992 58.1243 0.791666Z" fill="white"/>
<path d="M45.7087 21.8172L36.5295 12.6381V6.5835C36.5295 5.82899 35.9185 5.21797 35.164 5.21797C34.4095 5.21797 33.7985 5.82899 33.7985 6.5835V9.90706L27.318 3.42659C26.7857 2.89426 25.9201 2.89426 25.3877 3.42659L15.7689 13.0455C15.2365 13.5778 15.2365 14.4434 15.7689 14.9757C16.3012 15.508 17.1668 15.508 17.6991 14.9757L26.3506 6.32428L43.7784 23.7475C44.0422 24.0113 44.394 24.1456 44.7412 24.1456C45.0884 24.1456 45.4402 24.0113 45.7087 23.7475C46.2456 23.2152 46.2456 22.3496 45.7087 21.8172Z" fill="white"/>
<path d="M41.8016 23.3858L27.3177 8.90199C27.0631 8.6474 26.7159 8.50391 26.3503 8.50391C25.9846 8.50391 25.642 8.6474 25.3828 8.90199L17.9766 16.3082C17.9997 16.3082 18.0229 16.3036 18.046 16.3036C18.4626 16.3036 18.8653 16.424 19.2171 16.6462C19.7679 17.0026 20.129 17.5812 20.1984 18.2339L20.2031 18.2663H20.3095C20.9391 18.2663 21.5362 18.5394 21.9482 19.0115C22.3787 19.5114 22.5592 20.1641 22.4388 20.8122L22.4342 20.8446L22.4666 20.8538C23.1054 21.0158 23.6285 21.451 23.9016 22.0527C24.1747 22.6499 24.1654 23.3349 23.8692 23.9228L23.8553 23.9506L23.883 23.9645C24.2858 24.2005 24.5866 24.557 24.7672 24.9736C25.1653 24.5292 25.7254 24.2283 26.3595 24.1681C27.6047 24.2885 28.5721 25.3392 28.5721 26.5983V31.7873C28.5721 32.6205 28.8869 33.4167 29.4516 34.0277C30.0765 34.6989 30.9606 35.0877 31.8725 35.0877H38.9455C40.7647 35.0877 42.2459 33.6065 42.2459 31.7873V24.719C42.2459 24.5107 42.2228 24.3024 42.1858 24.0941C42.1256 23.8256 41.996 23.5803 41.8016 23.3858Z" fill="white"/>
<path fill-rule="evenodd" clip-rule="evenodd" d="M23.9619 25.5755C23.911 25.219 23.6981 24.8997 23.388 24.7145L22.5825 24.2377L22.9991 23.4045C23.1611 23.0805 23.1658 22.7009 23.0176 22.3723C22.8649 22.0436 22.5779 21.7983 22.2261 21.7103L21.3188 21.4789L21.4855 20.5577C21.5503 20.2013 21.4484 19.8356 21.2124 19.5625C20.9763 19.2894 20.6291 19.1367 20.2634 19.1505L19.3284 19.183L19.2312 18.2572C19.1942 17.8961 18.9951 17.5767 18.6896 17.3777C18.3841 17.1833 18.0092 17.137 17.6666 17.2527L16.7825 17.5489L16.4261 16.6833C16.2872 16.3501 16.0048 16.0955 15.6577 15.9936C15.3105 15.8918 14.9356 15.952 14.6393 16.1603L13.8709 16.6926L13.2923 15.9659C13.0655 15.6835 12.7229 15.5215 12.3619 15.5215C12.0008 15.5215 11.6583 15.6835 11.4315 15.9659L10.8436 16.6926L10.0752 16.1603C9.77896 15.952 9.40402 15.8918 9.05685 15.9936C8.70968 16.0955 8.42732 16.3501 8.28845 16.6833L7.93203 17.5489L7.04791 17.2527C6.70537 17.137 6.3258 17.1833 6.02492 17.3777C5.71941 17.5721 5.52037 17.8961 5.48334 18.2572L5.38613 19.183L4.45109 19.1552C4.09003 19.1459 3.74287 19.294 3.50216 19.5671C3.26609 19.8403 3.16425 20.2059 3.22906 20.5624L3.3957 21.4835L2.49306 21.715C2.14126 21.8029 1.84964 22.0482 1.70152 22.3769C1.55339 22.7055 1.55802 23.0851 1.72003 23.4091L2.14126 24.2423L1.33583 24.7191C1.0257 24.9043 0.812767 25.219 0.761849 25.5755C0.710931 25.9319 0.822025 26.2976 1.07199 26.5614L1.71078 27.2419L1.07199 27.9223C0.826654 28.1862 0.710931 28.5472 0.761849 28.9083C0.812767 29.2647 1.0257 29.5841 1.33583 29.7646L2.13663 30.2414L1.72003 31.0792C1.55802 31.4033 1.55339 31.7828 1.70152 32.1115C1.85427 32.4401 2.14126 32.6808 2.49306 32.7734L3.3957 33.0049L3.22906 33.926C3.16425 34.2824 3.26609 34.6481 3.50216 34.9212C3.73824 35.1943 4.09003 35.3471 4.45109 35.3332L5.38613 35.2962L5.48334 36.222C5.52037 36.583 5.72404 36.9024 6.02492 37.1014C6.33043 37.2959 6.70537 37.3422 7.04791 37.2264L7.93203 36.9302L8.28845 37.7912C8.42732 38.1244 8.70968 38.379 9.05685 38.4809C9.40402 38.5827 9.77433 38.5225 10.0752 38.3142L10.8436 37.7819L11.4315 38.5086C11.6583 38.791 12.0008 38.953 12.3619 38.953C12.7229 38.953 13.0655 38.791 13.2923 38.5086L13.8802 37.7819L14.6486 38.3142C14.9448 38.5225 15.3198 38.5781 15.6669 38.4809C16.0141 38.379 16.2965 38.1244 16.4353 37.7912L16.7918 36.9302L17.6759 37.2264C18.0184 37.3422 18.3934 37.2959 18.6989 37.1014C19.0044 36.907 19.2034 36.583 19.2404 36.222L19.3377 35.2962L20.2727 35.3332C20.6291 35.3471 20.9809 35.1943 21.2216 34.9212C21.4577 34.6481 21.5595 34.2824 21.4947 33.926L21.3281 33.0049L22.2354 32.7734C22.5872 32.6855 22.8788 32.4401 23.0269 32.1161C23.175 31.7875 23.1704 31.4079 23.0084 31.0839L22.5918 30.2507L23.3972 29.7739C23.7073 29.5887 23.9203 29.274 23.9712 28.9175C24.0267 28.5611 23.911 28.2001 23.6657 27.9316L23.0269 27.2511L23.6657 26.5661C23.8971 26.293 24.0129 25.9319 23.9619 25.5755ZM10.9827 31.3143C11.2411 31.3143 11.4839 31.212 11.6678 31.0299L18.1004 24.6008C18.4785 24.2227 18.4785 23.6087 18.1004 23.2307C17.9183 23.0468 17.6737 22.9462 17.4153 22.9462C17.1569 22.9462 16.9141 23.0468 16.7303 23.2307L11.1596 28.8013C11.1076 28.8377 11.0469 28.8568 10.9845 28.8568C10.922 28.8568 10.8613 28.8377 10.8093 28.8013L8.0604 26.0524C7.87656 25.8686 7.63375 25.768 7.37534 25.768C7.11693 25.768 6.87412 25.8686 6.69029 26.0524C6.3122 26.4305 6.3122 27.0444 6.69029 27.4225L10.2977 31.0299C10.4815 31.2137 10.7243 31.3143 10.9827 31.3143Z" fill="white"/>
</svg>
