<svg width="55" height="36" viewBox="0 0 55 36" fill="none" xmlns="http://www.w3.org/2000/svg">
<path d="M45.0226 18.8068L35.9278 9.71198V3.71296C35.9278 2.96538 35.3224 2.35997 34.5748 2.35997C33.8272 2.35997 33.2218 2.96538 33.2218 3.71296V7.006L26.8008 0.585031C26.2734 0.0575939 25.4157 0.0575939 24.8883 0.585031L15.3577 10.1156C14.8303 10.643 14.8303 11.5007 15.3577 12.0281C15.8852 12.5556 16.7428 12.5556 17.2703 12.0281L25.8423 3.45612L43.1101 20.7194C43.3715 20.9808 43.7201 21.1138 44.0641 21.1138C44.408 21.1138 44.7566 20.9808 45.0226 20.7194C45.5546 20.1919 45.5546 19.3343 45.0226 18.8068Z" fill="white"/>
<path d="M41.1514 20.3625L26.8005 6.01162C26.5483 5.75937 26.2043 5.61719 25.842 5.61719C25.4797 5.61719 25.1403 5.75937 24.8834 6.01162L17.5452 13.3499C17.5681 13.3499 17.591 13.3453 17.614 13.3453C18.0267 13.3453 18.4258 13.4645 18.7743 13.6847C19.3201 14.0378 19.6778 14.6111 19.7466 15.2578L19.7512 15.2899H19.8567C20.4805 15.2899 21.0721 15.5605 21.4803 16.0283C21.9068 16.5237 22.0857 17.1704 21.9665 17.8124L21.9619 17.8446L21.994 17.8537C22.6269 18.0142 23.1452 18.4454 23.4158 19.0416C23.6864 19.6333 23.6772 20.312 23.3837 20.8945L23.3699 20.922L23.3974 20.9358C23.7964 21.1697 24.0946 21.5229 24.2734 21.9356C24.6679 21.4953 25.2228 21.1972 25.8512 21.1376C27.0849 21.2568 28.0435 22.298 28.0435 23.5455V28.6868C28.0435 29.5124 28.3553 30.3012 28.9149 30.9066C29.534 31.5717 30.41 31.9569 31.3136 31.9569H38.3216C40.1241 31.9569 41.5917 30.4893 41.5917 28.6868V21.6834C41.5917 21.477 41.5688 21.2706 41.5321 21.0642C41.4725 20.7982 41.344 20.5551 41.1514 20.3625Z" fill="white"/>
<path d="M23.4756 22.6101C23.4252 22.257 23.2142 21.9405 22.9069 21.757L22.1089 21.2846L22.5217 20.4591C22.6822 20.138 22.6868 19.762 22.54 19.4363C22.3886 19.1107 22.1043 18.8676 21.7557 18.7805L20.8568 18.5511L21.0219 17.6384C21.0861 17.2853 20.9852 16.923 20.7513 16.6524C20.5174 16.3818 20.1734 16.2304 19.8111 16.2442L18.8846 16.2763L18.7883 15.359C18.7516 15.0013 18.5544 14.6848 18.2517 14.4876C17.949 14.295 17.5775 14.2491 17.2381 14.3638L16.3621 14.6573L16.009 13.7996C15.8714 13.4694 15.5916 13.2172 15.2476 13.1163C14.9036 13.0153 14.5321 13.075 14.2386 13.2814L13.4773 13.8088L12.904 13.0887C12.6792 12.809 12.3398 12.6484 11.9821 12.6484C11.6243 12.6484 11.285 12.809 11.0602 13.0887L10.4777 13.8088L9.7164 13.2814C9.42287 13.075 9.05137 13.0153 8.70739 13.1163C8.36341 13.2172 8.08364 13.4694 7.94604 13.7996L7.59289 14.6573L6.71689 14.3638C6.37749 14.2491 6.00141 14.295 5.70329 14.4876C5.40059 14.6802 5.20337 15.0013 5.16668 15.359L5.07037 16.2763L4.14391 16.2488C3.78617 16.2396 3.44219 16.3864 3.2037 16.657C2.96979 16.9276 2.86889 17.2899 2.9331 17.643L3.09821 18.5557L2.20386 18.7851C1.85529 18.8722 1.56635 19.1153 1.41959 19.4409C1.27282 19.7665 1.27741 20.1426 1.43793 20.4637L1.85529 21.2892L1.05726 21.7616C0.74997 21.9451 0.538995 22.257 0.488545 22.6101C0.438094 22.9633 0.548168 23.3256 0.795834 23.587L1.42876 24.2612L0.795834 24.9354C0.552755 25.1968 0.438094 25.5546 0.488545 25.9123C0.538995 26.2655 0.74997 26.5819 1.05726 26.7608L1.85071 27.2332L1.43793 28.0634C1.27741 28.3844 1.27282 28.7605 1.41959 29.0861C1.57094 29.4118 1.85529 29.6503 2.20386 29.742L3.09821 29.9713L2.9331 30.884C2.86889 31.2372 2.96979 31.5995 3.2037 31.8701C3.43761 32.1407 3.78617 32.292 4.14391 32.2783L5.07037 32.2416L5.16668 33.1589C5.20337 33.5166 5.40517 33.8331 5.70329 34.0303C6.00599 34.2229 6.37749 34.2688 6.71689 34.1541L7.59289 33.8606L7.94604 34.7136C8.08364 35.0439 8.36341 35.2961 8.70739 35.397C9.05137 35.4979 9.41828 35.4383 9.7164 35.2319L10.4777 34.7045L11.0602 35.4245C11.285 35.7043 11.6243 35.8648 11.9821 35.8648C12.3398 35.8648 12.6792 35.7043 12.904 35.4245L13.4864 34.7045L14.2478 35.2319C14.5413 35.4383 14.9128 35.4933 15.2568 35.397C15.6008 35.2961 15.8805 35.0439 16.0181 34.7136L16.3713 33.8606L17.2473 34.1541C17.5867 34.2688 17.9582 34.2229 18.2609 34.0303C18.5636 33.8376 18.7608 33.5166 18.7975 33.1589L18.8938 32.2416L19.8203 32.2783C20.1734 32.292 20.522 32.1407 20.7605 31.8701C20.9944 31.5995 21.0953 31.2372 21.0311 30.884L20.866 29.9713L21.7649 29.742C22.1135 29.6548 22.4024 29.4118 22.5492 29.0907C22.6959 28.7651 22.6913 28.389 22.5308 28.0679L22.118 27.2424L22.9161 26.77C23.2234 26.5865 23.4343 26.2747 23.4848 25.9215C23.5398 25.5683 23.4252 25.2106 23.1821 24.9446L22.5492 24.2704L23.1821 23.5916C23.4114 23.321 23.5261 22.9633 23.4756 22.6101ZM3.6073 24.8529L2.92851 24.541L4.46496 20.5554L5.02909 20.8122L3.6073 24.8529ZM13.1012 30.2006L5.55194 25.1693L6.23073 21.6882L9.76226 19.7344L10.4456 20.1656L8.6019 23.5824C8.47807 23.8163 8.55145 24.1053 8.77619 24.252L10.3539 25.2656C10.5603 25.3941 10.8263 25.362 10.996 25.1923L13.1424 22.9495L17.7564 26.9397L13.1012 30.2006ZM17.7105 25.5638L13.436 21.8625C13.3855 21.8213 13.3305 21.7892 13.2709 21.7662C13.2525 21.757 13.2296 21.757 13.2112 21.7525C13.1746 21.7433 13.1379 21.7341 13.1012 21.7341C13.0966 21.7341 13.092 21.7341 13.0828 21.7341C13.0782 21.7341 13.0691 21.7341 13.0645 21.7387C13.0094 21.7433 12.9498 21.7525 12.8994 21.78C12.8948 21.78 12.8902 21.7846 12.8902 21.7846C12.8352 21.8121 12.7847 21.8488 12.7388 21.8946L10.5465 24.1833L9.7164 23.6466L11.4409 20.4545L13.6057 20.1656L17.472 21.7249L18.2976 24.8483L17.7105 25.5638ZM20.0771 24.4584L18.5406 20.7389L19.224 20.4316L20.9669 24.2108L20.0771 24.4584Z" fill="white"/>
<path fill-rule="evenodd" clip-rule="evenodd" d="M48.5564 7.88123C48.4969 7.98433 48.4145 8.07236 48.3155 8.13851C48.2165 8.20466 48.1036 8.24715 47.9856 8.26269C47.8676 8.27823 47.7475 8.26642 47.6348 8.22815C47.5221 8.18988 47.4197 8.1262 47.3355 8.04201C47.2513 7.95783 47.1876 7.85541 47.1493 7.74267C47.1111 7.62994 47.0993 7.50991 47.1148 7.39188C47.1303 7.27385 47.1728 7.16097 47.239 7.06199C47.3051 6.963 47.3932 6.88056 47.4963 6.82104V4.77596C47.4963 4.56213 47.6686 4.38867 47.8843 4.38867C48.0985 4.38867 48.2724 4.56175 48.2724 4.77596V6.82104C48.3904 6.88895 48.4885 6.98713 48.5564 7.1051H50.9908C51.2042 7.1051 51.3769 7.2774 51.3769 7.49316C51.3769 7.70737 51.1999 7.88123 50.9908 7.88123H48.5564Z" fill="white"/>
<path fill-rule="evenodd" clip-rule="evenodd" d="M47.9643 12.853C50.9589 12.853 53.3864 10.4254 53.3864 7.43089C53.3864 4.43635 50.9589 2.0088 47.9643 2.0088C44.9698 2.0088 42.5422 4.43635 42.5422 7.43089C42.5422 10.4254 44.9698 12.853 47.9643 12.853ZM47.9643 13.6645C51.4071 13.6645 54.198 10.8736 54.198 7.43089C54.198 3.98815 51.4071 1.19727 47.9643 1.19727C44.5216 1.19727 41.7307 3.98815 41.7307 7.43089C41.7307 10.8736 44.5216 13.6645 47.9643 13.6645Z" fill="white"/>
</svg>
