<svg width="38" height="38" viewBox="0 0 38 38" fill="none" xmlns="http://www.w3.org/2000/svg">
<path d="M37.2162 21.3688H36.0922V15.7461C36.0922 15.0155 35.5073 14.4227 34.7885 14.4227H34.1921L33.504 12.1621H34.7885C35.5073 12.1621 36.0922 11.5693 36.0922 10.8387C36.0922 10.1081 35.5073 9.51525 34.7885 9.51525H32.6973L30.1587 1.17683C29.9905 0.618389 29.4056 0.304743 28.8512 0.476866L4.42898 8.14974C4.16519 8.23389 3.94344 8.41748 3.81346 8.66993C3.68347 8.91856 3.65671 9.20925 3.74082 9.477L3.76376 9.54967C1.94394 9.79447 0.533203 11.3742 0.533203 13.2905V34.1136C0.533203 36.1982 2.20392 37.8965 4.25312 37.8965H34.7885C35.5073 37.8965 36.0922 37.3036 36.0922 36.573V30.6635H37.2162C37.6483 30.6635 38 30.3077 38 29.8679V22.1644C38 21.7245 37.6483 21.3688 37.2162 21.3688ZM4.25312 14.4188C3.672 14.4188 3.20176 13.9637 3.15205 13.3861C3.14823 13.3555 3.14058 13.3211 3.14058 13.2867C3.14058 12.6632 3.63759 12.1583 4.25312 12.1583H4.55515L4.97187 13.52L5.24331 14.415H4.25312V14.4188ZM7.10136 12.1621L6.77257 12.2654L6.74198 12.1621L6.33673 10.8387L6.04235 9.86332L7.15488 9.51525L28.4727 2.81392L29.2029 5.21599L15.5352 9.51142L11.3183 10.8349L7.10136 12.1621ZM14.0327 14.4188L14.6024 14.2391L21.2279 12.1621L25.4448 10.8387L29.6617 9.51525L30.4378 9.27045L30.5143 9.51525L30.9157 10.8387L31.3171 12.1621L31.9747 14.3194L31.6459 14.4227H17.0033H14.0327V14.4188ZM36.4325 29.0723H36.0922H34.7885H33.4849H29.2985C27.6393 29.0723 26.2897 27.6991 26.2897 26.0161C26.2897 24.3293 27.6393 22.96 29.2985 22.96H33.4849H34.7885H36.0922H36.4325V29.0723ZM29.8108 24.9796C29.2488 24.9796 28.79 25.4424 28.79 26.0161C28.79 26.5899 29.245 27.0527 29.8108 27.0527C30.3728 27.0527 30.8316 26.5899 30.8316 26.0161C30.8316 25.4424 30.3766 24.9796 29.8108 24.9796Z" fill="white"/>
</svg>
