<svg width="47" height="43" viewBox="0 0 47 43" fill="none" xmlns="http://www.w3.org/2000/svg">
<path d="M31.5013 0.0568867C25.6219 0.511964 21.2383 2.83898 20.6521 5.81389C20.2847 7.6776 21.8506 9.70717 24.6418 11.002C27.4065 12.2882 31.2559 12.9092 34.9135 12.6643C37.8797 12.4632 40.0144 11.9382 42.2189 10.8531C48.0111 8.01845 47.031 3.26756 40.1889 1.02781C37.7659 0.231881 34.3012 -0.152832 31.5013 0.0568867Z" fill="white"/>
<path d="M45.5439 10.2147C45.4041 10.3636 44.8878 10.757 44.398 11.081C40.5573 13.6269 35.1324 14.5809 29.4718 13.7059C28.8596 13.6095 28.2556 13.5135 28.1418 13.4784C27.9842 13.4436 28.2821 13.7845 29.1219 14.6421C29.7866 15.3069 30.557 16.1905 30.8453 16.6104L31.3703 17.363L32.2014 17.4242C33.7238 17.5466 36.2697 17.3543 38.1508 16.9778C40.0844 16.5931 42.2455 15.7442 43.5838 14.834C45.0189 13.8804 45.9113 12.5769 45.9899 11.3341C46.025 10.9229 45.9985 10.5469 45.92 10.3106L45.8062 9.93415L45.5439 10.2147Z" fill="white"/>
<path d="M45.2375 15.1577C42.6217 17.4414 38.7193 18.6403 33.5837 18.7189C32.8225 18.7275 32.2015 18.754 32.2015 18.7801C32.2015 18.8061 32.3505 19.1739 32.5428 19.6112C32.7265 20.0398 33.0153 20.8097 33.1729 21.3086L33.4704 22.2188L34.5203 22.1575C39.9799 21.8514 44.3369 19.9703 45.6231 17.3628C46.0078 16.6016 46.1216 15.6827 45.9206 15.0353L45.8068 14.6588L45.2375 15.1577Z" fill="white"/>
<path d="M45.3258 19.847C43.0861 21.8683 39.5337 23.0929 35.019 23.4081C34.3802 23.452 33.8379 23.5045 33.8118 23.5306C33.7853 23.5566 33.8032 23.9244 33.8557 24.353C33.8996 24.7729 33.9695 25.5341 34.0042 26.0326L34.0567 26.9336L34.9052 26.8724C37.5914 26.68 40.0235 26.1112 41.9658 25.2101C43.7683 24.3704 45.0366 23.2852 45.6402 22.0689C45.9641 21.4041 45.9815 21.3251 45.9728 20.5817C45.9728 20.1444 45.929 19.698 45.8851 19.6016C45.807 19.4184 45.7891 19.4358 45.3258 19.847Z" fill="white"/>
<path fill-rule="evenodd" clip-rule="evenodd" d="M16.4493 42.2423C25.1591 42.2423 32.2198 35.1816 32.2198 26.4717C32.2198 17.7619 25.1591 10.7012 16.4493 10.7012C7.73943 10.7012 0.678711 17.7619 0.678711 26.4717C0.678711 35.1816 7.73943 42.2423 16.4493 42.2423ZM7.55592 31.0344C8.2351 31.4666 9.00689 31.6827 9.8713 31.6827C10.7357 31.6827 11.5075 31.4666 12.1867 31.0344C12.8761 30.5919 13.4164 29.9538 13.8074 29.1203C14.1985 28.2765 14.394 27.2783 14.394 26.1258C14.394 24.9732 14.1985 23.9802 13.8074 23.1467C13.4164 22.3028 12.8761 21.6648 12.1867 21.2326C11.5075 20.7901 10.7357 20.5689 9.8713 20.5689C9.00689 20.5689 8.2351 20.7901 7.55592 21.2326C6.87675 21.6648 6.34164 22.3028 5.9506 23.1467C5.55956 23.9802 5.36404 24.9732 5.36404 26.1258C5.36404 27.2783 5.55956 28.2765 5.9506 29.1203C6.34164 29.9538 6.87675 30.5919 7.55592 31.0344ZM11.6927 28.9814C11.2502 29.6194 10.6431 29.9384 9.8713 29.9384C9.1098 29.9384 8.50266 29.6194 8.04987 28.9814C7.60738 28.3434 7.38613 27.3915 7.38613 26.1258C7.38613 24.86 7.60738 23.9082 8.04987 23.2701C8.50266 22.6321 9.1098 22.3131 9.8713 22.3131C10.6431 22.3131 11.2502 22.6321 11.6927 23.2701C12.1455 23.9082 12.3719 24.86 12.3719 26.1258C12.3719 27.3915 12.1455 28.3434 11.6927 28.9814ZM16.2903 25.7244C16.7637 26.2698 17.3862 26.5425 18.158 26.5425C18.9298 26.5425 19.5524 26.275 20.0258 25.7399C20.5094 25.1945 20.7513 24.4741 20.7513 23.5789C20.7513 22.6836 20.5094 21.9684 20.0258 21.4333C19.5524 20.8879 18.9298 20.6152 18.158 20.6152C17.3862 20.6152 16.7637 20.8879 16.2903 21.4333C15.8169 21.9787 15.5803 22.6939 15.5803 23.5789C15.5803 24.4638 15.8169 25.179 16.2903 25.7244ZM26.1538 20.7232H24.6411L17.2628 31.5283H18.7755L26.1538 20.7232ZM19.1305 24.9681C18.9041 25.2974 18.58 25.462 18.158 25.462C17.7567 25.462 17.4326 25.2974 17.1856 24.9681C16.9489 24.6285 16.8306 24.1654 16.8306 23.5789C16.8306 22.9923 16.9489 22.5344 17.1856 22.2051C17.4326 21.8655 17.7567 21.6957 18.158 21.6957C18.58 21.6957 18.9041 21.8603 19.1305 22.1896C19.3672 22.5189 19.4855 22.982 19.4855 23.5789C19.4855 24.1757 19.3672 24.6388 19.1305 24.9681ZM23.3753 30.8183C23.8487 31.3637 24.4713 31.6364 25.2431 31.6364C26.0149 31.6364 26.6374 31.3637 27.1108 30.8183C27.5945 30.2729 27.8363 29.5577 27.8363 28.6727C27.8363 27.7877 27.5945 27.0725 27.1108 26.5271C26.6374 25.9817 26.0149 25.709 25.2431 25.709C24.4713 25.709 23.8487 25.9817 23.3753 26.5271C22.902 27.0725 22.6653 27.7877 22.6653 28.6727C22.6653 29.5577 22.902 30.2729 23.3753 30.8183ZM26.2155 30.0619C25.9789 30.3912 25.6547 30.5558 25.2431 30.5558C24.8315 30.5558 24.5073 30.3912 24.2706 30.0619C24.0339 29.7326 23.9156 29.2695 23.9156 28.6727C23.9156 28.0758 24.0339 27.6127 24.2706 27.2835C24.5073 26.9542 24.8315 26.7895 25.2431 26.7895C25.6547 26.7895 25.9789 26.9593 26.2155 27.2989C26.4522 27.6282 26.5706 28.0861 26.5706 28.6727C26.5706 29.2592 26.4522 29.7223 26.2155 30.0619Z" fill="white"/>
</svg>
