<svg width="39" height="38" viewBox="0 0 39 38" fill="none" xmlns="http://www.w3.org/2000/svg">
<path d="M6.40401 20.7305H9.15078L4.64326 26.8619L0.139648 20.7305H2.88642C2.88642 11.6725 10.2542 4.30469 19.3123 4.30469V7.82619C12.1988 7.82228 6.40401 13.6132 6.40401 20.7305ZM38.4849 20.7305H35.7381C35.7381 29.7886 28.3704 37.1564 19.3123 37.1564V33.6349C26.4296 33.6349 32.2205 27.844 32.2205 20.7266H29.4777L33.9813 14.5953L38.4849 20.7305Z" fill="white"/>
<path fill-rule="evenodd" clip-rule="evenodd" d="M29.5239 13.0574C33.0919 13.0574 35.9843 10.165 35.9843 6.59706C35.9843 3.02911 33.0919 0.136719 29.5239 0.136719C25.956 0.136719 23.0636 3.02911 23.0636 6.59706C23.0636 10.165 25.956 13.0574 29.5239 13.0574ZM30.3201 9.25212V3.76526H28.1076V4.61964H29.2855V9.25212H30.3201Z" fill="white"/>
<path d="M19.3133 28.4781C20.7971 28.4779 22.2475 28.0255 23.4811 27.1782C24.7148 26.3308 25.6762 25.1265 26.2439 23.7175C26.8116 22.3085 26.96 20.7582 26.6705 19.2625C26.3809 17.7668 25.6663 16.393 24.617 15.3147C23.5678 14.2365 22.231 13.5022 20.7757 13.2047C19.3204 12.9073 17.812 13.06 16.4412 13.6437C15.0703 14.2273 13.8987 15.2156 13.0744 16.4836C12.25 17.7516 11.8101 19.2424 11.8101 20.7674C11.8123 22.8119 12.6035 24.7719 14.0102 26.2175C15.4169 27.6631 17.3241 28.4761 19.3133 28.4781ZM21.7159 21.0931C21.1534 21.5864 20.4266 21.8359 19.6886 21.7892H18.5952C18.5607 21.7892 18.5265 21.7962 18.4947 21.8098C18.4628 21.8234 18.4339 21.8433 18.4095 21.8685C18.3851 21.8936 18.3658 21.9234 18.3527 21.9562C18.3396 21.989 18.3329 22.0242 18.333 22.0596V22.6253C18.3329 22.6608 18.3396 22.6959 18.3527 22.7287C18.3658 22.7615 18.3851 22.7914 18.4095 22.8165C18.4339 22.8416 18.4628 22.8615 18.4947 22.8751C18.5265 22.8888 18.5607 22.8958 18.5952 22.8958H18.9844C19.131 22.8899 19.2756 22.9326 19.3967 23.0176C19.4495 23.0625 19.4919 23.1187 19.521 23.1824C19.5501 23.2461 19.5652 23.3156 19.5651 23.3859C19.565 23.4563 19.5498 23.5257 19.5205 23.5893C19.4912 23.6529 19.4486 23.7091 19.3958 23.7538C19.2755 23.8393 19.1315 23.8828 18.9853 23.8776H18.5962C18.5616 23.8774 18.5275 23.8843 18.4955 23.8978C18.4636 23.9113 18.4346 23.9311 18.4101 23.9562C18.3857 23.9812 18.3663 24.011 18.3531 24.0437C18.3398 24.0765 18.333 24.1116 18.333 24.1471V24.6851C18.3328 24.8317 18.2789 24.9728 18.182 25.0803C18.1346 25.1332 18.077 25.1754 18.0129 25.2041C17.9487 25.2328 17.8795 25.2474 17.8095 25.247C17.7394 25.2458 17.6702 25.2299 17.6062 25.2005C17.5422 25.171 17.4846 25.1285 17.437 25.0756C17.34 24.97 17.286 24.8303 17.286 24.6851V24.1471C17.286 24.1116 17.2792 24.0765 17.266 24.0437C17.2527 24.011 17.2333 23.9812 17.2089 23.9562C17.1844 23.9311 17.1554 23.9113 17.1235 23.8978C17.0916 23.8843 17.0574 23.8774 17.0229 23.8776H16.7718C16.6253 23.8828 16.481 23.8394 16.3604 23.7538C16.3076 23.709 16.2651 23.6528 16.2359 23.5892C16.2067 23.5255 16.1915 23.4561 16.1915 23.3857C16.1915 23.3154 16.2067 23.2459 16.2359 23.1823C16.2651 23.1186 16.3076 23.0624 16.3604 23.0176C16.4812 22.9327 16.6255 22.8899 16.7718 22.8958H17.0229C17.0927 22.8958 17.1596 22.8673 17.2089 22.8165C17.2583 22.7658 17.286 22.697 17.286 22.6253V22.0596C17.286 21.9879 17.2583 21.9191 17.2089 21.8684C17.1596 21.8177 17.0927 21.7892 17.0229 21.7892H16.7718C16.6253 21.795 16.481 21.7519 16.3604 21.6663C16.3076 21.6214 16.2652 21.5651 16.236 21.5013C16.2069 21.4376 16.1919 21.368 16.192 21.2976C16.1921 21.2272 16.2073 21.1576 16.2366 21.094C16.2658 21.0303 16.3084 20.974 16.3613 20.9293C16.482 20.8448 16.6259 20.8024 16.7718 20.8083H17.0229C17.0927 20.8083 17.1596 20.7798 17.2089 20.7291C17.2583 20.6784 17.286 20.6096 17.286 20.5379V16.9344C17.2865 16.7628 17.353 16.5984 17.4711 16.477C17.5891 16.3557 17.7491 16.2873 17.9161 16.2868H19.6886C20.0556 16.2644 20.4232 16.3185 20.7694 16.4458C21.1155 16.5732 21.4331 16.7711 21.7029 17.0277C22.2046 17.5998 22.4674 18.3515 22.4349 19.1209C22.4559 19.483 22.4027 19.8456 22.2789 20.1853C22.155 20.525 21.9632 20.8343 21.7159 21.0931ZM19.6886 17.3391H18.5952C18.5257 17.3391 18.459 17.3675 18.4098 17.418C18.3606 17.4686 18.333 17.5371 18.333 17.6086V20.5379C18.3329 20.5733 18.3396 20.6085 18.3527 20.6413C18.3658 20.6741 18.3851 20.7039 18.4095 20.7291C18.4339 20.7542 18.4628 20.7741 18.4947 20.7877C18.5265 20.8013 18.5607 20.8083 18.5952 20.8083H19.0085C19.5988 20.8559 20.1923 20.7755 20.7504 20.5722C20.9915 20.4281 21.1827 20.2103 21.2974 19.949C21.412 19.6878 21.4443 19.3962 21.3897 19.1151C21.391 18.6786 21.2693 18.251 21.0395 17.8838C20.8721 17.6899 20.6624 17.5395 20.4276 17.4448C20.1929 17.3501 19.9396 17.3139 19.6886 17.3391Z" fill="white"/>
</svg>
