<svg width="41" height="40" viewBox="0 0 41 40" fill="none" xmlns="http://www.w3.org/2000/svg">
<path d="M16.4822 0.562296C15.0349 0.742134 13.9722 1.2326 12.3533 2.48371C10.7425 3.71847 9.58172 5.40242 9.11536 7.17669C8.79656 8.37875 8.85378 10.2756 9.24615 11.2811C9.2952 11.4037 9.2625 11.4282 9.04179 11.4282C8.65759 11.4282 8.33878 11.7879 8.25704 12.2947C8.1426 13.055 8.5268 14.7966 9.08266 16.0558C9.28703 16.5136 9.73662 17.0695 9.90011 17.0695C9.96551 17.0695 10.0473 17.2493 10.1045 17.5354C10.7666 20.8878 12.4918 22.9645 15.3129 23.831C15.9341 24.019 16.1794 24.0517 17.1362 24.0517C17.9455 24.0599 18.3791 24.019 18.7633 23.9128C20.5049 23.4386 21.682 22.6126 22.598 21.2475C23.1784 20.381 23.5466 19.5141 23.8327 18.3696L24.0453 17.495L24.3069 17.5031C24.6747 17.5113 24.9857 17.2007 25.3368 16.4323C25.9499 15.1158 26.3427 13.2434 26.1383 12.5731C26.0811 12.3851 25.9422 12.1317 25.8359 12.0254L25.6315 11.821L25.795 10.791C26.4326 6.85012 25.6969 4.21752 23.7755 3.53045C23.4812 3.42419 23.3259 3.29339 23.1052 2.98276C22.4672 2.08357 20.8241 1.05317 19.4667 0.718018C18.6979 0.521421 17.3487 0.447853 16.4822 0.562296Z" fill="white"/>
<path d="M36.8242 22.0753C36.6199 22.247 33.6521 27.0871 33.6521 27.2592C33.6521 27.5616 33.8156 27.6188 34.6494 27.6188H35.4509V33.3422C35.4509 38.9593 35.4509 39.0656 35.6144 39.2291C35.7615 39.3762 35.8841 39.3926 36.9877 39.3926C37.9445 39.3926 38.2306 39.3681 38.3778 39.2618L38.5576 39.1392V33.3749V27.6188H39.3673C39.9967 27.6188 40.2093 27.5861 40.3074 27.4881C40.3809 27.4227 40.4382 27.3246 40.4382 27.2755C40.4382 27.1202 37.2493 22.0753 37.1185 22.0263C36.955 21.9609 36.9714 21.9609 36.8242 22.0753Z" fill="white"/>
<path d="M10.8814 24.0765C9.90864 24.7141 7.4146 25.908 5.10081 26.8399C3.57994 27.4612 2.92598 27.8535 2.28019 28.5406C1.05361 29.8571 0.571314 31.6804 0.489569 35.3026C0.47322 36.2671 0.440522 37.5837 0.424173 38.2294L0.383301 39.3906H12.9091H25.4349L25.4104 36.1445C25.3858 32.5469 25.394 32.4815 25.9008 31.9584C26.4076 31.4434 26.4976 31.4189 28.231 31.4189H29.8091V30.7976C29.8091 29.4893 30.3894 28.8843 31.7468 28.7699L32.4662 28.7127L32.0574 28.3203C31.4685 27.7644 30.7573 27.3635 29.3186 26.7913C27.5934 26.1046 25.7373 25.2377 24.38 24.4775C23.7587 24.1341 23.2188 23.8807 23.1861 23.9134C23.1534 23.9461 22.3437 26.4643 21.3873 29.4978C20.4313 32.531 19.622 35.0491 19.5975 35.0818C19.5648 35.1145 19.2214 34.2476 18.8372 33.1604L18.1424 31.1736L18.4449 30.724C19.1642 29.6613 19.5488 28.6146 19.4912 27.8952C19.4422 27.323 19.1397 26.9306 18.5348 26.6441C18.1342 26.4643 17.9707 26.4316 17.2591 26.4316C16.5234 26.4316 16.3927 26.4561 15.9672 26.6605C15.1575 27.061 14.8796 27.7154 15.1252 28.6636C15.2642 29.2195 15.6892 30.1109 16.1229 30.7649L16.409 31.19L15.7469 33.0623C15.3872 34.0927 15.0684 34.9919 15.0439 35.0573C15.003 35.1636 14.9948 35.1636 14.9376 35.0573C14.8967 34.9919 14.0874 32.4411 13.1224 29.3912C12.166 26.3494 11.34 23.8558 11.2909 23.864C11.2493 23.864 11.0612 23.9621 10.8814 24.0765Z" fill="white"/>
<path d="M31.297 30.2028L31.1172 30.3254V34.7241C31.1172 38.8776 31.1254 39.131 31.2643 39.2536C31.3951 39.3681 31.6158 39.3926 32.6462 39.3926C33.7338 39.3926 33.8892 39.3762 34.0036 39.2454C34.1262 39.1065 34.1426 38.6732 34.1426 34.7078V30.3254L33.9627 30.2028C33.8156 30.0965 33.5377 30.072 32.6303 30.072C31.7225 30.072 31.4442 30.0965 31.297 30.2028Z" fill="white"/>
<path d="M26.8656 32.8513C26.7103 33.0067 26.7021 33.1211 26.7021 36.0402C26.7021 38.9589 26.7103 39.0734 26.8656 39.2291C27.0128 39.3762 27.1354 39.3926 28.2557 39.3926C29.3756 39.3926 29.4982 39.3762 29.6458 39.2291C29.8011 39.0738 29.8093 38.9593 29.8093 36.0402C29.8093 33.1211 29.8011 33.0071 29.6458 32.8513C29.4986 32.7042 29.376 32.6879 28.2557 32.6879C27.1354 32.6879 27.0128 32.7042 26.8656 32.8513Z" fill="white"/>
</svg>
