<svg width="54" height="42" viewBox="0 0 54 42" fill="none" xmlns="http://www.w3.org/2000/svg">
<path d="M52.2934 7.50546H50.034V5.20154C50.034 4.5444 49.5156 4.03125 48.8585 4.03125C48.2145 4.03125 47.6882 4.55749 47.6882 5.20154V7.50546H45.5676C44.9209 7.50546 44.3947 8.0317 44.3947 8.68099C44.3947 9.32765 44.9209 9.85127 45.5676 9.85127H47.6882V11.9222C47.6882 12.5715 48.2145 13.1003 48.8585 13.1003C49.5156 13.1003 50.034 12.5819 50.034 11.9222V9.85127H52.2934C52.9454 9.85127 53.4742 9.32504 53.4742 8.68099C53.4742 8.03432 52.9454 7.50546 52.2934 7.50546Z" fill="white"/>
<path d="M46.2248 12.7082L45.2509 13.6141L45.2561 13.6219L45.2326 13.635L44.6199 14.2241V14.2215L39.2869 19.3425L39.2581 19.3163L31.3881 11.7605L30.9954 11.3704C28.6286 9.00624 29.1339 6.58189 29.6444 5.34615C30.6027 3.02914 32.9301 1.40853 35.2995 1.40853C36.4096 1.40853 37.483 1.75151 38.491 2.42436L39.2895 2.95845L40.088 2.42436C41.1091 1.74365 42.1903 1.39806 43.303 1.39806C44.133 1.39806 45.0074 1.61536 45.8321 2.02641C45.874 2.04473 45.9159 2.06568 45.9578 2.08924C45.9787 2.10233 46.0023 2.1128 46.0232 2.12327C46.0546 2.13898 46.0834 2.15469 46.1122 2.16778C46.1541 2.18873 46.196 2.20967 46.2379 2.23323L46.2903 2.26465L46.285 2.26989C46.6385 2.49504 46.9631 2.78042 47.2302 3.09721C47.5862 2.65737 47.958 2.3589 48.5523 2.32749C47.1281 0.8247 45.2666 0 43.3056 0C41.9128 0 40.5697 0.424131 39.3131 1.26192L39.2895 1.27763L39.2659 1.26192C38.025 0.431985 36.6897 0.00785436 35.2969 0.00785436C32.3751 0.00785436 29.5188 1.9819 28.3485 4.80944C27.2515 7.45895 27.8563 10.2106 30.0057 12.3574L30.0188 12.3705V12.3836L38.525 20.5494C38.7318 20.7458 39.0041 20.8531 39.2921 20.8531C39.5775 20.8531 39.8471 20.7458 40.0487 20.5494L47.0548 13.8235L47.0469 13.8131C46.7013 13.4727 46.4055 13.1769 46.2248 12.7082Z" fill="white"/>
<path d="M31.1523 18.8789H2.35179C1.20605 18.8789 0.274902 19.8101 0.274902 20.9558V39.6516C0.274902 40.7973 1.20605 41.7285 2.35179 41.7285H31.1523C32.298 41.7285 33.2291 40.7973 33.2291 39.6516V20.9558C33.2291 19.8101 32.298 18.8789 31.1523 18.8789ZM3.85005 29.5545V23.2702C3.85005 22.5039 4.47082 21.8869 5.23336 21.8869H7.64745V30.9417H5.23336C4.47082 30.9379 3.85005 30.3209 3.85005 29.5545ZM8.01532 38.1533C8.01532 38.4254 7.79307 38.6438 7.52483 38.6438H5.90011C5.62805 38.6438 5.40963 38.4215 5.40963 38.1533V35.0226C5.40963 34.7506 5.63188 34.5322 5.90011 34.5322H7.52483C7.7969 34.5322 8.01532 34.7544 8.01532 35.0226V38.1533ZM11.9545 38.1533C11.9545 38.4254 11.7322 38.6438 11.464 38.6438H9.83929C9.56723 38.6438 9.34881 38.4215 9.34881 38.1533V35.0226C9.34881 34.7506 9.57106 34.5322 9.83929 34.5322H11.464C11.7361 34.5322 11.9545 34.7544 11.9545 35.0226V38.1533ZM12.9048 29.5545C12.9048 30.3209 12.284 30.9379 11.5215 30.9379H9.1074V27.1366H12.9086L12.9048 29.5545ZM12.9048 25.6843H9.10357V21.8831H11.5177C12.284 21.8831 12.901 22.5039 12.901 23.2664L12.9048 25.6843ZM20.2237 38.1533C20.2237 38.4254 20.0015 38.6438 19.7332 38.6438H18.1085C17.8364 38.6438 17.618 38.4215 17.618 38.1533V35.0226C17.618 34.7506 17.8403 34.5322 18.1085 34.5322H19.7332C20.0053 34.5322 20.2237 34.7544 20.2237 35.0226V38.1533ZM24.1591 38.1533C24.1591 38.4254 23.9406 38.6438 23.6686 38.6438H22.0439C21.7718 38.6438 21.5534 38.4215 21.5534 38.1533V35.0226C21.5534 34.7506 21.7718 34.5322 22.0439 34.5322H23.6686C23.9406 34.5322 24.1591 34.7544 24.1591 35.0226V38.1533ZM28.0982 38.1533C28.0982 38.4254 27.876 38.6438 27.6078 38.6438H25.983C25.711 38.6438 25.4926 38.4215 25.4926 38.1533V35.0226C25.4926 34.7506 25.7148 34.5322 25.983 34.5322H27.6078C27.8798 34.5322 28.0982 34.7544 28.0982 35.0226V38.1533Z" fill="white"/>
<path d="M13.8244 5.87618L11.5368 8.16382L21.1241 17.7512H14.3877L8.16852 11.532L2.99547 16.7051L4.04158 17.7512H1.65431C1.13317 17.0845 1.17916 16.115 1.79226 15.5019L12.6212 4.67297C13.2841 4.01005 14.3647 4.01005 15.0276 4.67297L28.1058 17.7512H25.6994L13.8244 5.87618Z" fill="white"/>
</svg>
