<svg width="43" height="41" viewBox="0 0 43 41" fill="none" xmlns="http://www.w3.org/2000/svg">
<path fill-rule="evenodd" clip-rule="evenodd" d="M32.8455 7.50166C32.7787 7.61737 32.6862 7.71617 32.5751 7.79041C32.464 7.86464 32.3373 7.91233 32.2048 7.92977C32.0724 7.94722 31.9377 7.93395 31.8112 7.89101C31.6846 7.84806 31.5697 7.77659 31.4752 7.68211C31.3807 7.58763 31.3093 7.47269 31.2663 7.34617C31.2234 7.21965 31.2101 7.08494 31.2275 6.95248C31.245 6.82001 31.2927 6.69333 31.3669 6.58224C31.4412 6.47115 31.5399 6.37863 31.6557 6.31184V4.01667C31.6557 3.77671 31.849 3.58203 32.0912 3.58203C32.3316 3.58203 32.5267 3.77627 32.5267 4.01667V6.31184C32.6591 6.38805 32.7693 6.49824 32.8455 6.63063H35.5775C35.817 6.63063 36.0108 6.824 36.0108 7.06615C36.0108 7.30655 35.8122 7.50166 35.5775 7.50166H32.8455Z" fill="white"/>
<path fill-rule="evenodd" clip-rule="evenodd" d="M32.1811 13.081C35.5418 13.081 38.2662 10.3566 38.2662 6.99588C38.2662 3.63516 35.5418 0.910765 32.1811 0.910765C28.8203 0.910765 26.0959 3.63516 26.0959 6.99588C26.0959 10.3566 28.8203 13.081 32.1811 13.081ZM32.1811 13.9918C36.0448 13.9918 39.1769 10.8596 39.1769 6.99588C39.1769 3.13216 36.0448 0 32.1811 0C28.3173 0 25.1852 3.13216 25.1852 6.99588C25.1852 10.8596 28.3173 13.9918 32.1811 13.9918Z" fill="white"/>
<path d="M7.00977 22.5777H10.0834L5.03951 29.4386L0 22.5777H3.07362C3.07362 12.4417 11.3181 4.19727 21.454 4.19727V8.1378C13.4941 8.13342 7.00977 14.6134 7.00977 22.5777ZM42.908 22.5777H39.8344C39.8344 32.7136 31.59 40.9581 21.454 40.9581V37.0175C29.4183 37.0175 35.8983 30.5376 35.8983 22.5733H32.829L37.8685 15.7124L42.908 22.5777Z" fill="white"/>
<path d="M27.8454 22.7104C27.838 22.6437 27.8083 22.577 27.7583 22.5251L21.4254 16.1626C21.305 16.0422 21.1105 16.0422 20.9901 16.1626L14.6294 22.5529C14.5979 22.5844 14.5756 22.6196 14.5608 22.6585C14.5386 22.703 14.5256 22.7548 14.5256 22.8067V30.1714C14.5256 30.3603 14.6775 30.5122 14.8665 30.5122H18.9267V24.8683C18.9267 24.6794 19.0785 24.5275 19.2675 24.5275H23.1202C23.3073 24.5275 23.461 24.6812 23.461 24.8683V30.514H27.5231C27.7102 30.514 27.8639 30.3603 27.8639 30.1732V22.8085C27.8602 22.7734 27.8546 22.7419 27.8454 22.7104Z" fill="white"/>
<path d="M30.0735 22.1027L27.5767 19.5929V17.0904C27.7378 17.0626 27.8601 16.9237 27.8601 16.7533V16.1847C27.8601 15.9957 27.7082 15.842 27.5192 15.842H23.8425L21.5938 13.5822C21.5771 13.5655 21.5623 13.5507 21.5438 13.5378L21.5012 13.4952C21.4215 13.4137 21.3085 13.3803 21.19 13.3877C21.0715 13.3803 20.9585 13.4137 20.8788 13.4952L20.8362 13.5378C20.8195 13.5526 20.8029 13.5655 20.7862 13.5822L12.3102 22.1027C12.0879 22.325 12.049 22.6454 12.2231 22.8195L12.5862 23.1844C12.7584 23.3586 13.0789 23.3197 13.3011 23.0974L21.1919 15.1696L29.0826 23.0974C29.3048 23.3197 29.6234 23.3586 29.7976 23.1844L30.1606 22.8195C30.3329 22.6454 30.294 22.325 30.0735 22.1027Z" fill="white"/>
</svg>
