<svg width="44" height="44" viewBox="0 0 44 44" fill="none" xmlns="http://www.w3.org/2000/svg">
<path fill-rule="evenodd" clip-rule="evenodd" d="M12.6805 14.2735V12.9099H13.4946C14.4856 12.9099 15.2481 12.692 15.7842 12.2553C16.3203 11.8196 16.5888 11.1927 16.5888 10.3738C16.5888 9.59499 16.3451 9.00445 15.8568 8.60406C15.3695 8.20368 14.6356 8.00396 13.6561 8.00396H11.3991V14.2735H10.2122V15.5291H11.3991V16.6271H12.6795V15.5282H14.9184V14.2735H12.6805ZM25.3925 11.1268C24.5831 5.04933 19.379 0.359375 13.079 0.359375C6.21793 0.359375 0.656494 5.92081 0.656494 12.7818C0.656494 19.0819 5.34549 24.286 11.4239 25.0954C12.6652 17.9802 18.2773 12.3681 25.3925 11.1268ZM12.6805 11.832H13.3608C14.0183 11.832 14.5008 11.7173 14.8085 11.4889C15.1162 11.2596 15.2701 10.9032 15.2701 10.4168C15.2701 9.96671 15.1325 9.63035 14.8573 9.40866C14.5821 9.18696 14.153 9.07612 13.5701 9.07612H12.6805V11.832ZM30.0232 29.0266C29.8766 29.2805 29.6736 29.4972 29.4299 29.6601C29.1861 29.823 28.9082 29.9276 28.6175 29.9659C28.3269 30.0042 28.0313 29.9751 27.7537 29.8809C27.4761 29.7866 27.2239 29.6298 27.0166 29.4225C26.8093 29.2152 26.6525 28.963 26.5583 28.6854C26.4641 28.4078 26.4349 28.1122 26.4732 27.8216C26.5115 27.531 26.6161 27.253 26.779 27.0093C26.9419 26.7655 27.1587 26.5625 27.4126 26.416V21.3801C27.4126 20.8536 27.8368 20.4264 28.3681 20.4264C28.8956 20.4264 29.3237 20.8526 29.3237 21.3801V26.416C29.6142 26.5832 29.856 26.8249 30.0232 27.1154H36.0175C36.5431 27.1154 36.9683 27.5397 36.9683 28.071C36.9683 28.5985 36.5326 29.0266 36.0175 29.0266H30.0232Z" fill="white"/>
<circle cx="28.5654" cy="27.9202" r="14.271" stroke="white" stroke-width="2.15778"/>
</svg>
