<svg width="54" height="43" viewBox="0 0 54 43" fill="none" xmlns="http://www.w3.org/2000/svg">
<path d="M53.2192 22.394L42.5965 11.7713V4.77101C42.5965 3.8953 41.8894 3.1882 41.0136 3.1882C40.1379 3.1882 39.4308 3.8953 39.4308 4.77101V8.61653L31.941 1.1213C31.3264 0.501233 30.3256 0.501233 29.711 1.1213L18.5878 12.2499C17.9732 12.8645 17.9732 13.8654 18.5878 14.4854C19.2024 15.1001 20.2032 15.1001 20.8233 14.4854L30.8315 4.47729L50.9891 24.635C51.2937 24.9396 51.7017 25.0973 52.1042 25.0973C52.5067 25.0973 52.9146 24.945 53.2192 24.635C53.8338 24.0095 53.8338 23.0087 53.2192 22.394Z" fill="white"/>
<path d="M48.7002 24.2053L31.9475 7.45257C31.6483 7.15341 31.2512 6.99023 30.8324 6.99023C30.4136 6.99023 30.0111 7.15885 29.7174 7.45257L21.1506 16.0193C21.1778 16.0193 21.1996 16.0139 21.2268 16.0139C21.7054 16.0139 22.1732 16.1499 22.5811 16.4109C23.223 16.8243 23.6364 17.4933 23.7179 18.2494L23.7234 18.2875H23.8485C24.5773 18.2875 25.2681 18.6029 25.7468 19.1523C26.2472 19.7289 26.4539 20.4849 26.3179 21.2355L26.3124 21.2736L26.3451 21.2845C27.0848 21.4694 27.6886 21.9752 28.004 22.6715C28.3195 23.3622 28.3086 24.1509 27.966 24.8308L27.9496 24.8635L27.9823 24.8798C28.4446 25.1517 28.7982 25.5651 29.0048 26.0492C29.4672 25.5325 30.109 25.1844 30.8433 25.1191C32.2901 25.2551 33.4052 26.4735 33.4052 27.9312V33.9361C33.4052 34.8988 33.7696 35.818 34.4223 36.5306C35.1457 37.3138 36.1683 37.7598 37.2235 37.7598H45.3986C47.5036 37.7598 49.2169 36.0465 49.2169 33.9415V25.7501C49.2169 25.5107 49.1952 25.266 49.1462 25.0266C49.0755 24.7166 48.9232 24.4283 48.7002 24.2053Z" fill="white"/>
<path d="M27.2313 27.279C27.1715 26.8656 26.9267 26.5012 26.5677 26.2891L25.643 25.7343L26.1271 24.7661C26.3121 24.3908 26.3229 23.9502 26.1489 23.5749C25.9748 23.1941 25.6376 22.9113 25.2351 22.808L24.1908 22.5414L24.3811 21.4808C24.4573 21.0674 24.3376 20.6432 24.0657 20.3277C23.7937 20.0122 23.3912 19.8382 22.9724 19.8545L21.89 19.8925L21.7758 18.8156C21.7322 18.4022 21.5038 18.0269 21.1503 17.7985C20.7967 17.57 20.3616 17.5156 19.9645 17.6516L18.9419 17.9943L18.5286 16.9989C18.3708 16.6127 18.039 16.319 17.642 16.1993C17.2395 16.0797 16.8043 16.1504 16.4617 16.3897L15.5751 17.0098L14.8897 16.1613C14.6286 15.8349 14.2316 15.6445 13.8128 15.6445C13.3939 15.6445 12.9969 15.8349 12.7358 16.1613L12.0613 17.0043L11.1748 16.3843C10.8321 16.1449 10.3969 16.0742 9.99445 16.1939C9.59194 16.3136 9.26559 16.6073 9.10786 16.9935L8.69448 17.9888L7.67191 17.6462C7.27484 17.5102 6.83971 17.5646 6.48616 17.793C6.13261 18.0215 5.90416 18.3913 5.86065 18.8101L5.74643 19.8871L4.66403 19.849C4.25065 19.8382 3.84271 20.0068 3.57075 20.3222C3.29879 20.6377 3.17912 21.062 3.25527 21.4754L3.44564 22.536L2.39588 22.8025C1.98794 22.9059 1.65071 23.1887 1.47665 23.564C1.3026 23.9448 1.31348 24.3853 1.49841 24.7606L1.9825 25.7288L1.04696 26.2782C0.687968 26.4903 0.443204 26.8547 0.383373 27.2681C0.323542 27.6815 0.454083 28.1003 0.74236 28.4049L1.48209 29.1936L0.74236 29.9823C0.459522 30.2869 0.323542 30.7057 0.383373 31.1191C0.443204 31.5324 0.687968 31.9023 1.04696 32.109L1.97706 32.6638L1.49297 33.6265C1.30804 34.0018 1.29716 34.4424 1.47121 34.8177C1.64527 35.1985 1.9825 35.4813 2.39044 35.5847L3.43477 35.8512L3.24439 36.9118C3.16825 37.3252 3.28791 37.744 3.55987 38.0649C3.83183 38.3804 4.23977 38.5545 4.65315 38.5381L5.73555 38.5001L5.84977 39.5716C5.89329 39.985 6.12717 40.3603 6.47528 40.5887C6.82883 40.8172 7.26397 40.8661 7.66103 40.7356L8.6836 40.3929L9.09698 41.3937C9.25471 41.7799 9.58107 42.0736 9.98357 42.1933C10.3861 42.3075 10.8212 42.2422 11.1639 42.0029L12.0505 41.3828L12.7304 42.2259C12.9914 42.5523 13.3885 42.7426 13.8073 42.7426C14.2261 42.7426 14.6232 42.5523 14.8843 42.2259L15.5588 41.3828L16.4453 42.0029C16.788 42.2422 17.2231 42.3075 17.6256 42.1933C18.0281 42.0736 18.3545 41.7799 18.5122 41.3937L18.9256 40.3929L19.9482 40.7356C20.3452 40.8661 20.7804 40.8172 21.1339 40.5887C21.4875 40.3603 21.7159 39.9904 21.7594 39.5716L21.8737 38.4946L22.9506 38.5381C23.364 38.5545 23.7719 38.375 24.0493 38.0649C24.3213 37.7495 24.441 37.3252 24.3648 36.9118L24.169 35.8512L25.2188 35.5847C25.6213 35.4813 25.9585 35.1985 26.1326 34.8177C26.3066 34.437 26.2957 34.0018 26.1108 33.6265L25.6267 32.6584L26.5568 32.109C26.9158 31.8969 27.1606 31.5324 27.2204 31.1136C27.2802 30.7002 27.1497 30.2814 26.8669 29.9768L26.1326 29.1881L26.8669 28.3995C27.1606 28.1112 27.2911 27.6924 27.2313 27.279ZM8.05809 34.6491H6.87234V28.6225H8.05809V34.6491ZM19.1976 35.1604L13.3287 35.8131L10.0652 34.1977V29.422L15.3249 23.1941C15.3466 23.1669 15.3684 23.1398 15.3847 23.1071L16.4127 21.3285H17.2503L16.9947 23.5314L15.4772 26.7242C15.401 26.8819 15.401 27.0614 15.4717 27.2192C15.5424 27.3769 15.6784 27.4966 15.8416 27.5455L19.6436 28.6823L19.1976 35.1604Z" fill="white"/>
</svg>
