<svg width="23" height="23" viewBox="0 0 23 23" fill="none" xmlns="http://www.w3.org/2000/svg">
<path d="M20.73 6.08215L11.9189 15.0954L11.2061 15.8086C11.0167 15.997 10.7604 16.1028 10.4932 16.1028C10.226 16.1028 9.96967 15.997 9.78021 15.8086L6.93239 12.9603C6.83876 12.8667 6.76449 12.7556 6.7138 12.6333C6.66312 12.511 6.63702 12.3799 6.637 12.2475C6.63697 12.1151 6.66303 11.984 6.71367 11.8617C6.76431 11.7394 6.83854 11.6282 6.93214 11.5346C7.02573 11.441 7.13685 11.3667 7.25915 11.316C7.38145 11.2653 7.51254 11.2392 7.64492 11.2392C7.77731 11.2392 7.90841 11.2652 8.03072 11.3159C8.15304 11.3665 8.26419 11.4407 8.35781 11.5343L10.4788 13.6558L19.545 4.40823C17.6943 2.24977 15.0831 0.887309 12.254 0.603912C9.42494 0.320516 6.59542 1.13798 4.35335 2.88645C2.11128 4.63493 0.62903 7.18 0.214566 9.99287C-0.199897 12.8058 0.485288 15.6702 2.12777 17.991C3.77024 20.3119 6.24373 21.9107 9.03433 22.4553C11.8249 23 14.7181 22.4485 17.1127 20.9156C19.5073 19.3827 21.2193 16.9861 21.8929 14.2238C22.5665 11.4615 22.1501 8.54587 20.73 6.08265V6.08215Z" fill="white"/>
</svg>
