<svg width="15" height="14" viewBox="0 0 15 14" fill="none" xmlns="http://www.w3.org/2000/svg">
<path fill-rule="evenodd" clip-rule="evenodd" d="M7.43601 7.44274C9.16658 7.44274 10.5696 5.80896 10.5696 3.79362C10.5696 0.998886 9.16665 0.144531 7.43601 0.144531C5.7053 0.144531 4.30237 0.998886 4.30237 3.79362C4.3024 5.80896 5.70533 7.44274 7.43601 7.44274Z" fill="black"/>
<path fill-rule="evenodd" clip-rule="evenodd" d="M14.3556 12.8137L12.7746 9.27048C12.7023 9.10834 12.5753 8.97387 12.4172 8.89197L9.96363 7.62124C9.90952 7.59327 9.84401 7.59871 9.79537 7.63535C9.10142 8.15754 8.28549 8.43356 7.43588 8.43356C6.58614 8.43356 5.77028 8.15754 5.07633 7.63535C5.02755 7.59871 4.96204 7.59327 4.90793 7.62124L2.45455 8.89197C2.29636 8.97387 2.16946 9.10828 2.09708 9.27048L0.516124 12.8137C0.407126 13.058 0.429466 13.3375 0.5759 13.5616C0.722266 13.7856 0.969979 13.9193 1.23856 13.9193H13.6331C13.9017 13.9193 14.1495 13.7855 14.2958 13.5615C14.4422 13.3375 14.4646 13.0579 14.3556 12.8137Z" fill="black"/>
</svg>
