<svg width="13" height="21" viewBox="0 0 13 21" fill="none" xmlns="http://www.w3.org/2000/svg">
<rect width="9.36176" height="11.8665" transform="matrix(-1 0 0 1 10.2747 4.96289)" fill="black"/>
<path fill-rule="evenodd" clip-rule="evenodd" d="M10.7137 20.5302H2.33949C1.32559 20.5291 0.503942 19.7168 0.502787 18.7145V2.15948C0.503942 1.15715 1.32559 0.344892 2.33949 0.34375H10.7137C11.7276 0.344892 12.5493 1.15715 12.5504 2.15948V18.7145C12.5493 19.7168 11.7276 20.5291 10.7137 20.5302ZM11.7351 2.1598C11.7339 1.60278 11.2774 1.15151 10.714 1.15037H2.33977C1.77631 1.15151 1.31983 1.60278 1.31868 2.1598V18.7148C1.31983 19.2718 1.77631 19.7231 2.33977 19.7243H10.714C11.2774 19.7231 11.7339 19.2718 11.7351 18.7148V2.1598Z" fill="black"/>
</svg>
