<svg width="34" height="35" viewBox="0 0 34 35" fill="none" xmlns="http://www.w3.org/2000/svg">
<path d="M31.739 8.84971L18.2534 22.6446L17.1626 23.7362C16.8726 24.0246 16.4803 24.1864 16.0713 24.1864C15.6624 24.1864 15.2701 24.0246 14.9801 23.7362L10.6215 19.3768C10.4782 19.2336 10.3645 19.0635 10.2869 18.8763C10.2094 18.6891 10.1694 18.4885 10.1694 18.2859C10.1694 18.0833 10.2092 17.8826 10.2867 17.6954C10.3642 17.5082 10.4779 17.3381 10.6211 17.1948C10.7644 17.0515 10.9344 16.9378 11.1216 16.8602C11.3088 16.7827 11.5094 16.7427 11.712 16.7427C11.9147 16.7426 12.1153 16.7825 12.3025 16.86C12.4897 16.9375 12.6598 17.0512 12.8031 17.1944L16.0494 20.4414L29.9253 6.28775C27.0928 2.98419 23.0963 0.898911 18.7664 0.465167C14.4364 0.0314234 10.1058 1.28256 6.67422 3.95864C3.24269 6.63472 0.974081 10.53 0.339737 14.8351C-0.294607 19.1403 0.754082 23.5244 3.26793 27.0765C5.78177 30.6286 9.56749 33.0756 13.8386 33.9092C18.1096 34.7428 22.5376 33.8988 26.2026 31.5526C29.8676 29.2064 32.4878 25.5384 33.5189 21.3107C34.5499 17.0829 33.9124 12.6205 31.739 8.85048V8.84971Z" fill="#FFFEF8"/>
</svg>
