<svg width="56" height="45" viewBox="0 0 56 45" fill="none" xmlns="http://www.w3.org/2000/svg">
<path d="M54.6968 8.66416H52.3291V6.24982C52.3291 5.56118 51.7859 5.02344 51.0972 5.02344C50.4223 5.02344 49.8709 5.5749 49.8709 6.24982V8.66416H47.6486C46.9709 8.66416 46.4194 9.21562 46.4194 9.89603C46.4194 10.5737 46.9709 11.1224 47.6486 11.1224H49.8709V13.2926C49.8709 13.973 50.4223 14.5272 51.0972 14.5272C51.7859 14.5272 52.3291 13.984 52.3291 13.2926V11.1224H54.6968C55.38 11.1224 55.9342 10.571 55.9342 9.89603C55.9342 9.21837 55.38 8.66416 54.6968 8.66416Z" fill="white"/>
<path d="M48.3375 14.1162L47.3169 15.0654L47.3224 15.0737L47.2977 15.0874L46.6557 15.7047V15.7019L41.067 21.0684L41.0369 21.0409L32.7897 13.123L32.3781 12.7142C29.8979 10.2367 30.4274 7.69618 30.9624 6.40121C31.9666 3.97315 34.4056 2.27487 36.8886 2.27487C38.0518 2.27487 39.1767 2.63428 40.233 3.33938L41.0698 3.89907L41.9066 3.33938C42.9766 2.62605 44.1097 2.2639 45.2757 2.2639C46.1454 2.2639 47.0618 2.49162 47.926 2.92236C47.9699 2.94156 48.0138 2.96351 48.0577 2.9882C48.0796 3.00192 48.1043 3.0129 48.1263 3.02387C48.1592 3.04033 48.1894 3.05679 48.2195 3.07051C48.2634 3.09246 48.3073 3.11441 48.3512 3.1391L48.4061 3.17202L48.4006 3.17751C48.771 3.41346 49.1112 3.71251 49.3911 4.04448C49.7642 3.58356 50.1538 3.27079 50.7766 3.23787C49.2841 1.66306 47.3334 0.798828 45.2784 0.798828C43.8188 0.798828 42.4114 1.24329 41.0945 2.12123L41.0698 2.13769L41.0451 2.12123C39.7446 1.25152 38.3454 0.807059 36.8858 0.807059C33.824 0.807059 30.8308 2.87572 29.6044 5.83878C28.4548 8.61528 29.0886 11.4988 31.3411 13.7485L31.3548 13.7622V13.776L40.2687 22.3332C40.4854 22.5389 40.7707 22.6514 41.0725 22.6514C41.3716 22.6514 41.6542 22.5389 41.8654 22.3332L49.2072 15.2849L49.199 15.2739C48.8369 14.9173 48.5268 14.6073 48.3375 14.1162Z" fill="white"/>
<path d="M32.5423 20.582H2.36148C1.16084 20.582 0.185059 21.5578 0.185059 22.7585V42.3503C0.185059 43.551 1.16084 44.5267 2.36148 44.5267H32.5423C33.743 44.5267 34.7188 43.551 34.7188 42.3503V22.7585C34.7188 21.5578 33.743 20.582 32.5423 20.582ZM3.93156 31.7693V25.1838C3.93156 24.3807 4.58208 23.7342 5.38118 23.7342H7.91097V33.223H5.38118C4.58208 33.219 3.93156 32.5725 3.93156 31.7693ZM8.29646 40.7802C8.29646 41.0653 8.06356 41.2942 7.78247 41.2942H6.07988C5.79478 41.2942 5.56589 41.0613 5.56589 40.7802V37.4995C5.56589 37.2144 5.79879 36.9855 6.07988 36.9855H7.78247C8.06758 36.9855 8.29646 37.2184 8.29646 37.4995V40.7802ZM12.4244 40.7802C12.4244 41.0653 12.1915 41.2942 11.9105 41.2942H10.2079C9.92276 41.2942 9.69387 41.0613 9.69387 40.7802V37.4995C9.69387 37.2144 9.92677 36.9855 10.2079 36.9855H11.9105C12.1956 36.9855 12.4244 37.2184 12.4244 37.4995V40.7802ZM13.4203 31.7693C13.4203 32.5725 12.7698 33.219 11.9707 33.219H9.44089V29.2355H13.4243L13.4203 31.7693ZM13.4203 27.7136H9.43688V23.7302H11.9667C12.7698 23.7302 13.4163 24.3807 13.4163 25.1798L13.4203 27.7136ZM21.09 40.7802C21.09 41.0653 20.8571 41.2942 20.576 41.2942H18.8734C18.5883 41.2942 18.3594 41.0613 18.3594 40.7802V37.4995C18.3594 37.2144 18.5923 36.9855 18.8734 36.9855H20.576C20.8611 36.9855 21.09 37.2184 21.09 37.4995V40.7802ZM25.214 40.7802C25.214 41.0653 24.9851 41.2942 24.7 41.2942H22.9974C22.7123 41.2942 22.4834 41.0613 22.4834 40.7802V37.4995C22.4834 37.2144 22.7123 36.9855 22.9974 36.9855H24.7C24.9851 36.9855 25.214 37.2184 25.214 37.4995V40.7802ZM29.3419 40.7802C29.3419 41.0653 29.109 41.2942 28.828 41.2942H27.1254C26.8403 41.2942 26.6114 41.0613 26.6114 40.7802V37.4995C26.6114 37.2144 26.8443 36.9855 27.1254 36.9855H28.828C29.1131 36.9855 29.3419 37.2184 29.3419 37.4995V40.7802Z" fill="white"/>
<path d="M14.3842 6.95768L11.9869 9.35496L22.0338 19.4019H14.9744L8.4572 12.8846L3.03622 18.3056L4.13246 19.4019H1.63077C1.08466 18.7032 1.13284 17.6872 1.77533 17.0447L13.1233 5.6968C13.818 5.00211 14.9503 5.00211 15.645 5.6968L29.3501 19.4019H26.8283L14.3842 6.95768Z" fill="white"/>
</svg>
