<svg width="63" height="50" viewBox="0 0 63 50" fill="none" xmlns="http://www.w3.org/2000/svg">
<path d="M61.7468 25.9166L49.4427 13.6125V5.50431C49.4427 4.48999 48.6237 3.67098 47.6093 3.67098C46.595 3.67098 45.776 4.48999 45.776 5.50431V9.95848L37.1008 1.27694C36.3889 0.558728 35.2296 0.558728 34.5177 1.27694L21.634 14.1669C20.9221 14.8789 20.9221 16.0381 21.634 16.7563C22.3459 17.4682 23.5052 17.4682 24.2234 16.7563L35.8156 5.1641L59.1637 28.5123C59.5165 28.8651 59.989 29.0478 60.4552 29.0478C60.9215 29.0478 61.394 28.8714 61.7468 28.5123C62.4587 27.7878 62.4587 26.6285 61.7468 25.9166Z" fill="white"/>
<path d="M56.5116 28.016L37.1073 8.61168C36.7608 8.26517 36.3009 8.07617 35.8157 8.07617C35.3306 8.07617 34.8644 8.27148 34.5242 8.61168L24.6016 18.5343C24.6331 18.5343 24.6583 18.528 24.6898 18.528C25.2442 18.528 25.786 18.6855 26.2585 18.9879C27.0019 19.4668 27.4807 20.2417 27.5752 21.1174L27.5815 21.1615H27.7264C28.5706 21.1615 29.3707 21.5269 29.9251 22.1632C30.5048 22.831 30.7442 23.7067 30.5867 24.5761L30.5804 24.6202L30.6182 24.6328C31.475 24.847 32.1743 25.433 32.5397 26.2394C32.9051 27.0395 32.8925 27.953 32.4956 28.7405L32.4767 28.7783L32.5145 28.7972C33.05 29.1122 33.4595 29.591 33.6989 30.1517C34.2344 29.5532 34.9778 29.15 35.8283 29.0744C37.5042 29.2319 38.7957 30.6431 38.7957 32.3316V39.2869C38.7957 40.402 39.2178 41.4667 39.9738 42.292C40.8117 43.1992 41.9961 43.7158 43.2184 43.7158H52.6874C55.1256 43.7158 57.1101 41.7313 57.1101 39.2932V29.8052C57.1101 29.528 57.0849 29.2445 57.0282 28.9673C56.9463 28.6082 56.7699 28.2743 56.5116 28.016Z" fill="white"/>
<path d="M31.645 31.5736C31.5757 31.0948 31.2922 30.6727 30.8764 30.427L29.8054 29.7843L30.3661 28.6629C30.5803 28.2282 30.5929 27.7179 30.3913 27.2832C30.1897 26.8422 29.7991 26.5146 29.3329 26.3949L28.1233 26.0862L28.3438 24.8577C28.432 24.3789 28.2934 23.8874 27.9784 23.522C27.6634 23.1566 27.1972 22.955 26.7121 22.9739L25.4583 23.018L25.326 21.7706C25.2756 21.2918 25.011 20.8571 24.6015 20.5925C24.192 20.3279 23.688 20.2649 23.2281 20.4224L22.0437 20.8193L21.5649 19.6664C21.3822 19.2191 20.9979 18.8789 20.538 18.7403C20.0717 18.6017 19.5677 18.6836 19.1708 18.9608L18.1439 19.679L17.3501 18.6962C17.0477 18.3182 16.5878 18.0977 16.1027 18.0977C15.6176 18.0977 15.1577 18.3182 14.8553 18.6962L14.0741 19.6727L13.0471 18.9545C12.6502 18.6773 12.1462 18.5954 11.68 18.734C11.2138 18.8726 10.8358 19.2128 10.6531 19.6601L10.1743 20.813L8.98987 20.4161C8.52996 20.2586 8.02595 20.3216 7.61645 20.5862C7.20694 20.8508 6.94234 21.2792 6.89194 21.7643L6.75963 23.0117L5.50591 22.9676C5.02711 22.955 4.5546 23.1503 4.23959 23.5157C3.92459 23.8811 3.78599 24.3726 3.87419 24.8514L4.09469 26.0799L2.87877 26.3886C2.40626 26.5083 2.01566 26.8359 1.81406 27.2706C1.61245 27.7116 1.62505 28.2219 1.83926 28.6566L2.39996 29.778L1.31635 30.4144C0.900541 30.6601 0.617036 31.0822 0.547735 31.561C0.478434 32.0398 0.629636 32.5249 0.963542 32.8777L1.82036 33.7912L0.963542 34.7047C0.635936 35.0575 0.478434 35.5426 0.547735 36.0214C0.617036 36.5002 0.900541 36.9287 1.31635 37.1681L2.39366 37.8107L1.83296 38.9258C1.61875 39.3605 1.60615 39.8708 1.80776 40.3055C2.00936 40.7465 2.39996 41.0741 2.87247 41.1938L4.08209 41.5025L3.86159 42.7311C3.77339 43.2099 3.91199 43.695 4.22699 44.0667C4.542 44.4321 5.01451 44.6337 5.49331 44.6148L6.74703 44.5707L6.87934 45.8118C6.92974 46.2906 7.20064 46.7253 7.60385 46.9899C8.01335 47.2545 8.51736 47.3112 8.97727 47.16L10.1617 46.7631L10.6405 47.9223C10.8232 48.3696 11.2012 48.7098 11.6674 48.8484C12.1336 48.9807 12.6376 48.9051 13.0345 48.6279L14.0615 47.9097L14.849 48.8862C15.1514 49.2643 15.6113 49.4848 16.0964 49.4848C16.5815 49.4848 17.0414 49.2643 17.3438 48.8862L18.125 47.9097L19.1519 48.6279C19.5488 48.9051 20.0528 48.9807 20.5191 48.8484C20.9853 48.7098 21.3633 48.3696 21.546 47.9223L22.0248 46.7631L23.2092 47.16C23.6691 47.3112 24.1731 47.2545 24.5826 46.9899C24.9921 46.7253 25.2567 46.2969 25.3071 45.8118L25.4394 44.5644L26.6869 44.6148C27.1657 44.6337 27.6382 44.4258 27.9595 44.0667C28.2745 43.7013 28.4131 43.2099 28.3249 42.7311L28.0981 41.5025L29.314 41.1938C29.7802 41.0741 30.1708 40.7465 30.3724 40.3055C30.574 39.8645 30.5614 39.3605 30.3472 38.9258L29.7865 37.8044L30.8638 37.1681C31.2796 36.9224 31.5631 36.5003 31.6324 36.0151C31.7017 35.5363 31.5505 35.0512 31.2229 34.6984L30.3724 33.7849L31.2229 32.8714C31.5631 32.5375 31.7143 32.0524 31.645 31.5736ZM9.43718 40.1102H8.06375V33.1297H9.43718V40.1102ZM22.3398 40.7024L15.542 41.4584L11.7619 39.5873V34.0558L17.8541 26.8422C17.8793 26.8107 17.9045 26.7792 17.9234 26.7414L19.1141 24.6813H20.0843L19.7882 27.2328L18.0305 30.931C17.9423 31.1137 17.9423 31.3216 18.0242 31.5043C18.1061 31.687 18.2636 31.8256 18.4526 31.8823L22.8564 33.199L22.3398 40.7024Z" fill="white"/>
</svg>
