<svg width="50" height="48" viewBox="0 0 50 48" fill="none" xmlns="http://www.w3.org/2000/svg">
<path fill-rule="evenodd" clip-rule="evenodd" d="M38.0495 9.33757C37.973 9.47023 37.8669 9.5835 37.7395 9.66861C37.6121 9.75372 37.4669 9.80839 37.315 9.82839C37.1632 9.84839 37.0087 9.83319 36.8637 9.78395C36.7186 9.73471 36.5868 9.65277 36.4785 9.54445C36.3702 9.43613 36.2883 9.30435 36.239 9.1593C36.1898 9.01424 36.1746 8.8598 36.1946 8.70793C36.2146 8.55606 36.2693 8.41083 36.3544 8.28346C36.4395 8.1561 36.5527 8.05003 36.6854 7.97345V5.34206C36.6854 5.06694 36.9071 4.84375 37.1847 4.84375C37.4603 4.84375 37.684 5.06644 37.684 5.34206V7.97345C37.8358 8.06083 37.9622 8.18715 38.0495 8.33894H41.1817C41.4563 8.33894 41.6785 8.56064 41.6785 8.83825C41.6785 9.11388 41.4509 9.33757 41.1817 9.33757H38.0495Z" fill="white"/>
<path fill-rule="evenodd" clip-rule="evenodd" d="M37.2878 15.7355C41.1408 15.7355 44.2643 12.612 44.2643 8.75899C44.2643 4.90596 41.1408 1.78246 37.2878 1.78246C33.4348 1.78246 30.3113 4.90596 30.3113 8.75899C30.3113 12.612 33.4348 15.7355 37.2878 15.7355ZM37.2878 16.7797C41.7175 16.7797 45.3085 13.1887 45.3085 8.75899C45.3085 4.32928 41.7175 0.738281 37.2878 0.738281C32.8581 0.738281 29.2671 4.32928 29.2671 8.75899C29.2671 13.1887 32.8581 16.7797 37.2878 16.7797Z" fill="white"/>
<path d="M8.42922 26.6237H11.9531L6.17032 34.4897L0.392578 26.6237H3.91645C3.91645 15.003 13.3687 5.55078 24.9894 5.55078V10.0686C15.8635 10.0635 8.42922 17.4928 8.42922 26.6237ZM49.5863 26.6237H46.0624C46.0624 38.2445 36.6102 47.6967 24.9894 47.6967V43.1789C34.1204 43.1789 41.5496 35.7497 41.5496 26.6187H38.0308L43.8085 18.7528L49.5863 26.6237Z" fill="white"/>
<path d="M32.3171 26.7785C32.3086 26.7021 32.2746 26.6256 32.2173 26.5661L24.9566 19.2715C24.8186 19.1335 24.5956 19.1335 24.4576 19.2715L17.1651 26.598C17.129 26.6341 17.1035 26.6744 17.0865 26.719C17.061 26.77 17.0461 26.8295 17.0461 26.8889V35.3325C17.0461 35.5491 17.2203 35.7232 17.4369 35.7232H22.0919V29.2525C22.0919 29.0359 22.266 28.8618 22.4826 28.8618H26.8998C27.1142 28.8618 27.2905 29.038 27.2905 29.2525V35.7253H31.9476C32.1621 35.7253 32.3383 35.5491 32.3383 35.3346V26.8911C32.3341 26.8507 32.3277 26.8146 32.3171 26.7785Z" fill="white"/>
<path d="M34.8716 26.0807L32.009 23.2032V20.3342C32.1938 20.3023 32.3339 20.143 32.3339 19.9477V19.2957C32.3339 19.0791 32.1598 18.9028 31.9432 18.9028H27.7278L25.1497 16.312C25.1306 16.2929 25.1136 16.2759 25.0924 16.2611L25.0435 16.2122C24.9522 16.1188 24.8227 16.0805 24.6868 16.089C24.5508 16.0805 24.4213 16.1188 24.33 16.2122L24.2811 16.2611C24.262 16.278 24.2429 16.2929 24.2238 16.312L14.5061 26.0807C14.2513 26.3355 14.2067 26.7029 14.4063 26.9025L14.8225 27.3209C15.02 27.5205 15.3874 27.4759 15.6422 27.2211L24.6889 18.132L33.7355 27.2211C33.9903 27.4759 34.3556 27.5205 34.5552 27.3209L34.9715 26.9025C35.169 26.7029 35.1244 26.3355 34.8716 26.0807Z" fill="white"/>
</svg>
