<svg width="50" height="46" viewBox="0 0 50 46" fill="none" xmlns="http://www.w3.org/2000/svg">
<path d="M33.9473 0.448383C27.6583 0.935163 22.9694 3.42429 22.3423 6.60644C21.9494 8.59999 23.6243 10.7709 26.6099 12.156C29.5673 13.5318 33.6849 14.196 37.5972 13.934C40.7701 13.719 43.0534 13.1574 45.4116 11.9967C51.6073 8.96458 50.5589 3.88272 43.2401 1.48695C40.6484 0.635569 36.9423 0.224054 33.9473 0.448383Z" fill="white"/>
<path d="M48.9678 11.3134C48.8182 11.4727 48.266 11.8935 47.742 12.24C43.6337 14.9633 37.831 15.9838 31.7761 15.0478C31.1212 14.9447 30.475 14.8421 30.3534 14.8044C30.1847 14.7673 30.5034 15.1319 31.4017 16.0492C32.1128 16.7603 32.9368 17.7056 33.2452 18.1547L33.8068 18.9597L34.6958 19.0251C36.3242 19.1561 39.0475 18.9504 41.0596 18.5477C43.1279 18.1361 45.4396 17.2281 46.8711 16.2545C48.4062 15.2345 49.3607 13.8402 49.4448 12.5108C49.4824 12.0709 49.4541 11.6687 49.37 11.416L49.2483 11.0133L48.9678 11.3134Z" fill="white"/>
<path d="M48.6404 16.6014C45.8424 19.0441 41.6681 20.3265 36.1747 20.4106C35.3605 20.4199 34.6963 20.4482 34.6963 20.4761C34.6963 20.5039 34.8556 20.8974 35.0614 21.3651C35.2578 21.8235 35.5667 22.647 35.7353 23.1807L36.0535 24.1543L37.1766 24.0888C43.0165 23.7614 47.6771 21.7492 49.0529 18.96C49.4644 18.1458 49.5861 17.1629 49.371 16.4704L49.2493 16.0677L48.6404 16.6014Z" fill="white"/>
<path d="M48.7344 21.617C46.3386 23.7792 42.5387 25.089 37.7095 25.4262C37.0263 25.4731 36.4461 25.5293 36.4183 25.5572C36.3899 25.585 36.409 25.9785 36.4652 26.4369C36.5121 26.886 36.5869 27.7003 36.624 28.2335L36.6802 29.1973L37.5878 29.1318C40.4611 28.926 43.0626 28.3175 45.1402 27.3538C47.0683 26.4555 48.425 25.2947 49.0706 23.9937C49.4172 23.2826 49.4357 23.198 49.4264 22.4029C49.4264 21.9352 49.3795 21.4577 49.3326 21.3545C49.249 21.1586 49.23 21.1771 48.7344 21.617Z" fill="white"/>
<path fill-rule="evenodd" clip-rule="evenodd" d="M17.8462 45.5724C27.1628 45.5724 34.7154 38.0198 34.7154 28.7032C34.7154 19.3866 27.1628 11.834 17.8462 11.834C8.52965 11.834 0.977051 19.3866 0.977051 28.7032C0.977051 38.0198 8.52965 45.5724 17.8462 45.5724ZM7.53876 34.5645C8.32543 35.0651 9.21938 35.3154 10.2206 35.3154C11.2218 35.3154 12.1158 35.0651 12.9024 34.5645C13.701 34.0519 14.3268 33.3129 14.7797 32.3475C15.2327 31.3701 15.4591 30.2139 15.4591 28.879C15.4591 27.544 15.2327 26.3938 14.7797 25.4283C14.3268 24.451 13.701 23.712 12.9024 23.2113C12.1158 22.6988 11.2218 22.4426 10.2206 22.4426C9.21938 22.4426 8.32543 22.6988 7.53876 23.2113C6.75209 23.712 6.13228 24.451 5.67935 25.4283C5.22642 26.3938 4.99995 27.544 4.99995 28.879C4.99995 30.2139 5.22642 31.3701 5.67935 32.3475C6.13228 33.3129 6.75209 34.0519 7.53876 34.5645ZM12.3303 32.1866C11.8178 32.9256 11.1145 33.2951 10.2206 33.2951C9.33857 33.2951 8.63533 32.9256 8.11088 32.1866C7.59836 31.4476 7.34209 30.345 7.34209 28.879C7.34209 27.4129 7.59836 26.3104 8.11088 25.5714C8.63533 24.8324 9.33857 24.4629 10.2206 24.4629C11.1145 24.4629 11.8178 24.8324 12.3303 25.5714C12.8548 26.3104 13.117 27.4129 13.117 28.879C13.117 30.345 12.8548 31.4476 12.3303 32.1866ZM17.6556 28.4141C18.2039 29.0458 18.925 29.3617 19.8189 29.3617C20.7129 29.3617 21.434 29.0518 21.9823 28.432C22.5425 27.8003 22.8226 26.9659 22.8226 25.9289C22.8226 24.892 22.5425 24.0636 21.9823 23.4438C21.434 22.812 20.7129 22.4962 19.8189 22.4962C18.925 22.4962 18.2039 22.812 17.6556 23.4438C17.1073 24.0755 16.8332 24.9039 16.8332 25.9289C16.8332 26.954 17.1073 27.7824 17.6556 28.4141ZM29.0802 22.6213H27.3281L18.782 35.1366H20.5341L29.0802 22.6213ZM20.9453 27.538C20.6831 27.9195 20.3076 28.1102 19.8189 28.1102C19.3541 28.1102 18.9786 27.9195 18.6926 27.538C18.4184 27.1447 18.2813 26.6083 18.2813 25.9289C18.2813 25.2495 18.4184 24.7191 18.6926 24.3377C18.9786 23.9444 19.3541 23.7477 19.8189 23.7477C20.3076 23.7477 20.6831 23.9384 20.9453 24.3198C21.2195 24.7013 21.3565 25.2376 21.3565 25.9289C21.3565 26.6203 21.2195 27.1566 20.9453 27.538ZM25.862 34.3142C26.4103 34.9459 27.1314 35.2617 28.0254 35.2617C28.9193 35.2617 29.6404 34.9459 30.1887 34.3142C30.7489 33.6824 31.029 32.8541 31.029 31.829C31.029 30.8039 30.7489 29.9755 30.1887 29.3438C29.6404 28.7121 28.9193 28.3962 28.0254 28.3962C27.1314 28.3962 26.4103 28.7121 25.862 29.3438C25.3137 29.9755 25.0396 30.8039 25.0396 31.829C25.0396 32.8541 25.3137 33.6824 25.862 34.3142ZM29.1517 33.4381C28.8776 33.8195 28.5021 34.0102 28.0254 34.0102C27.5486 34.0102 27.1731 33.8195 26.899 33.4381C26.6249 33.0567 26.4878 32.5203 26.4878 31.829C26.4878 31.1377 26.6249 30.6013 26.899 30.2199C27.1731 29.8385 27.5486 29.6478 28.0254 29.6478C28.5021 29.6478 28.8776 29.8444 29.1517 30.2378C29.4259 30.6192 29.563 31.1496 29.563 31.829C29.563 32.5084 29.4259 33.0448 29.1517 33.4381Z" fill="white"/>
</svg>
