<svg width="47" height="46" viewBox="0 0 47 46" fill="none" xmlns="http://www.w3.org/2000/svg">
<path d="M18.8322 0.149004C17.1558 0.357307 15.9249 0.925406 14.0497 2.37453C12.184 3.80472 10.8395 5.7552 10.2993 7.8103C9.93007 9.20262 9.99635 11.3997 10.4508 12.5644C10.5076 12.7064 10.4698 12.7348 10.2141 12.7348C9.76911 12.7348 9.39985 13.1514 9.30516 13.7384C9.17261 14.619 9.61762 16.6362 10.2615 18.0948C10.4982 18.625 11.0189 19.2689 11.2083 19.2689C11.284 19.2689 11.3787 19.4772 11.445 19.8086C12.2119 23.6915 14.2102 26.097 17.4778 27.1006C18.1973 27.3184 18.4814 27.3562 19.5897 27.3562C20.527 27.3657 21.0293 27.3184 21.4743 27.1953C23.4916 26.6461 24.855 25.6893 25.9159 24.1081C26.5882 23.1045 27.0147 22.1004 27.3461 20.7748L27.5923 19.7617L27.8953 19.7712C28.3214 19.7806 28.6816 19.4208 29.0883 18.5308C29.7984 17.0059 30.2534 14.8372 30.0167 14.0608C29.9504 13.843 29.7894 13.5495 29.6663 13.4264L29.4296 13.1897L29.619 11.9967C30.3575 7.43204 29.5054 4.38277 27.2798 3.58695C26.939 3.46387 26.7591 3.31237 26.5034 2.95257C25.7644 1.91106 23.8613 0.717575 22.2891 0.329372C21.3986 0.10166 19.8358 0.0164471 18.8322 0.149004Z" fill="white"/>
<path d="M42.3939 25.0668C42.1572 25.2657 38.7197 30.8718 38.7197 31.0712C38.7197 31.4215 38.9091 31.4878 39.8749 31.4878H40.8032V38.117C40.8032 44.6232 40.8032 44.7463 40.9926 44.9356C41.163 45.1061 41.3051 45.125 42.5833 45.125C43.6915 45.125 44.0229 45.0966 44.1934 44.9735L44.4017 44.8315V38.1549V31.4878H45.3395C46.0686 31.4878 46.3147 31.4499 46.4284 31.3363C46.5136 31.2605 46.5799 31.1469 46.5799 31.0901C46.5799 30.9102 42.8863 25.0668 42.7348 25.01C42.5454 24.9343 42.5643 24.9343 42.3939 25.0668Z" fill="white"/>
<path d="M12.3448 27.3851C11.218 28.1236 8.32924 29.5065 5.64923 30.5858C3.88765 31.3054 3.13018 31.7599 2.38218 32.5557C0.961462 34.0806 0.40283 36.1925 0.308147 40.3879C0.28921 41.5052 0.251337 43.0301 0.2324 43.7781L0.185059 45.123H14.6934H29.2017L29.1733 41.3632C29.1449 37.1962 29.1544 37.1204 29.7414 36.5144C30.3284 35.9179 30.4326 35.8895 32.4403 35.8895H34.2682V35.1699C34.2682 33.6545 34.9405 32.9539 36.5127 32.8213L37.3459 32.755L36.8725 32.3006C36.1903 31.6567 35.3665 31.1923 33.7001 30.5295C31.7018 29.7342 29.552 28.7301 27.9798 27.8495C27.2602 27.4518 26.6348 27.1583 26.597 27.1962C26.5591 27.2341 25.6213 30.1508 24.5135 33.6645C23.4061 37.1777 22.4688 40.0944 22.4404 40.1323C22.4025 40.1702 22.0048 39.166 21.5598 37.9068L20.755 35.6055L21.1053 35.0847C21.9385 33.8538 22.384 32.6414 22.3173 31.8082C22.2605 31.1454 21.9101 30.6909 21.2095 30.3591C20.7455 30.1508 20.5562 30.1129 19.732 30.1129C18.8798 30.1129 18.7283 30.1413 18.2355 30.378C17.2976 30.842 16.9757 31.5999 17.2602 32.6982C17.4212 33.3421 17.9136 34.3746 18.4159 35.1321L18.7472 35.6244L17.9803 37.7931C17.5637 38.9866 17.1944 40.0281 17.166 40.1039C17.1187 40.227 17.1092 40.227 17.0429 40.1039C16.9956 40.0281 16.0582 37.0735 14.9405 33.5409C13.8327 30.0177 12.8759 27.1294 12.8191 27.1389C12.7708 27.1389 12.5531 27.2525 12.3448 27.3851Z" fill="white"/>
<path d="M35.992 34.4807L35.7837 34.6227V39.7176C35.7837 44.5285 35.7932 44.822 35.9541 44.964C36.1056 45.0966 36.3613 45.125 37.5547 45.125C38.8145 45.125 38.9944 45.1061 39.127 44.9546C39.269 44.7936 39.2879 44.2918 39.2879 39.6987V34.6227L39.0796 34.4807C38.9092 34.3576 38.5873 34.3292 37.5363 34.3292C36.4848 34.3292 36.1624 34.3576 35.992 34.4807Z" fill="white"/>
<path d="M30.8593 37.5484C30.6794 37.7283 30.6699 37.8609 30.6699 41.242C30.6699 44.6227 30.6794 44.7553 30.8593 44.9356C31.0297 45.1061 31.1717 45.125 32.4694 45.125C33.7665 45.125 33.9086 45.1061 34.0795 44.9356C34.2594 44.7557 34.2688 44.6232 34.2688 41.242C34.2688 37.8609 34.2594 37.7288 34.0795 37.5484C33.909 37.378 33.767 37.3591 32.4694 37.3591C31.1717 37.3591 31.0297 37.378 30.8593 37.5484Z" fill="white"/>
</svg>
