<svg width="51" height="50" viewBox="0 0 51 50" fill="none" xmlns="http://www.w3.org/2000/svg">
<path fill-rule="evenodd" clip-rule="evenodd" d="M14.7571 16.0324V14.4656H15.6925C16.8311 14.4656 17.7073 14.2152 18.3233 13.7135C18.9392 13.2128 19.2477 12.4925 19.2477 11.5516C19.2477 10.6567 18.9678 9.97819 18.4067 9.51814C17.8467 9.0581 17.0035 8.82862 15.8781 8.82862H13.2847V16.0324H11.921V17.4751H13.2847V18.7366H14.756V17.474H17.3285V16.0324H14.7571ZM29.3633 12.4168C28.4333 5.43372 22.4538 0.0449219 15.2149 0.0449219C7.33155 0.0449219 0.941406 6.43506 0.941406 14.3184C0.941406 21.5573 6.32911 27.5368 13.3132 28.4668C14.7395 20.2914 21.1878 13.843 29.3633 12.4168ZM14.7571 13.2271H15.5388C16.2942 13.2271 16.8487 13.0953 17.2022 12.8329C17.5558 12.5694 17.7325 12.1598 17.7325 11.601C17.7325 11.0838 17.5744 10.6974 17.2582 10.4426C16.942 10.1879 16.449 10.0605 15.7793 10.0605H14.7571V13.2271ZM34.684 32.9838C34.5156 33.2755 34.2823 33.5246 34.0023 33.7118C33.7222 33.8989 33.4029 34.0191 33.0689 34.0631C32.7349 34.1071 32.3953 34.0736 32.0764 33.9654C31.7574 33.8571 31.4676 33.6769 31.2294 33.4387C30.9913 33.2005 30.8111 32.9108 30.7028 32.5918C30.5945 32.2728 30.5611 31.9332 30.6051 31.5993C30.649 31.2653 30.7693 30.9459 30.9564 30.6659C31.1436 30.3858 31.3926 30.1526 31.6844 29.9842V24.1979C31.6844 23.5929 32.1719 23.1021 32.7823 23.1021C33.3884 23.1021 33.8803 23.5918 33.8803 24.1979V29.9842C34.2141 30.1763 34.4919 30.4541 34.684 30.7879H41.5715C42.1754 30.7879 42.664 31.2754 42.664 31.8858C42.664 32.4919 42.1633 32.9838 41.5715 32.9838H34.684Z" fill="white"/>
<circle cx="33.0087" cy="31.7113" r="16.4088" stroke="white" stroke-width="2.4566"/>
</svg>
