<svg width="45" height="51" viewBox="0 0 45 51" fill="none" xmlns="http://www.w3.org/2000/svg">
<path d="M42.8596 41.4691H41.6344C41.4344 42.156 41.1474 42.8071 40.7834 43.412L41.9163 44.4938C42.6392 45.1858 42.6392 46.3086 41.9163 46.9955L41.255 47.6261C40.5322 48.3182 39.3531 48.3182 38.6251 47.6261L37.4818 46.5393C36.8461 46.8828 36.1643 47.1493 35.4466 47.3339V48.4669C35.4466 49.4461 34.6161 50.2355 33.5908 50.2355H32.6628C31.6375 50.2355 30.807 49.4409 30.807 48.4669V47.3339C30.0842 47.1493 29.4074 46.8776 28.7717 46.5393L27.6285 47.6261C26.9005 48.3182 25.7265 48.3182 24.9986 47.6261L24.3372 47.0007C23.6093 46.3086 23.6093 45.191 24.3372 44.4989L25.4702 43.4172C25.1062 42.8122 24.8191 42.1612 24.6192 41.4742H23.3939C22.3686 41.4742 21.5381 40.6847 21.5381 39.7055V38.8186C21.5381 37.8394 22.3686 37.0499 23.3939 37.0499H24.6089C24.7986 36.3681 25.0755 35.717 25.4292 35.1172L24.3372 34.0816C23.6093 33.3895 23.6093 32.2668 24.3372 31.5799L24.9986 30.9544C25.7214 30.2623 26.9005 30.2623 27.6285 30.9544L28.7 31.9746C29.3511 31.6106 30.0585 31.3286 30.807 31.1338V29.9445C30.807 28.9653 31.6375 28.1758 32.6628 28.1758H33.5908C34.6161 28.1758 35.4466 28.9704 35.4466 29.9445V31.1338C36.1951 31.3286 36.9025 31.6106 37.5536 31.9746L38.6251 30.9544C39.3531 30.2623 40.527 30.2623 41.255 30.9544L41.9163 31.5799C42.6392 32.2719 42.6392 33.3947 41.9163 34.0816L40.8244 35.1172C41.1781 35.717 41.455 36.3681 41.6446 37.0499H42.8596C43.885 37.0499 44.7155 37.8394 44.7155 38.8186V39.7055C44.7155 40.6796 43.885 41.4691 42.8596 41.4691ZM33.1294 34.42C30.3097 34.42 28.0181 36.5988 28.0181 39.2903C28.0181 41.9817 30.3097 44.1605 33.1294 44.1605C35.9541 44.1605 38.2457 41.9817 38.2457 39.2903C38.2406 36.5988 35.949 34.42 33.1294 34.42ZM33.1294 41.4434C31.8477 41.4434 30.807 40.454 30.807 39.2287C30.807 38.0086 31.8477 37.014 33.1294 37.014C34.4161 37.014 35.4517 38.0035 35.4517 39.2287C35.4517 40.454 34.411 41.4434 33.1294 41.4434ZM10.5262 36.9064H8.56782V35.0608H10.5262V36.9064ZM10.5262 31.3697H8.56782V29.5241H10.5262V31.3697ZM10.5262 25.8329H8.56782V23.9874H10.5262V25.8329ZM8.57295 12.919H10.5313V14.7646H8.57295V12.919ZM10.5262 20.3013H8.56782V18.4558H10.5262V20.3013ZM12.4794 36.9064V35.0608H19.8566C19.6464 35.6606 19.4875 36.2758 19.3644 36.9064H12.4794ZM21.9072 31.3697H12.4794V29.5241H23.6605C23.0146 30.0931 22.4301 30.7083 21.9072 31.3697ZM28.1104 25.8329H12.4794V23.9874H28.1104V25.8329ZM12.4794 12.919H28.1104V14.7646H12.4794V12.919ZM28.1104 20.3013H12.4794V18.4558H28.1104V20.3013ZM32.0169 25.956V9.10997H24.2039V3.69115H4.66648V40.4848H19.2158C19.3542 41.8228 19.7028 43.0993 20.236 44.2887H0.754883V0H27.9874L35.9285 7.3823V26.0841C35.1441 25.9611 34.3495 25.8842 33.5292 25.8842C33.0166 25.8791 32.5142 25.9098 32.0169 25.956Z" fill="white"/>
</svg>
