<svg width="77" height="77" viewBox="0 0 77 77" fill="none" xmlns="http://www.w3.org/2000/svg">
<path fill-rule="evenodd" clip-rule="evenodd" d="M21.1335 25.4037V23.0071H22.5644C24.306 23.0071 25.6462 22.6242 26.5884 21.8567C27.5305 21.0909 28.0025 19.9892 28.0025 18.5499C28.0025 17.1811 27.5742 16.1432 26.716 15.4395C25.8595 14.7358 24.5697 14.3848 22.8482 14.3848H18.8814V25.4037H16.7955V27.6105H18.8814V29.5402H21.1318V27.6088H25.0668V25.4037H21.1335ZM43.4752 19.8733C42.0527 9.19196 32.9065 0.949219 21.8338 0.949219C9.77538 0.949219 0.000976562 10.7236 0.000976562 22.7821C0.000976562 33.8547 8.24204 43.001 18.925 44.4235C21.1066 31.9183 30.97 22.0549 43.4752 19.8733ZM21.1335 21.1127H22.3293C23.4847 21.1127 24.3329 20.9112 24.8736 20.5098C25.4144 20.1067 25.6848 19.4803 25.6848 18.6254C25.6848 17.8344 25.443 17.2432 24.9593 16.8536C24.4756 16.464 23.7215 16.2692 22.6971 16.2692H21.1335V21.1127ZM51.6139 51.3327C51.3563 51.779 50.9995 52.16 50.5711 52.4462C50.1427 52.7325 49.6542 52.9164 49.1434 52.9836C48.6326 53.0509 48.1131 52.9998 47.6252 52.8342C47.1373 52.6686 46.6941 52.3929 46.3297 52.0286C45.9654 51.6643 45.6898 51.221 45.5242 50.7331C45.3586 50.2452 45.3074 49.7258 45.3747 49.2149C45.442 48.7041 45.6258 48.2156 45.9121 47.7872C46.1984 47.3589 46.5794 47.0021 47.0256 46.7445V37.8938C47.0256 36.9684 47.7713 36.2177 48.705 36.2177C49.6321 36.2177 50.3845 36.9667 50.3845 37.8938V46.7445C50.895 47.0384 51.3199 47.4633 51.6139 47.9738H62.149C63.0727 47.9738 63.8201 48.7195 63.8201 49.6533C63.8201 50.5803 63.0543 51.3327 62.149 51.3327H51.6139Z" fill="white"/>
<circle cx="49.0516" cy="49.386" r="25.2218" stroke="white" stroke-width="3.51214"/>
</svg>
