<svg width="240" height="52" viewBox="0 0 240 52" fill="none" xmlns="http://www.w3.org/2000/svg">
<path d="M2.95343 38.1398H10.6896V38.8375H3.7441V42.7443H7.41841C8.68969 42.7443 9.65607 43.0027 10.3175 43.5195C10.979 44.0363 11.3098 44.7959 11.3098 45.7985C11.3098 46.832 10.9584 47.6227 10.2555 48.1705C9.55271 48.7183 8.53465 48.9922 7.20136 48.9922H2.95343V38.1398ZM7.21686 48.3255C8.3021 48.3255 9.12378 48.1188 9.68191 47.7054C10.24 47.2816 10.5191 46.6563 10.5191 45.8295C10.5191 44.2068 9.41835 43.3955 7.21686 43.3955H3.7441V48.3255H7.21686ZM16.9789 40.8374C17.9814 40.8374 18.7514 41.0958 19.2889 41.6126C19.8263 42.119 20.0951 42.8683 20.0951 43.8606V48.9922H19.3509V47.5504C19.0925 48.0258 18.7153 48.3979 18.2191 48.6666C17.723 48.925 17.1287 49.0542 16.4363 49.0542C15.5371 49.0542 14.8239 48.8423 14.2968 48.4186C13.78 47.9948 13.5216 47.4367 13.5216 46.7442C13.5216 46.0724 13.7593 45.5298 14.2348 45.1163C14.7205 44.6926 15.4905 44.4807 16.5448 44.4807H19.3199V43.8296C19.3199 43.0751 19.1132 42.5014 18.6998 42.1087C18.2967 41.7159 17.7024 41.5195 16.9169 41.5195C16.3794 41.5195 15.8626 41.6126 15.3665 41.7986C14.8807 41.9846 14.4673 42.2327 14.1262 42.5428L13.7387 41.9846C14.1418 41.6229 14.6275 41.3438 15.196 41.1475C15.7644 40.9408 16.3587 40.8374 16.9789 40.8374ZM16.5448 48.4186C17.2166 48.4186 17.7851 48.2635 18.2502 47.9535C18.7256 47.6434 19.0822 47.1938 19.3199 46.6047V45.0853H16.5603C15.7644 45.0853 15.1856 45.23 14.8239 45.5194C14.4725 45.8088 14.2968 46.2067 14.2968 46.7132C14.2968 47.2403 14.4932 47.6589 14.8859 47.969C15.2787 48.2687 15.8316 48.4186 16.5448 48.4186ZM23.6633 40.8994H24.4385V44.5892H29.9267V40.8994H30.7019V48.9922H29.9267V45.2714H24.4385V48.9922H23.6633V40.8994ZM37.2123 45.2404H35.2434V48.9922H34.4682V40.8994H35.2434V44.5737H37.2123L40.2665 40.8994H41.1192L37.8324 44.8218L41.3672 48.9922H40.437L37.2123 45.2404ZM43.6985 40.8994H44.4737V47.7984L50.2409 40.8994H50.9231V48.9922H50.1479V42.0932L44.3806 48.9922H43.6985V40.8994ZM59.0856 40.8994H59.8608V47.7984L65.6281 40.8994H66.3102V48.9922H65.5351V42.0932L59.7678 48.9922H59.0856V40.8994ZM74.4728 40.8994H75.248V47.7984L81.0152 40.8994H81.6974V48.9922H80.9222V42.0932L75.155 48.9922H74.4728V40.8994ZM85.4593 40.8994H86.2345V44.5892H91.7227V40.8994H92.4979V48.9922H91.7227V45.2714H86.2345V48.9922H85.4593V40.8994ZM101.055 44.8218C102.243 45.0285 102.838 45.6951 102.838 46.8217C102.838 47.5245 102.579 48.062 102.062 48.4341C101.556 48.8061 100.791 48.9922 99.768 48.9922H96.2642V40.8994H99.675C100.574 40.8994 101.277 41.0803 101.783 41.442C102.3 41.7934 102.559 42.2999 102.559 42.9614C102.559 43.4368 102.424 43.8347 102.155 44.1551C101.897 44.4652 101.53 44.6874 101.055 44.8218ZM97.0239 44.5892H99.6284C100.321 44.5892 100.853 44.46 101.225 44.2016C101.597 43.9329 101.783 43.5505 101.783 43.0544C101.783 42.5479 101.597 42.1707 101.225 41.9226C100.864 41.6642 100.331 41.5351 99.6284 41.5351H97.0239V44.5892ZM99.7525 48.3565C101.292 48.3565 102.062 47.8346 102.062 46.7907C102.062 46.2429 101.887 45.8398 101.535 45.5814C101.184 45.323 100.631 45.1939 99.8765 45.1939H97.0239V48.3565H99.7525ZM112.908 45.1318H105.947C105.968 45.7623 106.128 46.3256 106.428 46.8217C106.728 47.3075 107.131 47.6847 107.637 47.9535C108.154 48.2222 108.733 48.3565 109.373 48.3565C109.901 48.3565 110.386 48.2635 110.831 48.0775C111.286 47.8811 111.663 47.5969 111.963 47.2248L112.412 47.7364C112.061 48.1602 111.616 48.4857 111.079 48.7131C110.552 48.9405 109.978 49.0542 109.358 49.0542C108.552 49.0542 107.833 48.8785 107.203 48.5271C106.573 48.1757 106.076 47.6899 105.715 47.0698C105.363 46.4496 105.188 45.7416 105.188 44.9458C105.188 44.1603 105.353 43.4575 105.684 42.8373C106.025 42.2069 106.49 41.7159 107.079 41.3645C107.668 41.0131 108.33 40.8374 109.063 40.8374C109.797 40.8374 110.454 41.0131 111.032 41.3645C111.621 41.7056 112.081 42.1862 112.412 42.8063C112.753 43.4265 112.924 44.1293 112.924 44.9148L112.908 45.1318ZM109.063 41.5195C108.495 41.5195 107.983 41.6487 107.529 41.9071C107.074 42.1552 106.707 42.5118 106.428 42.9769C106.159 43.4316 106.004 43.9484 105.963 44.5272H112.164C112.133 43.9484 111.978 43.4316 111.699 42.9769C111.42 42.5221 111.053 42.1655 110.598 41.9071C110.144 41.6487 109.632 41.5195 109.063 41.5195ZM119.147 49.0542C118.361 49.0542 117.658 48.8785 117.038 48.5271C116.418 48.1757 115.932 47.6899 115.581 47.0698C115.229 46.4393 115.054 45.7313 115.054 44.9458C115.054 44.15 115.229 43.442 115.581 42.8218C115.932 42.1914 116.418 41.7056 117.038 41.3645C117.658 41.0131 118.361 40.8374 119.147 40.8374C119.798 40.8374 120.387 40.9666 120.914 41.225C121.451 41.473 121.886 41.84 122.216 42.3257L121.643 42.7443C121.353 42.3412 120.992 42.0415 120.557 41.8451C120.134 41.6384 119.663 41.5351 119.147 41.5351C118.516 41.5351 117.948 41.6797 117.441 41.9691C116.945 42.2482 116.552 42.6461 116.263 43.1629C115.984 43.6797 115.844 44.274 115.844 44.9458C115.844 45.6176 115.984 46.2119 116.263 46.7287C116.552 47.2455 116.945 47.6486 117.441 47.938C117.948 48.217 118.516 48.3565 119.147 48.3565C119.663 48.3565 120.134 48.2584 120.557 48.062C120.992 47.8553 121.353 47.5504 121.643 47.1473L122.216 47.5659C121.886 48.0516 121.451 48.4237 120.914 48.6821C120.387 48.9302 119.798 49.0542 119.147 49.0542ZM130.153 41.5971H126.99V48.9922H126.215V41.5971H123.052V40.8994H130.153V41.5971ZM135.078 49.0542C134.313 49.0542 133.62 48.8785 133 48.5271C132.39 48.1757 131.91 47.6899 131.558 47.0698C131.207 46.4393 131.031 45.7313 131.031 44.9458C131.031 44.1603 131.207 43.4575 131.558 42.8373C131.91 42.2069 132.39 41.7159 133 41.3645C133.62 41.0131 134.313 40.8374 135.078 40.8374C135.843 40.8374 136.53 41.0131 137.14 41.3645C137.76 41.7159 138.246 42.2069 138.597 42.8373C138.948 43.4575 139.124 44.1603 139.124 44.9458C139.124 45.7313 138.948 46.4393 138.597 47.0698C138.246 47.6899 137.76 48.1757 137.14 48.5271C136.53 48.8785 135.843 49.0542 135.078 49.0542ZM135.078 48.3565C135.698 48.3565 136.251 48.2118 136.737 47.9225C137.233 47.6331 137.62 47.23 137.899 46.7132C138.189 46.1964 138.333 45.6073 138.333 44.9458C138.333 44.2843 138.189 43.6952 137.899 43.1784C137.62 42.6616 137.233 42.2585 136.737 41.9691C136.251 41.6797 135.698 41.5351 135.078 41.5351C134.458 41.5351 133.899 41.6797 133.403 41.9691C132.918 42.2585 132.53 42.6616 132.241 43.1784C131.962 43.6952 131.822 44.2843 131.822 44.9458C131.822 45.6073 131.962 46.1964 132.241 46.7132C132.53 47.23 132.918 47.6331 133.403 47.9225C133.899 48.2118 134.458 48.3565 135.078 48.3565ZM146.145 40.8374C146.899 40.8374 147.581 41.0131 148.191 41.3645C148.801 41.7159 149.277 42.2017 149.618 42.8218C149.969 43.442 150.145 44.15 150.145 44.9458C150.145 45.7416 149.969 46.4548 149.618 47.0853C149.277 47.7054 148.801 48.1912 148.191 48.5426C147.581 48.8837 146.899 49.0542 146.145 49.0542C145.432 49.0542 144.786 48.8888 144.207 48.5581C143.628 48.217 143.179 47.7467 142.858 47.1473V51.9998H142.083V40.8994H142.827V42.8063C143.148 42.1862 143.597 41.7056 144.176 41.3645C144.765 41.0131 145.421 40.8374 146.145 40.8374ZM146.098 48.3565C146.718 48.3565 147.277 48.2118 147.773 47.9225C148.269 47.6331 148.656 47.23 148.935 46.7132C149.225 46.1964 149.37 45.6073 149.37 44.9458C149.37 44.2843 149.225 43.6952 148.935 43.1784C148.656 42.6616 148.269 42.2585 147.773 41.9691C147.277 41.6797 146.718 41.5351 146.098 41.5351C145.478 41.5351 144.92 41.6797 144.424 41.9691C143.938 42.2585 143.551 42.6616 143.261 43.1784C142.982 43.6952 142.843 44.2843 142.843 44.9458C142.843 45.6073 142.982 46.1964 143.261 46.7132C143.551 47.23 143.938 47.6331 144.424 47.9225C144.92 48.2118 145.478 48.3565 146.098 48.3565ZM156.278 43.8451C157.281 43.8554 158.045 44.0776 158.572 44.5117C159.1 44.9355 159.363 45.5608 159.363 46.3876C159.363 47.2455 159.084 47.9018 158.526 48.3565C157.968 48.8113 157.162 49.0335 156.107 49.0232L153.084 48.9922V40.8994H153.859V43.8141L156.278 43.8451ZM160.851 40.8994H161.627V48.9922H160.851V40.8994ZM156.076 48.4031C156.903 48.4134 157.529 48.248 157.952 47.9069C158.376 47.5659 158.588 47.0594 158.588 46.3876C158.588 45.7365 158.381 45.2559 157.968 44.9458C157.554 44.6254 156.924 44.4549 156.076 44.4342L153.859 44.4187V48.3721L156.076 48.4031ZM180.316 48.9922L180.3 39.7056L175.758 47.5504H175.37L170.828 39.7367V48.9922H170.053V38.1398H170.719L175.572 46.5271L180.424 38.1398H181.075L181.091 48.9922H180.316ZM188.36 49.0542C187.595 49.0542 186.903 48.8785 186.283 48.5271C185.673 48.1757 185.192 47.6899 184.841 47.0698C184.489 46.4393 184.314 45.7313 184.314 44.9458C184.314 44.1603 184.489 43.4575 184.841 42.8373C185.192 42.2069 185.673 41.7159 186.283 41.3645C186.903 41.0131 187.595 40.8374 188.36 40.8374C189.125 40.8374 189.812 41.0131 190.422 41.3645C191.042 41.7159 191.528 42.2069 191.879 42.8373C192.231 43.4575 192.407 44.1603 192.407 44.9458C192.407 45.7313 192.231 46.4393 191.879 47.0698C191.528 47.6899 191.042 48.1757 190.422 48.5271C189.812 48.8785 189.125 49.0542 188.36 49.0542ZM188.36 48.3565C188.98 48.3565 189.533 48.2118 190.019 47.9225C190.515 47.6331 190.903 47.23 191.182 46.7132C191.471 46.1964 191.616 45.6073 191.616 44.9458C191.616 44.2843 191.471 43.6952 191.182 43.1784C190.903 42.6616 190.515 42.2585 190.019 41.9691C189.533 41.6797 188.98 41.5351 188.36 41.5351C187.74 41.5351 187.182 41.6797 186.686 41.9691C186.2 42.2585 185.812 42.6616 185.523 43.1784C185.244 43.6952 185.104 44.2843 185.104 44.9458C185.104 45.6073 185.244 46.1964 185.523 46.7132C185.812 47.23 186.2 47.6331 186.686 47.9225C187.182 48.2118 187.74 48.3565 188.36 48.3565ZM198.621 49.0542C197.836 49.0542 197.133 48.8785 196.513 48.5271C195.892 48.1757 195.407 47.6899 195.055 47.0698C194.704 46.4393 194.528 45.7313 194.528 44.9458C194.528 44.15 194.704 43.442 195.055 42.8218C195.407 42.1914 195.892 41.7056 196.513 41.3645C197.133 41.0131 197.836 40.8374 198.621 40.8374C199.272 40.8374 199.861 40.9666 200.388 41.225C200.926 41.473 201.36 41.84 201.691 42.3257L201.117 42.7443C200.828 42.3412 200.466 42.0415 200.032 41.8451C199.608 41.6384 199.138 41.5351 198.621 41.5351C197.991 41.5351 197.422 41.6797 196.916 41.9691C196.42 42.2482 196.027 42.6461 195.737 43.1629C195.458 43.6797 195.319 44.274 195.319 44.9458C195.319 45.6176 195.458 46.2119 195.737 46.7287C196.027 47.2455 196.42 47.6486 196.916 47.938C197.422 48.217 197.991 48.3565 198.621 48.3565C199.138 48.3565 199.608 48.2584 200.032 48.062C200.466 47.8553 200.828 47.5504 201.117 47.1473L201.691 47.5659C201.36 48.0516 200.926 48.4237 200.388 48.6821C199.861 48.9302 199.272 49.0542 198.621 49.0542ZM207.143 45.2404H205.174V48.9922H204.398V40.8994H205.174V44.5737H207.143L210.197 40.8994H211.049L207.763 44.8218L211.298 48.9922H210.367L207.143 45.2404ZM218.419 44.8218C219.608 45.0285 220.202 45.6951 220.202 46.8217C220.202 47.5245 219.944 48.062 219.427 48.4341C218.921 48.8061 218.156 48.9922 217.133 48.9922H213.629V40.8994H217.04C217.939 40.8994 218.642 41.0803 219.148 41.442C219.665 41.7934 219.923 42.2999 219.923 42.9614C219.923 43.4368 219.789 43.8347 219.52 44.1551C219.262 44.4652 218.895 44.6874 218.419 44.8218ZM214.388 44.5892H216.993C217.685 44.5892 218.218 44.46 218.59 44.2016C218.962 43.9329 219.148 43.5505 219.148 43.0544C219.148 42.5479 218.962 42.1707 218.59 41.9226C218.228 41.6642 217.696 41.5351 216.993 41.5351H214.388V44.5892ZM217.117 48.3565C218.657 48.3565 219.427 47.8346 219.427 46.7907C219.427 46.2429 219.251 45.8398 218.9 45.5814C218.549 45.323 217.996 45.1939 217.241 45.1939H214.388V48.3565H217.117ZM226.568 43.8451C227.57 43.8554 228.335 44.0776 228.862 44.5117C229.389 44.9355 229.653 45.5608 229.653 46.3876C229.653 47.2455 229.374 47.9018 228.816 48.3565C228.257 48.8113 227.451 49.0335 226.397 49.0232L223.374 48.9922V40.8994H224.149V43.8141L226.568 43.8451ZM231.141 40.8994H231.916V48.9922H231.141V40.8994ZM226.366 48.4031C227.193 48.4134 227.818 48.248 228.242 47.9069C228.666 47.5659 228.878 47.0594 228.878 46.3876C228.878 45.7365 228.671 45.2559 228.257 44.9458C227.844 44.6254 227.214 44.4549 226.366 44.4342L224.149 44.4187V48.3721L226.366 48.4031Z" fill="#E5E5E5"/>
<path d="M8.67712 26H6.25935V8.94127H0.268641V6.819H14.641V8.94127H8.67712V26ZM28.2337 18.7735C28.2337 21.1555 27.6248 23.0002 26.4069 24.3076C25.207 25.6149 23.5772 26.2686 21.5176 26.2686C20.2461 26.2686 19.1088 25.9821 18.1059 25.409C17.1209 24.818 16.3418 23.9673 15.7687 22.8569C15.1956 21.7286 14.9091 20.3675 14.9091 18.7735C14.9091 16.3916 15.509 14.5559 16.709 13.2664C17.9089 11.9769 19.5386 11.3322 21.5982 11.3322C22.9056 11.3322 24.0518 11.6277 25.0368 12.2187C26.0398 12.7918 26.8188 13.6335 27.374 14.7439C27.9471 15.8364 28.2337 17.1796 28.2337 18.7735ZM17.3537 18.7735C17.3537 20.4749 17.685 21.8271 18.3477 22.83C19.0282 23.815 20.1028 24.3076 21.5714 24.3076C23.022 24.3076 24.0876 23.815 24.7682 22.83C25.4488 21.8271 25.789 20.4749 25.789 18.7735C25.789 17.0721 25.4488 15.7379 24.7682 14.7708C24.0876 13.8037 23.0131 13.3201 21.5445 13.3201C20.0759 13.3201 19.0103 13.8037 18.3477 14.7708C17.685 15.7379 17.3537 17.0721 17.3537 18.7735ZM44.5428 11.6008V26H42.1788V13.6156H34.7374V26H32.3734V11.6008H44.5428ZM57.6443 6.819H59.9009V17.3497C59.9009 17.9408 59.8919 18.6034 59.874 19.3377C59.8561 20.072 59.8293 20.7436 59.7934 21.3525C59.7755 21.9614 59.7487 22.4092 59.7128 22.6957H59.8203L70.3779 6.819H73.0643V26H70.8077V15.5767C70.8077 14.9141 70.8167 14.2066 70.8346 13.4544C70.8704 12.7022 70.9062 12.0127 70.9421 11.3859C70.9779 10.7591 71.0047 10.3113 71.0227 10.0427H70.9152L60.3307 26H57.6443V6.819ZM80.6724 11.6008V17.5915H88.4899V11.6008H90.8539V26H88.4899V19.5795H80.6724V26H78.3084V11.6008H80.6724ZM107.385 15.2275C107.385 16.1229 107.116 16.8214 106.579 17.3229C106.041 17.8243 105.352 18.1646 104.51 18.3437V18.4512C105.406 18.5765 106.185 18.8989 106.847 19.4183C107.51 19.9197 107.841 20.7078 107.841 21.7823C107.841 23.0002 107.385 24.0121 106.471 24.818C105.576 25.606 104.089 26 102.012 26H95.8063V11.6008H101.985C103.006 11.6008 103.919 11.7172 104.725 11.9501C105.549 12.165 106.194 12.5411 106.659 13.0783C107.143 13.5977 107.385 14.3141 107.385 15.2275ZM104.994 15.523C104.994 14.8424 104.743 14.3499 104.242 14.0455C103.758 13.7231 102.961 13.5619 101.851 13.5619H98.1703V17.5109H101.421C103.803 17.5109 104.994 16.8483 104.994 15.523ZM105.397 21.7823C105.397 20.9585 105.083 20.3675 104.457 20.0093C103.83 19.6511 102.907 19.472 101.69 19.472H98.1703V24.0926H101.743C102.925 24.0926 103.83 23.9225 104.457 23.5822C105.083 23.224 105.397 22.6241 105.397 21.7823ZM117.238 11.3322C118.474 11.3322 119.531 11.6008 120.408 12.1381C121.304 12.6754 121.984 13.4365 122.45 14.4216C122.934 15.3887 123.175 16.5259 123.175 17.8333V19.2571H113.316C113.352 20.8869 113.764 22.1316 114.552 22.9912C115.358 23.833 116.477 24.2538 117.91 24.2538C118.823 24.2538 119.629 24.1732 120.328 24.0121C121.044 23.833 121.779 23.5822 122.531 23.2599V25.3284C121.796 25.6508 121.071 25.8836 120.355 26.0269C119.638 26.188 118.788 26.2686 117.803 26.2686C116.442 26.2686 115.233 25.991 114.176 25.4359C113.137 24.8807 112.322 24.0568 111.731 22.9644C111.158 21.854 110.872 20.5018 110.872 18.9079C110.872 17.3318 111.131 15.9797 111.651 14.8514C112.188 13.7231 112.931 12.8545 113.88 12.2456C114.848 11.6366 115.967 11.3322 117.238 11.3322ZM117.212 13.2664C116.083 13.2664 115.188 13.6335 114.525 14.3678C113.88 15.0842 113.495 16.0871 113.37 17.3766H120.704C120.686 16.1588 120.399 15.1737 119.844 14.4216C119.289 13.6514 118.412 13.2664 117.212 13.2664ZM133.01 26.2686C131.738 26.2686 130.601 26.009 129.598 25.4896C128.613 24.9702 127.834 24.1643 127.261 23.0718C126.706 21.9793 126.428 20.5824 126.428 18.881C126.428 17.108 126.724 15.6663 127.315 14.5559C127.906 13.4455 128.703 12.6306 129.706 12.1112C130.726 11.5919 131.882 11.3322 133.171 11.3322C133.905 11.3322 134.613 11.4128 135.293 11.574C135.974 11.7172 136.529 11.8963 136.959 12.1112L136.234 14.0723C135.804 13.9111 135.302 13.7589 134.729 13.6156C134.156 13.4724 133.619 13.4007 133.117 13.4007C130.288 13.4007 128.873 15.2185 128.873 18.8541C128.873 20.5914 129.213 21.9256 129.894 22.8569C130.592 23.7703 131.622 24.227 132.983 24.227C133.771 24.227 134.461 24.1464 135.052 23.9852C135.661 23.824 136.216 23.627 136.717 23.3942V25.4896C136.234 25.7403 135.696 25.9284 135.105 26.0537C134.532 26.197 133.834 26.2686 133.01 26.2686ZM150.474 13.5888H145.773V26H143.436V13.5888H138.788V11.6008H150.474V13.5888ZM165.96 18.7735C165.96 21.1555 165.351 23.0002 164.133 24.3076C162.933 25.6149 161.304 26.2686 159.244 26.2686C157.972 26.2686 156.835 25.9821 155.832 25.409C154.847 24.818 154.068 23.9673 153.495 22.8569C152.922 21.7286 152.635 20.3675 152.635 18.7735C152.635 16.3916 153.235 14.5559 154.435 13.2664C155.635 11.9769 157.265 11.3322 159.325 11.3322C160.632 11.3322 161.778 11.6277 162.763 12.2187C163.766 12.7918 164.545 13.6335 165.1 14.7439C165.673 15.8364 165.96 17.1796 165.96 18.7735ZM155.08 18.7735C155.08 20.4749 155.411 21.8271 156.074 22.83C156.755 23.815 157.829 24.3076 159.298 24.3076C160.748 24.3076 161.814 23.815 162.495 22.83C163.175 21.8271 163.515 20.4749 163.515 18.7735C163.515 17.0721 163.175 15.7379 162.495 14.7708C161.814 13.8037 160.739 13.3201 159.271 13.3201C157.802 13.3201 156.737 13.8037 156.074 14.7708C155.411 15.7379 155.08 17.0721 155.08 18.7735ZM176.95 11.3322C178.723 11.3322 180.147 11.9501 181.221 13.1858C182.314 14.4216 182.86 16.2841 182.86 18.7735C182.86 21.2271 182.314 23.0897 181.221 24.3613C180.147 25.6329 178.714 26.2686 176.923 26.2686C175.813 26.2686 174.89 26.0627 174.156 25.6508C173.44 25.2209 172.876 24.7284 172.464 24.1732H172.303C172.338 24.4777 172.374 24.8628 172.41 25.3284C172.446 25.794 172.464 26.197 172.464 26.5373V32.4474H170.1V11.6008H172.034L172.356 13.5619H172.464C172.894 12.9351 173.458 12.4067 174.156 11.9769C174.855 11.5471 175.786 11.3322 176.95 11.3322ZM176.52 13.3201C175.052 13.3201 174.013 13.732 173.404 14.5559C172.813 15.3797 172.5 16.6334 172.464 18.3169V18.7735C172.464 20.5466 172.75 21.9166 173.323 22.8838C173.914 23.833 174.998 24.3076 176.574 24.3076C177.452 24.3076 178.168 24.0658 178.723 23.5822C179.296 23.0987 179.717 22.445 179.986 21.6211C180.272 20.7794 180.416 19.8212 180.416 18.7467C180.416 17.099 180.093 15.7827 179.448 14.7977C178.822 13.8126 177.846 13.3201 176.52 13.3201ZM192.796 26.2686C191.525 26.2686 190.387 26.009 189.384 25.4896C188.399 24.9702 187.62 24.1643 187.047 23.0718C186.492 21.9793 186.214 20.5824 186.214 18.881C186.214 17.108 186.51 15.6663 187.101 14.5559C187.692 13.4455 188.489 12.6306 189.492 12.1112C190.513 11.5919 191.668 11.3322 192.957 11.3322C193.692 11.3322 194.399 11.4128 195.08 11.574C195.76 11.7172 196.315 11.8963 196.745 12.1112L196.02 14.0723C195.59 13.9111 195.089 13.7589 194.516 13.6156C193.942 13.4724 193.405 13.4007 192.904 13.4007C190.074 13.4007 188.659 15.2185 188.659 18.8541C188.659 20.5914 188.999 21.9256 189.68 22.8569C190.378 23.7703 191.408 24.227 192.769 24.227C193.557 24.227 194.247 24.1464 194.838 23.9852C195.447 23.824 196.002 23.627 196.503 23.3942V25.4896C196.02 25.7403 195.483 25.9284 194.892 26.0537C194.319 26.197 193.62 26.2686 192.796 26.2686Z" fill="white"/>
<path fill-rule="evenodd" clip-rule="evenodd" d="M225.882 6.2222L217.023 8.65986L214.69 17.149L214.642 17.3197L221.129 23.5324L229.998 21.0948L232.37 12.4349L225.882 6.2222ZM212.357 4.19239L227.588 0L238.742 10.6802L234.655 25.5622L219.423 29.7546L208.058 18.8563L212.357 4.19239ZM224.908 9.7791L219.693 11.2208L218.315 16.21L218.286 16.3143L222.113 19.9755L227.328 18.5338L223.511 14.8726L224.908 9.7791Z" fill="#EB5757"/>
</svg>
